# MagicaVoxel @ Ephtracy

# group
o 

# material
mtllib CraftingBench.mtl
usemtl palette

# normals
vn -1 0 0
vn 1 0 0
vn 0 0 1
vn 0 0 -1
vn 0 -1 0
vn 0 1 0

# texcoords
vt 0.201172 0.5
vt 0.369141 0.5
vt 0.537109 0.5
vt 0.986328 0.5

# verts
v -3 0 2
v -3 0 1.5
v -3 0 -1.5
v -3 0 -2
v -3 0.1 1.9
v -3 0.1 1.5
v -3 0.1 -1.5
v -3 0.1 -1.9
v -3 3.5 1.9
v -3 3.5 1.5
v -3 3.5 -1.5
v -3 3.5 -1.9
v -3 3.6 1.9
v -3 3.6 1.3
v -3 3.6 1
v -3 3.6 -1
v -3 3.6 -1.3
v -3 3.6 -1.9
v -3 3.9 1.9
v -3 3.9 1.3
v -3 3.9 1
v -3 3.9 -1
v -3 3.9 -1.3
v -3 3.9 -1.9
v -3 4 2
v -3 4 -2
v -2.9 3.4 1.5
v -2.9 3.4 1.3
v -2.9 3.4 1
v -2.9 3.4 -1
v -2.9 3.4 -1.3
v -2.9 3.4 -1.5
v -2.9 3.5 1.5
v -2.9 3.5 1.3
v -2.9 3.5 1
v -2.9 3.5 -1
v -2.9 3.5 -1.3
v -2.9 3.5 -1.5
v -2.7 2.7 1.6
v -2.7 2.7 1.5
v -2.7 2.7 -1.5
v -2.7 2.7 -1.6
v -2.7 2.8 1.5
v -2.7 2.8 1.4
v -2.7 2.8 -1.4
v -2.7 2.8 -1.5
v -2.7 2.9 1.4
v -2.7 2.9 1.3
v -2.7 2.9 -1.3
v -2.7 2.9 -1.4
v -2.7 3 1.6
v -2.7 3 1.5
v -2.7 3 1.3
v -2.7 3 1.2
v -2.7 3 -1.2
v -2.7 3 -1.3
v -2.7 3 -1.5
v -2.7 3 -1.6
v -2.7 3.1 1.5
v -2.7 3.1 1.4
v -2.7 3.1 1.2
v -2.7 3.1 1.1
v -2.7 3.1 -1.1
v -2.7 3.1 -1.2
v -2.7 3.1 -1.4
v -2.7 3.1 -1.5
v -2.7 3.2 1.4
v -2.7 3.2 1.3
v -2.7 3.2 1.1
v -2.7 3.2 1
v -2.7 3.2 -1
v -2.7 3.2 -1.1
v -2.7 3.2 -1.3
v -2.7 3.2 -1.4
v -2.7 3.3 1.6
v -2.7 3.3 1.3
v -2.7 3.3 1
v -2.7 3.3 -1
v -2.7 3.3 -1.3
v -2.7 3.3 -1.6
v -2.7 3.4 1.6
v -2.7 3.4 1.3
v -2.7 3.4 1
v -2.7 3.4 -1
v -2.7 3.4 -1.3
v -2.7 3.4 -1.6
v -1.9 3.4 2
v -1.9 3.4 1.3
v -1.9 3.4 1
v -1.9 3.4 -1
v -1.9 3.4 -1.3
v -1.9 3.4 -2
v -1.9 3.5 2
v -1.9 3.5 1.7
v -1.9 3.5 -1.7
v -1.9 3.5 -2
v -1.9 3.6 1.7
v -1.9 3.6 1.3
v -1.9 3.6 1
v -1.9 3.6 -1
v -1.9 3.6 -1.3
v -1.9 3.6 -1.7
v -1.7 3.3 2
v -1.7 3.3 1.3
v -1.7 3.3 1
v -1.7 3.3 -1
v -1.7 3.3 -1.3
v -1.7 3.3 -2
v -1.7 3.4 2
v -1.7 3.4 1.3
v -1.7 3.4 1
v -1.7 3.4 -1
v -1.7 3.4 -1.3
v -1.7 3.4 -2
v -0.9 3.4 2
v -0.9 3.4 1.3
v -0.9 3.4 1
v -0.9 3.4 -1
v -0.9 3.4 -1.3
v -0.9 3.4 -2
v -0.9 3.5 2
v -0.9 3.5 1.7
v -0.9 3.5 -1.7
v -0.9 3.5 -2
v -0.9 3.6 1.7
v -0.9 3.6 1.3
v -0.9 3.6 1
v -0.9 3.6 -1
v -0.9 3.6 -1.3
v -0.9 3.6 -1.7
v -0.7 3.3 2
v -0.7 3.3 1.3
v -0.7 3.3 1
v -0.7 3.3 -1
v -0.7 3.3 -1.3
v -0.7 3.3 -2
v -0.7 3.4 2
v -0.7 3.4 1.3
v -0.7 3.4 1
v -0.7 3.4 -1
v -0.7 3.4 -1.3
v -0.7 3.4 -2
v 0.1 3.4 2
v 0.1 3.4 1.3
v 0.1 3.4 1
v 0.1 3.4 -1
v 0.1 3.4 -1.3
v 0.1 3.4 -2
v 0.1 3.5 2
v 0.1 3.5 1.7
v 0.1 3.5 -1.7
v 0.1 3.5 -2
v 0.1 3.6 1.7
v 0.1 3.6 1.3
v 0.1 3.6 1
v 0.1 3.6 -1
v 0.1 3.6 -1.3
v 0.1 3.6 -1.7
v 0.3 3.3 2
v 0.3 3.3 1.3
v 0.3 3.3 1
v 0.3 3.3 -1
v 0.3 3.3 -1.3
v 0.3 3.3 -2
v 0.3 3.4 2
v 0.3 3.4 1.3
v 0.3 3.4 1
v 0.3 3.4 -1
v 0.3 3.4 -1.3
v 0.3 3.4 -2
v 1.1 3.4 2
v 1.1 3.4 1.3
v 1.1 3.4 1
v 1.1 3.4 -1
v 1.1 3.4 -1.3
v 1.1 3.4 -2
v 1.1 3.5 2
v 1.1 3.5 1.7
v 1.1 3.5 -1.7
v 1.1 3.5 -2
v 1.1 3.6 1.7
v 1.1 3.6 1.3
v 1.1 3.6 1
v 1.1 3.6 -1
v 1.1 3.6 -1.3
v 1.1 3.6 -1.7
v 1.3 3.3 2
v 1.3 3.3 1.3
v 1.3 3.3 1
v 1.3 3.3 -1
v 1.3 3.3 -1.3
v 1.3 3.3 -2
v 1.3 3.4 2
v 1.3 3.4 1.3
v 1.3 3.4 1
v 1.3 3.4 -1
v 1.3 3.4 -1.3
v 1.3 3.4 -2
v 2.1 3.4 2
v 2.1 3.4 1.3
v 2.1 3.4 1
v 2.1 3.4 -1
v 2.1 3.4 -1.3
v 2.1 3.4 -2
v 2.1 3.5 2
v 2.1 3.5 1.7
v 2.1 3.5 -1.7
v 2.1 3.5 -2
v 2.1 3.6 1.7
v 2.1 3.6 1.3
v 2.1 3.6 1
v 2.1 3.6 -1
v 2.1 3.6 -1.3
v 2.1 3.6 -1.7
v 2.3 3.3 2
v 2.3 3.3 1.6
v 2.3 3.3 1.3
v 2.3 3.3 1
v 2.3 3.3 -1
v 2.3 3.3 -1.3
v 2.3 3.3 -1.6
v 2.3 3.3 -2
v 2.3 3.4 2
v 2.3 3.4 1.6
v 2.3 3.4 1.3
v 2.3 3.4 1
v 2.3 3.4 -1
v 2.3 3.4 -1.3
v 2.3 3.4 -1.6
v 2.3 3.4 -2
v 2.5 0 2
v 2.5 0 1.8
v 2.5 0 -1.8
v 2.5 0 -2
v 2.5 0.1 1.9
v 2.5 0.1 1.8
v 2.5 0.1 -1.8
v 2.5 0.1 -1.9
v 2.5 3.3 2
v 2.5 3.3 1.9
v 2.5 3.3 1.8
v 2.5 3.3 -1.8
v 2.5 3.3 -1.9
v 2.5 3.3 -2
v 2.6 0 1.8
v 2.6 0 1.6
v 2.6 0 -1.6
v 2.6 0 -1.8
v 2.6 0.1 1.8
v 2.6 0.1 1.7
v 2.6 0.1 -1.7
v 2.6 0.1 -1.8
v 2.6 2.7 1.6
v 2.6 2.7 1.5
v 2.6 2.7 -1.5
v 2.6 2.7 -1.6
v 2.6 2.8 1.5
v 2.6 2.8 1.4
v 2.6 2.8 -1.4
v 2.6 2.8 -1.5
v 2.6 2.9 1.4
v 2.6 2.9 1.3
v 2.6 2.9 -1.3
v 2.6 2.9 -1.4
v 2.6 3 1.6
v 2.6 3 1.5
v 2.6 3 1.3
v 2.6 3 1.2
v 2.6 3 -1.2
v 2.6 3 -1.3
v 2.6 3 -1.5
v 2.6 3 -1.6
v 2.6 3.1 1.5
v 2.6 3.1 1.4
v 2.6 3.1 1.2
v 2.6 3.1 1.1
v 2.6 3.1 -1.1
v 2.6 3.1 -1.2
v 2.6 3.1 -1.4
v 2.6 3.1 -1.5
v 2.6 3.2 1.4
v 2.6 3.2 1.3
v 2.6 3.2 1.1
v 2.6 3.2 1
v 2.6 3.2 -1
v 2.6 3.2 -1.1
v 2.6 3.2 -1.3
v 2.6 3.2 -1.4
v 2.6 3.3 1.8
v 2.6 3.3 1.7
v 2.6 3.3 1.6
v 2.6 3.3 1.3
v 2.6 3.3 1
v 2.6 3.3 -1
v 2.6 3.3 -1.3
v 2.6 3.3 -1.6
v 2.6 3.3 -1.7
v 2.6 3.3 -1.8
v 2.8 0 1.6
v 2.8 0 1.5
v 2.8 0 -1.5
v 2.8 0 -1.6
v 2.8 0.1 1.6
v 2.8 0.1 1.5
v 2.8 0.1 -1.5
v 2.8 0.1 -1.6
v 2.8 3.4 1.6
v 2.8 3.4 1.5
v 2.8 3.4 -1.5
v 2.8 3.4 -1.6
v -2.8 0 1.6
v -2.8 0 1.5
v -2.8 0 -1.5
v -2.8 0 -1.6
v -2.8 0.1 1.6
v -2.8 0.1 1.5
v -2.8 0.1 -1.5
v -2.8 0.1 -1.6
v -2.8 3.4 1.6
v -2.8 3.4 1.5
v -2.8 3.4 -1.5
v -2.8 3.4 -1.6
v -2.6 0 1.8
v -2.6 0 1.6
v -2.6 0 -1.6
v -2.6 0 -1.8
v -2.6 0.1 1.8
v -2.6 0.1 1.7
v -2.6 0.1 -1.7
v -2.6 0.1 -1.8
v -2.6 2.7 1.6
v -2.6 2.7 1.5
v -2.6 2.7 -1.5
v -2.6 2.7 -1.6
v -2.6 2.8 1.5
v -2.6 2.8 1.4
v -2.6 2.8 -1.4
v -2.6 2.8 -1.5
v -2.6 2.9 1.4
v -2.6 2.9 1.3
v -2.6 2.9 -1.3
v -2.6 2.9 -1.4
v -2.6 3 1.6
v -2.6 3 1.5
v -2.6 3 1.3
v -2.6 3 1.2
v -2.6 3 -1.2
v -2.6 3 -1.3
v -2.6 3 -1.5
v -2.6 3 -1.6
v -2.6 3.1 1.5
v -2.6 3.1 1.4
v -2.6 3.1 1.2
v -2.6 3.1 1.1
v -2.6 3.1 -1.1
v -2.6 3.1 -1.2
v -2.6 3.1 -1.4
v -2.6 3.1 -1.5
v -2.6 3.2 1.4
v -2.6 3.2 1.3
v -2.6 3.2 1.1
v -2.6 3.2 1
v -2.6 3.2 -1
v -2.6 3.2 -1.1
v -2.6 3.2 -1.3
v -2.6 3.2 -1.4
v -2.6 3.3 1.8
v -2.6 3.3 1.7
v -2.6 3.3 1.6
v -2.6 3.3 1.3
v -2.6 3.3 1
v -2.6 3.3 -1
v -2.6 3.3 -1.3
v -2.6 3.3 -1.6
v -2.6 3.3 -1.7
v -2.6 3.3 -1.8
v -2.5 0 2
v -2.5 0 1.8
v -2.5 0 -1.8
v -2.5 0 -2
v -2.5 0.1 1.9
v -2.5 0.1 1.8
v -2.5 0.1 -1.8
v -2.5 0.1 -1.9
v -2.5 3.3 2
v -2.5 3.3 1.9
v -2.5 3.3 1.8
v -2.5 3.3 -1.8
v -2.5 3.3 -1.9
v -2.5 3.3 -2
v -2.3 3.3 2
v -2.3 3.3 1.6
v -2.3 3.3 1.3
v -2.3 3.3 1
v -2.3 3.3 -1
v -2.3 3.3 -1.3
v -2.3 3.3 -1.6
v -2.3 3.3 -2
v -2.3 3.4 2
v -2.3 3.4 1.6
v -2.3 3.4 1.3
v -2.3 3.4 1
v -2.3 3.4 -1
v -2.3 3.4 -1.3
v -2.3 3.4 -1.6
v -2.3 3.4 -2
v -2.1 3.4 2
v -2.1 3.4 1.3
v -2.1 3.4 1
v -2.1 3.4 -1
v -2.1 3.4 -1.3
v -2.1 3.4 -2
v -2.1 3.5 2
v -2.1 3.5 1.7
v -2.1 3.5 -1.7
v -2.1 3.5 -2
v -2.1 3.6 1.7
v -2.1 3.6 1.3
v -2.1 3.6 1
v -2.1 3.6 -1
v -2.1 3.6 -1.3
v -2.1 3.6 -1.7
v -1.3 3.3 2
v -1.3 3.3 1.3
v -1.3 3.3 1
v -1.3 3.3 -1
v -1.3 3.3 -1.3
v -1.3 3.3 -2
v -1.3 3.4 2
v -1.3 3.4 1.3
v -1.3 3.4 1
v -1.3 3.4 -1
v -1.3 3.4 -1.3
v -1.3 3.4 -2
v -1.1 3.4 2
v -1.1 3.4 1.3
v -1.1 3.4 1
v -1.1 3.4 -1
v -1.1 3.4 -1.3
v -1.1 3.4 -2
v -1.1 3.5 2
v -1.1 3.5 1.7
v -1.1 3.5 -1.7
v -1.1 3.5 -2
v -1.1 3.6 1.7
v -1.1 3.6 1.3
v -1.1 3.6 1
v -1.1 3.6 -1
v -1.1 3.6 -1.3
v -1.1 3.6 -1.7
v -0.3 3.3 2
v -0.3 3.3 1.3
v -0.3 3.3 1
v -0.3 3.3 -1
v -0.3 3.3 -1.3
v -0.3 3.3 -2
v -0.3 3.4 2
v -0.3 3.4 1.3
v -0.3 3.4 1
v -0.3 3.4 -1
v -0.3 3.4 -1.3
v -0.3 3.4 -2
v -0.0999999 3.4 2
v -0.0999999 3.4 1.3
v -0.0999999 3.4 1
v -0.0999999 3.4 -1
v -0.0999999 3.4 -1.3
v -0.0999999 3.4 -2
v -0.0999999 3.5 2
v -0.0999999 3.5 1.7
v -0.0999999 3.5 -1.7
v -0.0999999 3.5 -2
v -0.0999999 3.6 1.7
v -0.0999999 3.6 1.3
v -0.0999999 3.6 1
v -0.0999999 3.6 -1
v -0.0999999 3.6 -1.3
v -0.0999999 3.6 -1.7
v 0.7 3.3 2
v 0.7 3.3 1.3
v 0.7 3.3 1
v 0.7 3.3 -1
v 0.7 3.3 -1.3
v 0.7 3.3 -2
v 0.7 3.4 2
v 0.7 3.4 1.3
v 0.7 3.4 1
v 0.7 3.4 -1
v 0.7 3.4 -1.3
v 0.7 3.4 -2
v 0.9 3.4 2
v 0.9 3.4 1.3
v 0.9 3.4 1
v 0.9 3.4 -1
v 0.9 3.4 -1.3
v 0.9 3.4 -2
v 0.9 3.5 2
v 0.9 3.5 1.7
v 0.9 3.5 -1.7
v 0.9 3.5 -2
v 0.9 3.6 1.7
v 0.9 3.6 1.3
v 0.9 3.6 1
v 0.9 3.6 -1
v 0.9 3.6 -1.3
v 0.9 3.6 -1.7
v 1.7 3.3 2
v 1.7 3.3 1.3
v 1.7 3.3 1
v 1.7 3.3 -1
v 1.7 3.3 -1.3
v 1.7 3.3 -2
v 1.7 3.4 2
v 1.7 3.4 1.3
v 1.7 3.4 1
v 1.7 3.4 -1
v 1.7 3.4 -1.3
v 1.7 3.4 -2
v 1.9 3.4 2
v 1.9 3.4 1.3
v 1.9 3.4 1
v 1.9 3.4 -1
v 1.9 3.4 -1.3
v 1.9 3.4 -2
v 1.9 3.5 2
v 1.9 3.5 1.7
v 1.9 3.5 -1.7
v 1.9 3.5 -2
v 1.9 3.6 1.7
v 1.9 3.6 1.3
v 1.9 3.6 1
v 1.9 3.6 -1
v 1.9 3.6 -1.3
v 1.9 3.6 -1.7
v 2.7 2.7 1.6
v 2.7 2.7 1.5
v 2.7 2.7 -1.5
v 2.7 2.7 -1.6
v 2.7 2.8 1.5
v 2.7 2.8 1.4
v 2.7 2.8 -1.4
v 2.7 2.8 -1.5
v 2.7 2.9 1.4
v 2.7 2.9 1.3
v 2.7 2.9 -1.3
v 2.7 2.9 -1.4
v 2.7 3 1.6
v 2.7 3 1.5
v 2.7 3 1.3
v 2.7 3 1.2
v 2.7 3 -1.2
v 2.7 3 -1.3
v 2.7 3 -1.5
v 2.7 3 -1.6
v 2.7 3.1 1.5
v 2.7 3.1 1.4
v 2.7 3.1 1.2
v 2.7 3.1 1.1
v 2.7 3.1 -1.1
v 2.7 3.1 -1.2
v 2.7 3.1 -1.4
v 2.7 3.1 -1.5
v 2.7 3.2 1.4
v 2.7 3.2 1.3
v 2.7 3.2 1.1
v 2.7 3.2 1
v 2.7 3.2 -1
v 2.7 3.2 -1.1
v 2.7 3.2 -1.3
v 2.7 3.2 -1.4
v 2.7 3.3 1.6
v 2.7 3.3 1.3
v 2.7 3.3 1
v 2.7 3.3 -1
v 2.7 3.3 -1.3
v 2.7 3.3 -1.6
v 2.7 3.4 1.6
v 2.7 3.4 1.3
v 2.7 3.4 1
v 2.7 3.4 -1
v 2.7 3.4 -1.3
v 2.7 3.4 -1.6
v 2.9 3.4 1.5
v 2.9 3.4 1.3
v 2.9 3.4 1
v 2.9 3.4 -1
v 2.9 3.4 -1.3
v 2.9 3.4 -1.5
v 2.9 3.5 1.5
v 2.9 3.5 1.3
v 2.9 3.5 1
v 2.9 3.5 -1
v 2.9 3.5 -1.3
v 2.9 3.5 -1.5
v 3 0 2
v 3 0 1.5
v 3 0 -1.5
v 3 0 -2
v 3 0.1 1.9
v 3 0.1 1.5
v 3 0.1 -1.5
v 3 0.1 -1.9
v 3 3.5 1.9
v 3 3.5 1.5
v 3 3.5 -1.5
v 3 3.5 -1.9
v 3 3.6 1.9
v 3 3.6 1.3
v 3 3.6 1
v 3 3.6 -1
v 3 3.6 -1.3
v 3 3.6 -1.9
v 3 3.9 1.9
v 3 3.9 1.3
v 3 3.9 1
v 3 3.9 -1
v 3 3.9 -1.3
v 3 3.9 -1.9
v 3 4 2
v 3 4 -2
v -3 0 2
v -3 4 2
v -2.9 0.1 2
v -2.9 3.3 2
v -2.9 3.4 2
v -2.9 3.7 2
v -2.9 3.9 2
v -2.8 3.5 2
v -2.8 3.7 2
v -2.7 3.5 2
v -2.7 3.6 2
v -2.7 3.7 2
v -2.7 3.8 2
v -2.6 0.1 2
v -2.6 3.3 2
v -2.6 3.4 2
v -2.6 3.5 2
v -2.6 3.6 2
v -2.6 3.8 2
v -2.5 0 2
v -2.5 3.3 2
v -2.5 3.7 2
v -2.5 3.8 2
v -2.4 3.4 2
v -2.4 3.5 2
v -2.4 3.8 2
v -2.4 3.9 2
v -2.3 3.3 2
v -2.3 3.4 2
v -2.3 3.7 2
v -2.3 3.8 2
v -2.2 3.5 2
v -2.2 3.7 2
v -2.1 3.4 2
v -2.1 3.5 2
v -2.1 3.6 2
v -2.1 3.7 2
v -2.1 3.8 2
v -2.1 3.9 2
v -1.9 3.4 2
v -1.9 3.5 2
v -1.9 3.6 2
v -1.9 3.7 2
v -1.9 3.9 2
v -1.8 3.5 2
v -1.8 3.7 2
v -1.7 3.3 2
v -1.7 3.4 2
v -1.7 3.5 2
v -1.7 3.6 2
v -1.7 3.7 2
v -1.7 3.8 2
v -1.6 3.4 2
v -1.6 3.5 2
v -1.6 3.6 2
v -1.6 3.8 2
v -1.5 3.7 2
v -1.5 3.8 2
v -1.4 3.4 2
v -1.4 3.5 2
v -1.4 3.8 2
v -1.4 3.9 2
v -1.3 3.3 2
v -1.3 3.4 2
v -1.3 3.7 2
v -1.3 3.8 2
v -1.2 3.5 2
v -1.2 3.7 2
v -1.1 3.4 2
v -1.1 3.5 2
v -1.1 3.6 2
v -1.1 3.7 2
v -1.1 3.8 2
v -1.1 3.9 2
v -0.9 3.4 2
v -0.9 3.5 2
v -0.9 3.6 2
v -0.9 3.7 2
v -0.9 3.8 2
v -0.9 3.9 2
v -0.8 3.5 2
v -0.8 3.7 2
v -0.7 3.3 2
v -0.7 3.4 2
v -0.7 3.5 2
v -0.7 3.6 2
v -0.7 3.7 2
v -0.7 3.8 2
v -0.6 3.4 2
v -0.6 3.5 2
v -0.6 3.6 2
v -0.6 3.8 2
v -0.5 3.7 2
v -0.5 3.8 2
v -0.4 3.4 2
v -0.4 3.5 2
v -0.4 3.8 2
v -0.4 3.9 2
v -0.3 3.3 2
v -0.3 3.4 2
v -0.3 3.7 2
v -0.3 3.8 2
v -0.2 3.5 2
v -0.2 3.7 2
v -0.0999999 3.4 2
v -0.0999999 3.5 2
v -0.0999999 3.6 2
v -0.0999999 3.7 2
v -0.0999999 3.8 2
v -0.0999999 3.9 2
v 0.1 3.4 2
v 0.1 3.5 2
v 0.1 3.6 2
v 0.1 3.7 2
v 0.1 3.9 2
v 0.2 3.5 2
v 0.2 3.7 2
v 0.3 3.3 2
v 0.3 3.4 2
v 0.3 3.5 2
v 0.3 3.6 2
v 0.3 3.7 2
v 0.3 3.8 2
v 0.4 3.4 2
v 0.4 3.5 2
v 0.4 3.6 2
v 0.4 3.8 2
v 0.5 3.7 2
v 0.5 3.8 2
v 0.6 3.4 2
v 0.6 3.5 2
v 0.6 3.8 2
v 0.6 3.9 2
v 0.7 3.3 2
v 0.7 3.4 2
v 0.7 3.7 2
v 0.7 3.8 2
v 0.8 3.5 2
v 0.8 3.7 2
v 0.9 3.4 2
v 0.9 3.5 2
v 0.9 3.6 2
v 0.9 3.7 2
v 0.9 3.8 2
v 0.9 3.9 2
v 1.1 3.4 2
v 1.1 3.5 2
v 1.1 3.6 2
v 1.1 3.7 2
v 1.1 3.8 2
v 1.1 3.9 2
v 1.2 3.5 2
v 1.2 3.7 2
v 1.3 3.3 2
v 1.3 3.4 2
v 1.3 3.5 2
v 1.3 3.6 2
v 1.3 3.7 2
v 1.3 3.8 2
v 1.4 3.4 2
v 1.4 3.5 2
v 1.4 3.6 2
v 1.4 3.8 2
v 1.5 3.7 2
v 1.5 3.8 2
v 1.6 3.4 2
v 1.6 3.5 2
v 1.6 3.8 2
v 1.6 3.9 2
v 1.7 3.3 2
v 1.7 3.4 2
v 1.7 3.7 2
v 1.7 3.8 2
v 1.8 3.5 2
v 1.8 3.7 2
v 1.9 3.4 2
v 1.9 3.5 2
v 1.9 3.6 2
v 1.9 3.7 2
v 1.9 3.8 2
v 1.9 3.9 2
v 2.1 3.4 2
v 2.1 3.5 2
v 2.1 3.6 2
v 2.1 3.7 2
v 2.1 3.9 2
v 2.2 3.5 2
v 2.2 3.7 2
v 2.3 3.3 2
v 2.3 3.4 2
v 2.3 3.5 2
v 2.3 3.6 2
v 2.3 3.7 2
v 2.3 3.8 2
v 2.4 3.4 2
v 2.4 3.5 2
v 2.4 3.6 2
v 2.4 3.8 2
v 2.5 0 2
v 2.5 3.3 2
v 2.5 3.7 2
v 2.5 3.8 2
v 2.6 0.1 2
v 2.6 3.3 2
v 2.6 3.4 2
v 2.6 3.5 2
v 2.6 3.8 2
v 2.6 3.9 2
v 2.7 3.7 2
v 2.7 3.8 2
v 2.8 3.5 2
v 2.8 3.7 2
v 2.9 0.1 2
v 2.9 3.3 2
v 2.9 3.4 2
v 2.9 3.7 2
v 2.9 3.8 2
v 2.9 3.9 2
v 3 0 2
v 3 4 2
v -2.7 3 1.5
v -2.7 3.1 1.5
v -2.6 3 1.5
v -2.6 3.1 1.5
v 2.6 3 1.5
v 2.6 3.1 1.5
v 2.7 3 1.5
v 2.7 3.1 1.5
v -2.7 3.1 1.4
v -2.7 3.2 1.4
v -2.6 3.1 1.4
v -2.6 3.2 1.4
v 2.6 3.1 1.4
v 2.6 3.2 1.4
v 2.7 3.1 1.4
v 2.7 3.2 1.4
v -2.7 3.2 1.3
v -2.7 3.3 1.3
v -2.6 3.2 1.3
v -2.6 3.3 1.3
v 2.6 3.2 1.3
v 2.6 3.3 1.3
v 2.7 3.2 1.3
v 2.7 3.3 1.3
v -2.7 3.2 -1
v -2.7 3.3 -1
v -2.6 3.2 -1
v -2.6 3.3 -1
v 2.6 3.2 -1
v 2.6 3.3 -1
v 2.7 3.2 -1
v 2.7 3.3 -1
v -2.7 3.1 -1.1
v -2.7 3.2 -1.1
v -2.6 3.1 -1.1
v -2.6 3.2 -1.1
v 2.6 3.1 -1.1
v 2.6 3.2 -1.1
v 2.7 3.1 -1.1
v 2.7 3.2 -1.1
v -2.7 3 -1.2
v -2.7 3.1 -1.2
v -2.6 3 -1.2
v -2.6 3.1 -1.2
v 2.6 3 -1.2
v 2.6 3.1 -1.2
v 2.7 3 -1.2
v 2.7 3.1 -1.2
v -2.7 2.9 -1.3
v -2.7 3 -1.3
v -2.6 2.9 -1.3
v -2.6 3 -1.3
v 2.6 2.9 -1.3
v 2.6 3 -1.3
v 2.7 2.9 -1.3
v 2.7 3 -1.3
v -2.7 2.8 -1.4
v -2.7 2.9 -1.4
v -2.6 2.8 -1.4
v -2.6 2.9 -1.4
v 2.6 2.8 -1.4
v 2.6 2.9 -1.4
v 2.7 2.8 -1.4
v 2.7 2.9 -1.4
v -3 0 -1.5
v -3 0.1 -1.5
v -3 3.5 -1.5
v -2.9 3.4 -1.5
v -2.9 3.5 -1.5
v -2.8 0 -1.5
v -2.8 0.1 -1.5
v -2.8 3.4 -1.5
v -2.7 2.7 -1.5
v -2.7 2.8 -1.5
v -2.6 2.7 -1.5
v -2.6 2.8 -1.5
v 2.6 2.7 -1.5
v 2.6 2.8 -1.5
v 2.7 2.7 -1.5
v 2.7 2.8 -1.5
v 2.8 0 -1.5
v 2.8 0.1 -1.5
v 2.8 3.4 -1.5
v 2.9 3.4 -1.5
v 2.9 3.5 -1.5
v 3 0 -1.5
v 3 0.1 -1.5
v 3 3.5 -1.5
v -2.8 0 -1.6
v -2.8 0.1 -1.6
v -2.8 3.4 -1.6
v -2.7 0.1 -1.6
v -2.7 2.7 -1.6
v -2.7 3 -1.6
v -2.7 3.3 -1.6
v -2.7 3.4 -1.6
v -2.6 0 -1.6
v -2.6 2.7 -1.6
v -2.6 3 -1.6
v -2.6 3.3 -1.6
v 2.6 0 -1.6
v 2.6 2.7 -1.6
v 2.6 3 -1.6
v 2.6 3.3 -1.6
v 2.7 0.1 -1.6
v 2.7 2.7 -1.6
v 2.7 3 -1.6
v 2.7 3.3 -1.6
v 2.7 3.4 -1.6
v 2.8 0 -1.6
v 2.8 0.1 -1.6
v 2.8 3.4 -1.6
v -2.1 3.5 -1.7
v -2.1 3.6 -1.7
v -1.9 3.5 -1.7
v -1.9 3.6 -1.7
v -1.1 3.5 -1.7
v -1.1 3.6 -1.7
v -0.9 3.5 -1.7
v -0.9 3.6 -1.7
v -0.0999999 3.5 -1.7
v -0.0999999 3.6 -1.7
v 0.1 3.5 -1.7
v 0.1 3.6 -1.7
v 0.9 3.5 -1.7
v 0.9 3.6 -1.7
v 1.1 3.5 -1.7
v 1.1 3.6 -1.7
v 1.9 3.5 -1.7
v 1.9 3.6 -1.7
v 2.1 3.5 -1.7
v 2.1 3.6 -1.7
v -2.6 0 -1.8
v -2.6 0.1 -1.8
v -2.6 3.3 -1.8
v -2.5 0 -1.8
v -2.5 0.1 -1.8
v -2.5 3.3 -1.8
v 2.5 0 -1.8
v 2.5 0.1 -1.8
v 2.5 3.3 -1.8
v 2.6 0 -1.8
v 2.6 0.1 -1.8
v 2.6 3.3 -1.8
v -2.6 0 1.8
v -2.6 0.1 1.8
v -2.6 3.3 1.8
v -2.5 0 1.8
v -2.5 0.1 1.8
v -2.5 3.3 1.8
v 2.5 0 1.8
v 2.5 0.1 1.8
v 2.5 3.3 1.8
v 2.6 0 1.8
v 2.6 0.1 1.8
v 2.6 3.3 1.8
v -2.1 3.5 1.7
v -2.1 3.6 1.7
v -1.9 3.5 1.7
v -1.9 3.6 1.7
v -1.1 3.5 1.7
v -1.1 3.6 1.7
v -0.9 3.5 1.7
v -0.9 3.6 1.7
v -0.0999999 3.5 1.7
v -0.0999999 3.6 1.7
v 0.1 3.5 1.7
v 0.1 3.6 1.7
v 0.9 3.5 1.7
v 0.9 3.6 1.7
v 1.1 3.5 1.7
v 1.1 3.6 1.7
v 1.9 3.5 1.7
v 1.9 3.6 1.7
v 2.1 3.5 1.7
v 2.1 3.6 1.7
v -2.8 0 1.6
v -2.8 0.1 1.6
v -2.8 3.4 1.6
v -2.7 0.1 1.6
v -2.7 2.7 1.6
v -2.7 3 1.6
v -2.7 3.3 1.6
v -2.7 3.4 1.6
v -2.6 0 1.6
v -2.6 2.7 1.6
v -2.6 3 1.6
v -2.6 3.3 1.6
v 2.6 0 1.6
v 2.6 2.7 1.6
v 2.6 3 1.6
v 2.6 3.3 1.6
v 2.7 0.1 1.6
v 2.7 2.7 1.6
v 2.7 3 1.6
v 2.7 3.3 1.6
v 2.7 3.4 1.6
v 2.8 0 1.6
v 2.8 0.1 1.6
v 2.8 3.4 1.6
v -3 0 1.5
v -3 0.1 1.5
v -3 3.5 1.5
v -2.9 3.4 1.5
v -2.9 3.5 1.5
v -2.8 0 1.5
v -2.8 0.1 1.5
v -2.8 3.4 1.5
v -2.7 2.7 1.5
v -2.7 2.8 1.5
v -2.6 2.7 1.5
v -2.6 2.8 1.5
v 2.6 2.7 1.5
v 2.6 2.8 1.5
v 2.7 2.7 1.5
v 2.7 2.8 1.5
v 2.8 0 1.5
v 2.8 0.1 1.5
v 2.8 3.4 1.5
v 2.9 3.4 1.5
v 2.9 3.5 1.5
v 3 0 1.5
v 3 0.1 1.5
v 3 3.5 1.5
v -2.7 2.8 1.4
v -2.7 2.9 1.4
v -2.6 2.8 1.4
v -2.6 2.9 1.4
v 2.6 2.8 1.4
v 2.6 2.9 1.4
v 2.7 2.8 1.4
v 2.7 2.9 1.4
v -2.7 2.9 1.3
v -2.7 3 1.3
v -2.6 2.9 1.3
v -2.6 3 1.3
v 2.6 2.9 1.3
v 2.6 3 1.3
v 2.7 2.9 1.3
v 2.7 3 1.3
v -2.7 3 1.2
v -2.7 3.1 1.2
v -2.6 3 1.2
v -2.6 3.1 1.2
v 2.6 3 1.2
v 2.6 3.1 1.2
v 2.7 3 1.2
v 2.7 3.1 1.2
v -2.7 3.1 1.1
v -2.7 3.2 1.1
v -2.6 3.1 1.1
v -2.6 3.2 1.1
v 2.6 3.1 1.1
v 2.6 3.2 1.1
v 2.7 3.1 1.1
v 2.7 3.2 1.1
v -2.7 3.2 1
v -2.7 3.3 1
v -2.6 3.2 1
v -2.6 3.3 1
v 2.6 3.2 1
v 2.6 3.3 1
v 2.7 3.2 1
v 2.7 3.3 1
v -2.7 3.2 -1.3
v -2.7 3.3 -1.3
v -2.6 3.2 -1.3
v -2.6 3.3 -1.3
v 2.6 3.2 -1.3
v 2.6 3.3 -1.3
v 2.7 3.2 -1.3
v 2.7 3.3 -1.3
v -2.7 3.1 -1.4
v -2.7 3.2 -1.4
v -2.6 3.1 -1.4
v -2.6 3.2 -1.4
v 2.6 3.1 -1.4
v 2.6 3.2 -1.4
v 2.7 3.1 -1.4
v 2.7 3.2 -1.4
v -2.7 3 -1.5
v -2.7 3.1 -1.5
v -2.6 3 -1.5
v -2.6 3.1 -1.5
v 2.6 3 -1.5
v 2.6 3.1 -1.5
v 2.7 3 -1.5
v 2.7 3.1 -1.5
v -3 0 -2
v -3 4 -2
v -2.9 0.1 -2
v -2.9 3.3 -2
v -2.9 3.4 -2
v -2.9 3.7 -2
v -2.9 3.9 -2
v -2.8 3.5 -2
v -2.8 3.7 -2
v -2.7 3.5 -2
v -2.7 3.6 -2
v -2.7 3.7 -2
v -2.7 3.8 -2
v -2.6 0.1 -2
v -2.6 3.3 -2
v -2.6 3.4 -2
v -2.6 3.5 -2
v -2.6 3.6 -2
v -2.6 3.8 -2
v -2.5 0 -2
v -2.5 3.3 -2
v -2.5 3.7 -2
v -2.5 3.8 -2
v -2.4 3.4 -2
v -2.4 3.5 -2
v -2.4 3.6 -2
v -2.4 3.7 -2
v -2.3 3.3 -2
v -2.3 3.4 -2
v -2.3 3.7 -2
v -2.3 3.8 -2
v -2.2 3.5 -2
v -2.2 3.6 -2
v -2.2 3.7 -2
v -2.1 3.4 -2
v -2.1 3.5 -2
v -2.1 3.6 -2
v -2.1 3.7 -2
v -2.1 3.9 -2
v -1.9 3.4 -2
v -1.9 3.5 -2
v -1.9 3.6 -2
v -1.9 3.7 -2
v -1.9 3.9 -2
v -1.8 3.5 -2
v -1.8 3.7 -2
v -1.7 3.3 -2
v -1.7 3.4 -2
v -1.7 3.5 -2
v -1.7 3.6 -2
v -1.7 3.7 -2
v -1.7 3.8 -2
v -1.6 3.4 -2
v -1.6 3.5 -2
v -1.6 3.6 -2
v -1.6 3.8 -2
v -1.5 3.7 -2
v -1.5 3.8 -2
v -1.4 3.4 -2
v -1.4 3.5 -2
v -1.4 3.6 -2
v -1.4 3.7 -2
v -1.3 3.3 -2
v -1.3 3.4 -2
v -1.3 3.7 -2
v -1.3 3.8 -2
v -1.2 3.5 -2
v -1.2 3.6 -2
v -1.2 3.7 -2
v -1.1 3.4 -2
v -1.1 3.5 -2
v -1.1 3.6 -2
v -1.1 3.7 -2
v -1.1 3.8 -2
v -1.1 3.9 -2
v -0.9 3.4 -2
v -0.9 3.5 -2
v -0.9 3.6 -2
v -0.9 3.7 -2
v -0.9 3.8 -2
v -0.9 3.9 -2
v -0.8 3.5 -2
v -0.8 3.7 -2
v -0.7 3.3 -2
v -0.7 3.4 -2
v -0.7 3.5 -2
v -0.7 3.6 -2
v -0.7 3.7 -2
v -0.7 3.8 -2
v -0.6 3.4 -2
v -0.6 3.5 -2
v -0.6 3.6 -2
v -0.6 3.8 -2
v -0.5 3.7 -2
v -0.5 3.8 -2
v -0.4 3.4 -2
v -0.4 3.5 -2
v -0.4 3.6 -2
v -0.4 3.7 -2
v -0.3 3.3 -2
v -0.3 3.4 -2
v -0.3 3.7 -2
v -0.3 3.8 -2
v -0.2 3.5 -2
v -0.2 3.6 -2
v -0.2 3.7 -2
v -0.0999999 3.4 -2
v -0.0999999 3.5 -2
v -0.0999999 3.6 -2
v -0.0999999 3.7 -2
v -0.0999999 3.9 -2
v 0.1 3.4 -2
v 0.1 3.5 -2
v 0.1 3.6 -2
v 0.1 3.7 -2
v 0.1 3.9 -2
v 0.2 3.5 -2
v 0.2 3.7 -2
v 0.3 3.3 -2
v 0.3 3.4 -2
v 0.3 3.5 -2
v 0.3 3.6 -2
v 0.3 3.7 -2
v 0.3 3.8 -2
v 0.4 3.4 -2
v 0.4 3.5 -2
v 0.4 3.6 -2
v 0.4 3.8 -2
v 0.5 3.7 -2
v 0.5 3.8 -2
v 0.6 3.4 -2
v 0.6 3.5 -2
v 0.6 3.6 -2
v 0.6 3.7 -2
v 0.7 3.3 -2
v 0.7 3.4 -2
v 0.7 3.7 -2
v 0.7 3.8 -2
v 0.8 3.5 -2
v 0.8 3.6 -2
v 0.8 3.7 -2
v 0.9 3.4 -2
v 0.9 3.5 -2
v 0.9 3.6 -2
v 0.9 3.7 -2
v 0.9 3.8 -2
v 0.9 3.9 -2
v 1.1 3.4 -2
v 1.1 3.5 -2
v 1.1 3.6 -2
v 1.1 3.7 -2
v 1.1 3.8 -2
v 1.1 3.9 -2
v 1.2 3.5 -2
v 1.2 3.7 -2
v 1.3 3.3 -2
v 1.3 3.4 -2
v 1.3 3.5 -2
v 1.3 3.6 -2
v 1.3 3.7 -2
v 1.3 3.8 -2
v 1.4 3.4 -2
v 1.4 3.5 -2
v 1.4 3.6 -2
v 1.4 3.8 -2
v 1.5 3.7 -2
v 1.5 3.8 -2
v 1.6 3.4 -2
v 1.6 3.5 -2
v 1.6 3.6 -2
v 1.6 3.7 -2
v 1.7 3.3 -2
v 1.7 3.4 -2
v 1.7 3.7 -2
v 1.7 3.8 -2
v 1.8 3.5 -2
v 1.8 3.6 -2
v 1.8 3.7 -2
v 1.9 3.4 -2
v 1.9 3.5 -2
v 1.9 3.6 -2
v 1.9 3.7 -2
v 1.9 3.9 -2
v 2.1 3.4 -2
v 2.1 3.5 -2
v 2.1 3.6 -2
v 2.1 3.7 -2
v 2.1 3.9 -2
v 2.2 3.5 -2
v 2.2 3.7 -2
v 2.3 3.3 -2
v 2.3 3.4 -2
v 2.3 3.5 -2
v 2.3 3.6 -2
v 2.3 3.7 -2
v 2.3 3.8 -2
v 2.4 3.4 -2
v 2.4 3.5 -2
v 2.4 3.6 -2
v 2.4 3.8 -2
v 2.5 0 -2
v 2.5 3.3 -2
v 2.5 3.7 -2
v 2.5 3.8 -2
v 2.6 0.1 -2
v 2.6 3.3 -2
v 2.6 3.4 -2
v 2.6 3.5 -2
v 2.6 3.6 -2
v 2.6 3.7 -2
v 2.7 3.7 -2
v 2.7 3.8 -2
v 2.8 3.5 -2
v 2.8 3.6 -2
v 2.8 3.7 -2
v 2.9 0.1 -2
v 2.9 3.3 -2
v 2.9 3.4 -2
v 2.9 3.7 -2
v 2.9 3.9 -2
v 3 0 -2
v 3 4 -2
v -3 0 2
v -2.5 0 2
v 2.5 0 2
v 3 0 2
v -2.9 0 1.9
v -2.7 0 1.9
v -2.6 0 1.9
v 2.6 0 1.9
v 2.7 0 1.9
v 2.9 0 1.9
v -2.7 0 1.8
v -2.6 0 1.8
v -2.5 0 1.8
v 2.5 0 1.8
v 2.6 0 1.8
v 2.7 0 1.8
v -2.9 0 1.7
v -2.8 0 1.7
v -2.7 0 1.7
v 2.7 0 1.7
v 2.8 0 1.7
v 2.9 0 1.7
v -2.9 0 1.6
v -2.8 0 1.6
v -2.6 0 1.6
v 2.6 0 1.6
v 2.8 0 1.6
v 2.9 0 1.6
v -3 0 1.5
v -2.8 0 1.5
v 2.8 0 1.5
v 3 0 1.5
v -3 0 -1.5
v -2.8 0 -1.5
v 2.8 0 -1.5
v 3 0 -1.5
v -2.9 0 -1.6
v -2.8 0 -1.6
v -2.6 0 -1.6
v 2.6 0 -1.6
v 2.8 0 -1.6
v 2.9 0 -1.6
v -2.9 0 -1.7
v -2.8 0 -1.7
v -2.7 0 -1.7
v 2.7 0 -1.7
v 2.8 0 -1.7
v 2.9 0 -1.7
v -2.7 0 -1.8
v -2.6 0 -1.8
v -2.5 0 -1.8
v 2.5 0 -1.8
v 2.6 0 -1.8
v 2.7 0 -1.8
v -2.9 0 -1.9
v -2.7 0 -1.9
v -2.6 0 -1.9
v 2.6 0 -1.9
v 2.7 0 -1.9
v 2.9 0 -1.9
v -3 0 -2
v -2.5 0 -2
v 2.5 0 -2
v 3 0 -2
v -2.7 2.7 1.6
v -2.6 2.7 1.6
v 2.6 2.7 1.6
v 2.7 2.7 1.6
v -2.7 2.7 1.5
v -2.6 2.7 1.5
v 2.6 2.7 1.5
v 2.7 2.7 1.5
v -2.7 2.7 -1.5
v -2.6 2.7 -1.5
v 2.6 2.7 -1.5
v 2.7 2.7 -1.5
v -2.7 2.7 -1.6
v -2.6 2.7 -1.6
v 2.6 2.7 -1.6
v 2.7 2.7 -1.6
v -2.7 2.8 1.5
v -2.6 2.8 1.5
v 2.6 2.8 1.5
v 2.7 2.8 1.5
v -2.7 2.8 1.4
v -2.6 2.8 1.4
v 2.6 2.8 1.4
v 2.7 2.8 1.4
v -2.7 2.8 -1.4
v -2.6 2.8 -1.4
v 2.6 2.8 -1.4
v 2.7 2.8 -1.4
v -2.7 2.8 -1.5
v -2.6 2.8 -1.5
v 2.6 2.8 -1.5
v 2.7 2.8 -1.5
v -2.7 2.9 1.4
v -2.6 2.9 1.4
v 2.6 2.9 1.4
v 2.7 2.9 1.4
v -2.7 2.9 1.3
v -2.6 2.9 1.3
v 2.6 2.9 1.3
v 2.7 2.9 1.3
v -2.7 2.9 -1.3
v -2.6 2.9 -1.3
v 2.6 2.9 -1.3
v 2.7 2.9 -1.3
v -2.7 2.9 -1.4
v -2.6 2.9 -1.4
v 2.6 2.9 -1.4
v 2.7 2.9 -1.4
v -2.7 3 1.3
v -2.6 3 1.3
v 2.6 3 1.3
v 2.7 3 1.3
v -2.7 3 1.2
v -2.6 3 1.2
v 2.6 3 1.2
v 2.7 3 1.2
v -2.7 3 -1.2
v -2.6 3 -1.2
v 2.6 3 -1.2
v 2.7 3 -1.2
v -2.7 3 -1.3
v -2.6 3 -1.3
v 2.6 3 -1.3
v 2.7 3 -1.3
v -2.7 3.1 1.2
v -2.6 3.1 1.2
v 2.6 3.1 1.2
v 2.7 3.1 1.2
v -2.7 3.1 1.1
v -2.6 3.1 1.1
v 2.6 3.1 1.1
v 2.7 3.1 1.1
v -2.7 3.1 -1.1
v -2.6 3.1 -1.1
v 2.6 3.1 -1.1
v 2.7 3.1 -1.1
v -2.7 3.1 -1.2
v -2.6 3.1 -1.2
v 2.6 3.1 -1.2
v 2.7 3.1 -1.2
v -2.7 3.2 1.1
v -2.6 3.2 1.1
v 2.6 3.2 1.1
v 2.7 3.2 1.1
v -2.7 3.2 1
v -2.6 3.2 1
v 2.6 3.2 1
v 2.7 3.2 1
v -2.7 3.2 -1
v -2.6 3.2 -1
v 2.6 3.2 -1
v 2.7 3.2 -1
v -2.7 3.2 -1.1
v -2.6 3.2 -1.1
v 2.6 3.2 -1.1
v 2.7 3.2 -1.1
v -2.5 3.3 2
v -2.3 3.3 2
v -1.7 3.3 2
v -1.3 3.3 2
v -0.7 3.3 2
v -0.3 3.3 2
v 0.3 3.3 2
v 0.7 3.3 2
v 1.3 3.3 2
v 1.7 3.3 2
v 2.3 3.3 2
v 2.5 3.3 2
v -2.5 3.3 1.9
v -2.4 3.3 1.9
v 2.4 3.3 1.9
v 2.5 3.3 1.9
v -2.6 3.3 1.8
v -2.5 3.3 1.8
v 2.5 3.3 1.8
v 2.6 3.3 1.8
v -2.6 3.3 1.7
v -2.4 3.3 1.7
v 2.4 3.3 1.7
v 2.6 3.3 1.7
v -2.7 3.3 1.6
v -2.6 3.3 1.6
v -2.3 3.3 1.6
v 2.3 3.3 1.6
v 2.6 3.3 1.6
v 2.7 3.3 1.6
v -2.7 3.3 1.3
v -2.6 3.3 1.3
v -2.3 3.3 1.3
v -1.7 3.3 1.3
v -1.3 3.3 1.3
v -0.7 3.3 1.3
v -0.3 3.3 1.3
v 0.3 3.3 1.3
v 0.7 3.3 1.3
v 1.3 3.3 1.3
v 1.7 3.3 1.3
v 2.3 3.3 1.3
v 2.6 3.3 1.3
v 2.7 3.3 1.3
v -2.7 3.3 1
v -2.6 3.3 1
v -2.3 3.3 1
v -1.7 3.3 1
v -1.3 3.3 1
v -0.7 3.3 1
v -0.3 3.3 1
v 0.3 3.3 1
v 0.7 3.3 1
v 1.3 3.3 1
v 1.7 3.3 1
v 2.3 3.3 1
v 2.6 3.3 1
v 2.7 3.3 1
v -2.7 3.3 -1
v -2.6 3.3 -1
v -2.3 3.3 -1
v -1.7 3.3 -1
v -1.3 3.3 -1
v -0.7 3.3 -1
v -0.3 3.3 -1
v 0.3 3.3 -1
v 0.7 3.3 -1
v 1.3 3.3 -1
v 1.7 3.3 -1
v 2.3 3.3 -1
v 2.6 3.3 -1
v 2.7 3.3 -1
v -2.7 3.3 -1.3
v -2.6 3.3 -1.3
v -2.3 3.3 -1.3
v -1.7 3.3 -1.3
v -1.3 3.3 -1.3
v -0.7 3.3 -1.3
v -0.3 3.3 -1.3
v 0.3 3.3 -1.3
v 0.7 3.3 -1.3
v 1.3 3.3 -1.3
v 1.7 3.3 -1.3
v 2.3 3.3 -1.3
v 2.6 3.3 -1.3
v 2.7 3.3 -1.3
v -2.7 3.3 -1.6
v -2.6 3.3 -1.6
v -2.3 3.3 -1.6
v 2.3 3.3 -1.6
v 2.6 3.3 -1.6
v 2.7 3.3 -1.6
v -2.6 3.3 -1.7
v -2.4 3.3 -1.7
v 2.4 3.3 -1.7
v 2.6 3.3 -1.7
v -2.6 3.3 -1.8
v -2.5 3.3 -1.8
v 2.5 3.3 -1.8
v 2.6 3.3 -1.8
v -2.5 3.3 -1.9
v -2.4 3.3 -1.9
v 2.4 3.3 -1.9
v 2.5 3.3 -1.9
v -2.5 3.3 -2
v -2.3 3.3 -2
v -1.7 3.3 -2
v -1.3 3.3 -2
v -0.7 3.3 -2
v -0.3 3.3 -2
v 0.3 3.3 -2
v 0.7 3.3 -2
v 1.3 3.3 -2
v 1.7 3.3 -2
v 2.3 3.3 -2
v 2.5 3.3 -2
v -2.3 3.4 2
v -2.1 3.4 2
v -1.9 3.4 2
v -1.7 3.4 2
v -1.3 3.4 2
v -1.1 3.4 2
v -0.9 3.4 2
v -0.7 3.4 2
v -0.3 3.4 2
v -0.0999999 3.4 2
v 0.1 3.4 2
v 0.3 3.4 2
v 0.7 3.4 2
v 0.9 3.4 2
v 1.1 3.4 2
v 1.3 3.4 2
v 1.7 3.4 2
v 1.9 3.4 2
v 2.1 3.4 2
v 2.3 3.4 2
v -2.8 3.4 1.6
v -2.7 3.4 1.6
v -2.3 3.4 1.6
v 2.3 3.4 1.6
v 2.7 3.4 1.6
v 2.8 3.4 1.6
v -2.9 3.4 1.5
v -2.8 3.4 1.5
v 2.8 3.4 1.5
v 2.9 3.4 1.5
v -2.9 3.4 1.3
v -2.7 3.4 1.3
v -2.3 3.4 1.3
v -2.1 3.4 1.3
v -1.9 3.4 1.3
v -1.7 3.4 1.3
v -1.3 3.4 1.3
v -1.1 3.4 1.3
v -0.9 3.4 1.3
v -0.7 3.4 1.3
v -0.3 3.4 1.3
v -0.0999999 3.4 1.3
v 0.1 3.4 1.3
v 0.3 3.4 1.3
v 0.7 3.4 1.3
v 0.9 3.4 1.3
v 1.1 3.4 1.3
v 1.3 3.4 1.3
v 1.7 3.4 1.3
v 1.9 3.4 1.3
v 2.1 3.4 1.3
v 2.3 3.4 1.3
v 2.7 3.4 1.3
v 2.9 3.4 1.3
v -2.9 3.4 1
v -2.7 3.4 1
v -2.3 3.4 1
v -2.1 3.4 1
v -1.9 3.4 1
v -1.7 3.4 1
v -1.3 3.4 1
v -1.1 3.4 1
v -0.9 3.4 1
v -0.7 3.4 1
v -0.3 3.4 1
v -0.0999999 3.4 1
v 0.1 3.4 1
v 0.3 3.4 1
v 0.7 3.4 1
v 0.9 3.4 1
v 1.1 3.4 1
v 1.3 3.4 1
v 1.7 3.4 1
v 1.9 3.4 1
v 2.1 3.4 1
v 2.3 3.4 1
v 2.7 3.4 1
v 2.9 3.4 1
v -2.9 3.4 -1
v -2.7 3.4 -1
v -2.3 3.4 -1
v -2.1 3.4 -1
v -1.9 3.4 -1
v -1.7 3.4 -1
v -1.3 3.4 -1
v -1.1 3.4 -1
v -0.9 3.4 -1
v -0.7 3.4 -1
v -0.3 3.4 -1
v -0.0999999 3.4 -1
v 0.1 3.4 -1
v 0.3 3.4 -1
v 0.7 3.4 -1
v 0.9 3.4 -1
v 1.1 3.4 -1
v 1.3 3.4 -1
v 1.7 3.4 -1
v 1.9 3.4 -1
v 2.1 3.4 -1
v 2.3 3.4 -1
v 2.7 3.4 -1
v 2.9 3.4 -1
v -2.9 3.4 -1.3
v -2.7 3.4 -1.3
v -2.3 3.4 -1.3
v -2.1 3.4 -1.3
v -1.9 3.4 -1.3
v -1.7 3.4 -1.3
v -1.3 3.4 -1.3
v -1.1 3.4 -1.3
v -0.9 3.4 -1.3
v -0.7 3.4 -1.3
v -0.3 3.4 -1.3
v -0.0999999 3.4 -1.3
v 0.1 3.4 -1.3
v 0.3 3.4 -1.3
v 0.7 3.4 -1.3
v 0.9 3.4 -1.3
v 1.1 3.4 -1.3
v 1.3 3.4 -1.3
v 1.7 3.4 -1.3
v 1.9 3.4 -1.3
v 2.1 3.4 -1.3
v 2.3 3.4 -1.3
v 2.7 3.4 -1.3
v 2.9 3.4 -1.3
v -2.9 3.4 -1.5
v -2.8 3.4 -1.5
v 2.8 3.4 -1.5
v 2.9 3.4 -1.5
v -2.8 3.4 -1.6
v -2.7 3.4 -1.6
v -2.3 3.4 -1.6
v 2.3 3.4 -1.6
v 2.7 3.4 -1.6
v 2.8 3.4 -1.6
v -2.3 3.4 -2
v -2.1 3.4 -2
v -1.9 3.4 -2
v -1.7 3.4 -2
v -1.3 3.4 -2
v -1.1 3.4 -2
v -0.9 3.4 -2
v -0.7 3.4 -2
v -0.3 3.4 -2
v -0.0999999 3.4 -2
v 0.1 3.4 -2
v 0.3 3.4 -2
v 0.7 3.4 -2
v 0.9 3.4 -2
v 1.1 3.4 -2
v 1.3 3.4 -2
v 1.7 3.4 -2
v 1.9 3.4 -2
v 2.1 3.4 -2
v 2.3 3.4 -2
v -2.1 3.5 2
v -1.9 3.5 2
v -1.1 3.5 2
v -0.9 3.5 2
v -0.0999999 3.5 2
v 0.1 3.5 2
v 0.9 3.5 2
v 1.1 3.5 2
v 1.9 3.5 2
v 2.1 3.5 2
v -2.1 3.5 1.7
v -1.9 3.5 1.7
v -1.1 3.5 1.7
v -0.9 3.5 1.7
v -0.0999999 3.5 1.7
v 0.1 3.5 1.7
v 0.9 3.5 1.7
v 1.1 3.5 1.7
v 1.9 3.5 1.7
v 2.1 3.5 1.7
v -3 3.5 1.5
v -2.9 3.5 1.5
v 2.9 3.5 1.5
v 3 3.5 1.5
v -2.9 3.5 1.3
v 2.9 3.5 1.3
v -2.9 3.5 1
v 2.9 3.5 1
v -2.9 3.5 -1
v 2.9 3.5 -1
v -2.9 3.5 -1.3
v 2.9 3.5 -1.3
v -3 3.5 -1.5
v -2.9 3.5 -1.5
v 2.9 3.5 -1.5
v 3 3.5 -1.5
v -2.1 3.5 -1.7
v -1.9 3.5 -1.7
v -1.1 3.5 -1.7
v -0.9 3.5 -1.7
v -0.0999999 3.5 -1.7
v 0.1 3.5 -1.7
v 0.9 3.5 -1.7
v 1.1 3.5 -1.7
v 1.9 3.5 -1.7
v 2.1 3.5 -1.7
v -2.1 3.5 -2
v -1.9 3.5 -2
v -1.1 3.5 -2
v -0.9 3.5 -2
v -0.0999999 3.5 -2
v 0.1 3.5 -2
v 0.9 3.5 -2
v 1.1 3.5 -2
v 1.9 3.5 -2
v 2.1 3.5 -2
v -2.1 3.6 1.7
v -1.9 3.6 1.7
v -1.1 3.6 1.7
v -0.9 3.6 1.7
v -0.0999999 3.6 1.7
v 0.1 3.6 1.7
v 0.9 3.6 1.7
v 1.1 3.6 1.7
v 1.9 3.6 1.7
v 2.1 3.6 1.7
v -2.1 3.6 1.3
v -1.9 3.6 1.3
v -1.1 3.6 1.3
v -0.9 3.6 1.3
v -0.0999999 3.6 1.3
v 0.1 3.6 1.3
v 0.9 3.6 1.3
v 1.1 3.6 1.3
v 1.9 3.6 1.3
v 2.1 3.6 1.3
v -2.1 3.6 1
v -1.9 3.6 1
v -1.1 3.6 1
v -0.9 3.6 1
v -0.0999999 3.6 1
v 0.1 3.6 1
v 0.9 3.6 1
v 1.1 3.6 1
v 1.9 3.6 1
v 2.1 3.6 1
v -2.1 3.6 -1
v -1.9 3.6 -1
v -1.1 3.6 -1
v -0.9 3.6 -1
v -0.0999999 3.6 -1
v 0.1 3.6 -1
v 0.9 3.6 -1
v 1.1 3.6 -1
v 1.9 3.6 -1
v 2.1 3.6 -1
v -2.1 3.6 -1.3
v -1.9 3.6 -1.3
v -1.1 3.6 -1.3
v -0.9 3.6 -1.3
v -0.0999999 3.6 -1.3
v 0.1 3.6 -1.3
v 0.9 3.6 -1.3
v 1.1 3.6 -1.3
v 1.9 3.6 -1.3
v 2.1 3.6 -1.3
v -2.1 3.6 -1.7
v -1.9 3.6 -1.7
v -1.1 3.6 -1.7
v -0.9 3.6 -1.7
v -0.0999999 3.6 -1.7
v 0.1 3.6 -1.7
v 0.9 3.6 -1.7
v 1.1 3.6 -1.7
v 1.9 3.6 -1.7
v 2.1 3.6 -1.7
v -2.7 3 1.6
v -2.6 3 1.6
v 2.6 3 1.6
v 2.7 3 1.6
v -2.7 3 1.5
v -2.6 3 1.5
v 2.6 3 1.5
v 2.7 3 1.5
v -2.7 3 -1.5
v -2.6 3 -1.5
v 2.6 3 -1.5
v 2.7 3 -1.5
v -2.7 3 -1.6
v -2.6 3 -1.6
v 2.6 3 -1.6
v 2.7 3 -1.6
v -2.7 3.1 1.5
v -2.6 3.1 1.5
v 2.6 3.1 1.5
v 2.7 3.1 1.5
v -2.7 3.1 1.4
v -2.6 3.1 1.4
v 2.6 3.1 1.4
v 2.7 3.1 1.4
v -2.7 3.1 -1.4
v -2.6 3.1 -1.4
v 2.6 3.1 -1.4
v 2.7 3.1 -1.4
v -2.7 3.1 -1.5
v -2.6 3.1 -1.5
v 2.6 3.1 -1.5
v 2.7 3.1 -1.5
v -2.7 3.2 1.4
v -2.6 3.2 1.4
v 2.6 3.2 1.4
v 2.7 3.2 1.4
v -2.7 3.2 1.3
v -2.6 3.2 1.3
v 2.6 3.2 1.3
v 2.7 3.2 1.3
v -2.7 3.2 -1.3
v -2.6 3.2 -1.3
v 2.6 3.2 -1.3
v 2.7 3.2 -1.3
v -2.7 3.2 -1.4
v -2.6 3.2 -1.4
v 2.6 3.2 -1.4
v 2.7 3.2 -1.4
v -3 4 2
v 3 4 2
v -2.9 4 1.9
v 2.9 4 1.9
v -0.2 4 1.6
v 0.2 4 1.6
v -2.5 4 1.5
v -1.6 4 1.5
v 1.6 4 1.5
v 2.5 4 1.5
v -2.5 4 0.6
v -1.6 4 0.6
v 1.6 4 0.6
v 2.5 4 0.6
v -2.6 4 0.2
v -0.2 4 0.2
v 0.2 4 0.2
v 2.6 4 0.2
v -2.6 4 -0.2
v -0.2 4 -0.2
v 0.2 4 -0.2
v 2.6 4 -0.2
v -2.5 4 -0.6
v -1.6 4 -0.6
v 1.6 4 -0.6
v 2.5 4 -0.6
v -2.5 4 -1.5
v -1.6 4 -1.5
v 1.6 4 -1.5
v 2.5 4 -1.5
v -0.2 4 -1.6
v 0.2 4 -1.6
v -2.9 4 -1.9
v 2.9 4 -1.9
v -3 4 -2
v 3 4 -2

# faces
f 5/4/1 2/4/1 1/4/1
f 6/4/1 2/4/1 5/4/1
f 7/4/1 4/4/1 3/4/1
f 8/4/1 4/4/1 7/4/1
f 9/3/1 6/3/1 5/3/1
f 9/4/1 5/4/1 1/4/1
f 10/3/1 6/3/1 9/3/1
f 11/3/1 8/3/1 7/3/1
f 12/4/1 4/4/1 8/4/1
f 12/3/1 8/3/1 11/3/1
f 13/4/1 11/4/1 10/4/1
f 13/4/1 10/4/1 9/4/1
f 13/4/1 12/4/1 11/4/1
f 13/4/1 9/4/1 1/4/1
f 14/4/1 12/4/1 13/4/1
f 15/4/1 12/4/1 14/4/1
f 16/4/1 12/4/1 15/4/1
f 17/4/1 12/4/1 16/4/1
f 18/4/1 4/4/1 12/4/1
f 18/4/1 12/4/1 17/4/1
f 19/4/1 13/4/1 1/4/1
f 19/3/1 14/3/1 13/3/1
f 20/4/1 15/4/1 14/4/1
f 20/3/1 14/3/1 19/3/1
f 21/3/1 16/3/1 15/3/1
f 21/4/1 15/4/1 20/4/1
f 22/4/1 17/4/1 16/4/1
f 22/3/1 16/3/1 21/3/1
f 23/3/1 18/3/1 17/3/1
f 23/4/1 17/4/1 22/4/1
f 24/4/1 4/4/1 18/4/1
f 24/3/1 18/3/1 23/3/1
f 25/4/1 21/4/1 20/4/1
f 25/4/1 23/4/1 22/4/1
f 25/4/1 24/4/1 23/4/1
f 25/4/1 20/4/1 19/4/1
f 25/4/1 19/4/1 1/4/1
f 25/4/1 22/4/1 21/4/1
f 26/4/1 4/4/1 24/4/1
f 26/4/1 24/4/1 25/4/1
f 33/3/1 28/3/1 27/3/1
f 34/4/1 29/4/1 28/4/1
f 34/3/1 28/3/1 33/3/1
f 35/3/1 30/3/1 29/3/1
f 35/4/1 29/4/1 34/4/1
f 36/4/1 31/4/1 30/4/1
f 36/3/1 30/3/1 35/3/1
f 37/3/1 32/3/1 31/3/1
f 37/4/1 31/4/1 36/4/1
f 38/3/1 32/3/1 37/3/1
f 43/4/1 40/4/1 39/4/1
f 46/4/1 42/4/1 41/4/1
f 47/4/1 44/4/1 43/4/1
f 50/4/1 46/4/1 45/4/1
f 51/4/1 48/4/1 47/4/1
f 51/4/1 43/4/1 39/4/1
f 51/4/1 47/4/1 43/4/1
f 52/4/1 48/4/1 51/4/1
f 53/4/1 48/4/1 52/4/1
f 56/4/1 50/4/1 49/4/1
f 57/4/1 46/4/1 50/4/1
f 57/4/1 42/4/1 46/4/1
f 57/4/1 50/4/1 56/4/1
f 58/4/1 42/4/1 57/4/1
f 59/4/1 54/4/1 53/4/1
f 59/4/1 53/4/1 52/4/1
f 60/4/1 54/4/1 59/4/1
f 61/4/1 54/4/1 60/4/1
f 64/4/1 56/4/1 55/4/1
f 64/4/1 57/4/1 56/4/1
f 65/4/1 57/4/1 64/4/1
f 66/4/1 57/4/1 65/4/1
f 67/4/1 62/4/1 61/4/1
f 67/4/1 61/4/1 60/4/1
f 68/4/1 62/4/1 67/4/1
f 69/4/1 62/4/1 68/4/1
f 72/4/1 65/4/1 64/4/1
f 72/4/1 64/4/1 63/4/1
f 73/4/1 65/4/1 72/4/1
f 74/4/1 65/4/1 73/4/1
f 76/4/1 70/4/1 69/4/1
f 76/4/1 69/4/1 68/4/1
f 77/4/1 70/4/1 76/4/1
f 78/4/1 73/4/1 72/4/1
f 78/4/1 72/4/1 71/4/1
f 79/4/1 73/4/1 78/4/1
f 81/3/1 76/3/1 75/3/1
f 82/4/1 77/4/1 76/4/1
f 82/3/1 76/3/1 81/3/1
f 83/3/1 78/3/1 77/3/1
f 83/4/1 77/4/1 82/4/1
f 84/4/1 79/4/1 78/4/1
f 84/3/1 78/3/1 83/3/1
f 85/3/1 80/3/1 79/3/1
f 85/4/1 79/4/1 84/4/1
f 86/3/1 80/3/1 85/3/1
f 93/3/1 88/3/1 87/3/1
f 94/3/1 88/3/1 93/3/1
f 95/3/1 92/3/1 91/3/1
f 96/3/1 92/3/1 95/3/1
f 97/3/1 88/3/1 94/3/1
f 98/4/1 89/4/1 88/4/1
f 98/3/1 88/3/1 97/3/1
f 99/3/1 90/3/1 89/3/1
f 99/4/1 89/4/1 98/4/1
f 100/4/1 91/4/1 90/4/1
f 100/3/1 90/3/1 99/3/1
f 101/3/1 95/3/1 91/3/1
f 101/4/1 91/4/1 100/4/1
f 102/3/1 95/3/1 101/3/1
f 109/3/1 104/3/1 103/3/1
f 110/4/1 105/4/1 104/4/1
f 110/3/1 104/3/1 109/3/1
f 111/3/1 106/3/1 105/3/1
f 111/4/1 105/4/1 110/4/1
f 112/4/1 107/4/1 106/4/1
f 112/3/1 106/3/1 111/3/1
f 113/3/1 108/3/1 107/3/1
f 113/4/1 107/4/1 112/4/1
f 114/3/1 108/3/1 113/3/1
f 121/3/1 116/3/1 115/3/1
f 122/3/1 116/3/1 121/3/1
f 123/3/1 120/3/1 119/3/1
f 124/3/1 120/3/1 123/3/1
f 125/3/1 116/3/1 122/3/1
f 126/4/1 117/4/1 116/4/1
f 126/3/1 116/3/1 125/3/1
f 127/3/1 118/3/1 117/3/1
f 127/4/1 117/4/1 126/4/1
f 128/4/1 119/4/1 118/4/1
f 128/3/1 118/3/1 127/3/1
f 129/3/1 123/3/1 119/3/1
f 129/4/1 119/4/1 128/4/1
f 130/3/1 123/3/1 129/3/1
f 137/3/1 132/3/1 131/3/1
f 138/4/1 133/4/1 132/4/1
f 138/3/1 132/3/1 137/3/1
f 139/3/1 134/3/1 133/3/1
f 139/4/1 133/4/1 138/4/1
f 140/4/1 135/4/1 134/4/1
f 140/3/1 134/3/1 139/3/1
f 141/3/1 136/3/1 135/3/1
f 141/4/1 135/4/1 140/4/1
f 142/3/1 136/3/1 141/3/1
f 149/3/1 144/3/1 143/3/1
f 150/3/1 144/3/1 149/3/1
f 151/3/1 148/3/1 147/3/1
f 152/3/1 148/3/1 151/3/1
f 153/3/1 144/3/1 150/3/1
f 154/4/1 145/4/1 144/4/1
f 154/3/1 144/3/1 153/3/1
f 155/3/1 146/3/1 145/3/1
f 155/4/1 145/4/1 154/4/1
f 156/4/1 147/4/1 146/4/1
f 156/3/1 146/3/1 155/3/1
f 157/3/1 151/3/1 147/3/1
f 157/4/1 147/4/1 156/4/1
f 158/3/1 151/3/1 157/3/1
f 165/3/1 160/3/1 159/3/1
f 166/4/1 161/4/1 160/4/1
f 166/3/1 160/3/1 165/3/1
f 167/3/1 162/3/1 161/3/1
f 167/4/1 161/4/1 166/4/1
f 168/4/1 163/4/1 162/4/1
f 168/3/1 162/3/1 167/3/1
f 169/3/1 164/3/1 163/3/1
f 169/4/1 163/4/1 168/4/1
f 170/3/1 164/3/1 169/3/1
f 177/3/1 172/3/1 171/3/1
f 178/3/1 172/3/1 177/3/1
f 179/3/1 176/3/1 175/3/1
f 180/3/1 176/3/1 179/3/1
f 181/3/1 172/3/1 178/3/1
f 182/4/1 173/4/1 172/4/1
f 182/3/1 172/3/1 181/3/1
f 183/3/1 174/3/1 173/3/1
f 183/4/1 173/4/1 182/4/1
f 184/4/1 175/4/1 174/4/1
f 184/3/1 174/3/1 183/3/1
f 185/3/1 179/3/1 175/3/1
f 185/4/1 175/4/1 184/4/1
f 186/3/1 179/3/1 185/3/1
f 193/3/1 188/3/1 187/3/1
f 194/4/1 189/4/1 188/4/1
f 194/3/1 188/3/1 193/3/1
f 195/3/1 190/3/1 189/3/1
f 195/4/1 189/4/1 194/4/1
f 196/4/1 191/4/1 190/4/1
f 196/3/1 190/3/1 195/3/1
f 197/3/1 192/3/1 191/3/1
f 197/4/1 191/4/1 196/4/1
f 198/3/1 192/3/1 197/3/1
f 205/3/1 200/3/1 199/3/1
f 206/3/1 200/3/1 205/3/1
f 207/3/1 204/3/1 203/3/1
f 208/3/1 204/3/1 207/3/1
f 209/3/1 200/3/1 206/3/1
f 210/4/1 201/4/1 200/4/1
f 210/3/1 200/3/1 209/3/1
f 211/3/1 202/3/1 201/3/1
f 211/4/1 201/4/1 210/4/1
f 212/4/1 203/4/1 202/4/1
f 212/3/1 202/3/1 211/3/1
f 213/3/1 207/3/1 203/3/1
f 213/4/1 203/4/1 212/4/1
f 214/3/1 207/3/1 213/3/1
f 223/4/1 216/4/1 215/4/1
f 224/3/1 217/3/1 216/3/1
f 224/4/1 216/4/1 223/4/1
f 225/4/1 218/4/1 217/4/1
f 225/3/1 217/3/1 224/3/1
f 226/3/1 219/3/1 218/3/1
f 226/4/1 218/4/1 225/4/1
f 227/4/1 220/4/1 219/4/1
f 227/3/1 219/3/1 226/3/1
f 228/3/1 221/3/1 220/3/1
f 228/4/1 220/4/1 227/4/1
f 229/4/1 222/4/1 221/4/1
f 229/3/1 221/3/1 228/3/1
f 230/4/1 222/4/1 229/4/1
f 235/4/1 232/4/1 231/4/1
f 236/4/1 232/4/1 235/4/1
f 237/4/1 234/4/1 233/4/1
f 238/4/1 234/4/1 237/4/1
f 239/4/1 235/4/1 231/4/1
f 240/3/1 236/3/1 235/3/1
f 240/4/1 235/4/1 239/4/1
f 241/3/1 236/3/1 240/3/1
f 242/3/1 238/3/1 237/3/1
f 243/4/1 234/4/1 238/4/1
f 243/3/1 238/3/1 242/3/1
f 244/4/1 234/4/1 243/4/1
f 249/4/1 246/4/1 245/4/1
f 250/4/1 246/4/1 249/4/1
f 251/4/1 248/4/1 247/4/1
f 252/4/1 248/4/1 251/4/1
f 253/4/1 246/4/1 250/4/1
f 256/4/1 251/4/1 247/4/1
f 257/4/1 254/4/1 253/4/1
f 260/4/1 256/4/1 255/4/1
f 261/4/1 258/4/1 257/4/1
f 264/4/1 260/4/1 259/4/1
f 265/4/1 262/4/1 261/4/1
f 265/4/1 253/4/1 250/4/1
f 265/4/1 257/4/1 253/4/1
f 265/4/1 261/4/1 257/4/1
f 266/4/1 262/4/1 265/4/1
f 267/4/1 262/4/1 266/4/1
f 270/4/1 264/4/1 263/4/1
f 271/4/1 260/4/1 264/4/1
f 271/4/1 256/4/1 260/4/1
f 271/4/1 264/4/1 270/4/1
f 272/4/1 251/4/1 256/4/1
f 272/4/1 256/4/1 271/4/1
f 273/4/1 268/4/1 267/4/1
f 273/4/1 267/4/1 266/4/1
f 274/4/1 268/4/1 273/4/1
f 275/4/1 268/4/1 274/4/1
f 278/4/1 270/4/1 269/4/1
f 278/4/1 271/4/1 270/4/1
f 279/4/1 271/4/1 278/4/1
f 280/4/1 271/4/1 279/4/1
f 281/4/1 276/4/1 275/4/1
f 281/4/1 275/4/1 274/4/1
f 282/4/1 276/4/1 281/4/1
f 283/4/1 276/4/1 282/4/1
f 286/4/1 279/4/1 278/4/1
f 286/4/1 278/4/1 277/4/1
f 287/4/1 279/4/1 286/4/1
f 288/4/1 279/4/1 287/4/1
f 289/3/1 250/3/1 249/3/1
f 290/4/1 265/4/1 250/4/1
f 290/3/1 250/3/1 289/3/1
f 291/4/1 265/4/1 290/4/1
f 292/4/1 284/4/1 283/4/1
f 292/4/1 283/4/1 282/4/1
f 293/4/1 284/4/1 292/4/1
f 294/4/1 287/4/1 286/4/1
f 294/4/1 286/4/1 285/4/1
f 295/4/1 287/4/1 294/4/1
f 296/4/1 251/4/1 272/4/1
f 297/3/1 252/3/1 251/3/1
f 297/4/1 251/4/1 296/4/1
f 298/3/1 252/3/1 297/3/1
f 303/4/1 300/4/1 299/4/1
f 304/4/1 300/4/1 303/4/1
f 305/4/1 302/4/1 301/4/1
f 306/4/1 302/4/1 305/4/1
f 307/3/1 304/3/1 303/3/1
f 308/3/1 304/3/1 307/3/1
f 309/3/1 306/3/1 305/3/1
f 310/3/1 306/3/1 309/3/1
f 311/4/2 312/4/2 315/4/2
f 315/4/2 312/4/2 316/4/2
f 313/4/2 314/4/2 317/4/2
f 317/4/2 314/4/2 318/4/2
f 315/3/2 316/3/2 319/3/2
f 319/3/2 316/3/2 320/3/2
f 317/3/2 318/3/2 321/3/2
f 321/3/2 318/3/2 322/3/2
f 323/4/2 324/4/2 327/4/2
f 327/4/2 324/4/2 328/4/2
f 325/4/2 326/4/2 329/4/2
f 329/4/2 326/4/2 330/4/2
f 328/4/2 324/4/2 331/4/2
f 325/4/2 329/4/2 334/4/2
f 331/4/2 332/4/2 335/4/2
f 333/4/2 334/4/2 338/4/2
f 335/4/2 336/4/2 339/4/2
f 337/4/2 338/4/2 342/4/2
f 339/4/2 340/4/2 343/4/2
f 328/4/2 331/4/2 343/4/2
f 331/4/2 335/4/2 343/4/2
f 335/4/2 339/4/2 343/4/2
f 343/4/2 340/4/2 344/4/2
f 344/4/2 340/4/2 345/4/2
f 341/4/2 342/4/2 348/4/2
f 342/4/2 338/4/2 349/4/2
f 338/4/2 334/4/2 349/4/2
f 348/4/2 342/4/2 349/4/2
f 334/4/2 329/4/2 350/4/2
f 349/4/2 334/4/2 350/4/2
f 345/4/2 346/4/2 351/4/2
f 344/4/2 345/4/2 351/4/2
f 351/4/2 346/4/2 352/4/2
f 352/4/2 346/4/2 353/4/2
f 347/4/2 348/4/2 356/4/2
f 348/4/2 349/4/2 356/4/2
f 356/4/2 349/4/2 357/4/2
f 357/4/2 349/4/2 358/4/2
f 353/4/2 354/4/2 359/4/2
f 352/4/2 353/4/2 359/4/2
f 359/4/2 354/4/2 360/4/2
f 360/4/2 354/4/2 361/4/2
f 356/4/2 357/4/2 364/4/2
f 355/4/2 356/4/2 364/4/2
f 364/4/2 357/4/2 365/4/2
f 365/4/2 357/4/2 366/4/2
f 327/3/2 328/3/2 367/3/2
f 328/4/2 343/4/2 368/4/2
f 367/3/2 328/3/2 368/3/2
f 368/4/2 343/4/2 369/4/2
f 361/4/2 362/4/2 370/4/2
f 360/4/2 361/4/2 370/4/2
f 370/4/2 362/4/2 371/4/2
f 364/4/2 365/4/2 372/4/2
f 363/4/2 364/4/2 372/4/2
f 372/4/2 365/4/2 373/4/2
f 350/4/2 329/4/2 374/4/2
f 329/3/2 330/3/2 375/3/2
f 374/4/2 329/4/2 375/4/2
f 375/3/2 330/3/2 376/3/2
f 377/4/2 378/4/2 381/4/2
f 381/4/2 378/4/2 382/4/2
f 379/4/2 380/4/2 383/4/2
f 383/4/2 380/4/2 384/4/2
f 377/4/2 381/4/2 385/4/2
f 381/3/2 382/3/2 386/3/2
f 385/4/2 381/4/2 386/4/2
f 386/3/2 382/3/2 387/3/2
f 383/3/2 384/3/2 388/3/2
f 384/4/2 380/4/2 389/4/2
f 388/3/2 384/3/2 389/3/2
f 389/4/2 380/4/2 390/4/2
f 391/4/2 392/4/2 399/4/2
f 392/3/2 393/3/2 400/3/2
f 399/4/2 392/4/2 400/4/2
f 393/4/2 394/4/2 401/4/2
f 400/3/2 393/3/2 401/3/2
f 394/3/2 395/3/2 402/3/2
f 401/4/2 394/4/2 402/4/2
f 395/4/2 396/4/2 403/4/2
f 402/3/2 395/3/2 403/3/2
f 396/3/2 397/3/2 404/3/2
f 403/4/2 396/4/2 404/4/2
f 397/4/2 398/4/2 405/4/2
f 404/3/2 397/3/2 405/3/2
f 405/4/2 398/4/2 406/4/2
f 407/3/2 408/3/2 413/3/2
f 413/3/2 408/3/2 414/3/2
f 411/3/2 412/3/2 415/3/2
f 415/3/2 412/3/2 416/3/2
f 414/3/2 408/3/2 417/3/2
f 408/4/2 409/4/2 418/4/2
f 417/3/2 408/3/2 418/3/2
f 409/3/2 410/3/2 419/3/2
f 418/4/2 409/4/2 419/4/2
f 410/4/2 411/4/2 420/4/2
f 419/3/2 410/3/2 420/3/2
f 411/3/2 415/3/2 421/3/2
f 420/4/2 411/4/2 421/4/2
f 421/3/2 415/3/2 422/3/2
f 423/3/2 424/3/2 429/3/2
f 424/4/2 425/4/2 430/4/2
f 429/3/2 424/3/2 430/3/2
f 425/3/2 426/3/2 431/3/2
f 430/4/2 425/4/2 431/4/2
f 426/4/2 427/4/2 432/4/2
f 431/3/2 426/3/2 432/3/2
f 427/3/2 428/3/2 433/3/2
f 432/4/2 427/4/2 433/4/2
f 433/3/2 428/3/2 434/3/2
f 435/3/2 436/3/2 441/3/2
f 441/3/2 436/3/2 442/3/2
f 439/3/2 440/3/2 443/3/2
f 443/3/2 440/3/2 444/3/2
f 442/3/2 436/3/2 445/3/2
f 436/4/2 437/4/2 446/4/2
f 445/3/2 436/3/2 446/3/2
f 437/3/2 438/3/2 447/3/2
f 446/4/2 437/4/2 447/4/2
f 438/4/2 439/4/2 448/4/2
f 447/3/2 438/3/2 448/3/2
f 439/3/2 443/3/2 449/3/2
f 448/4/2 439/4/2 449/4/2
f 449/3/2 443/3/2 450/3/2
f 451/3/2 452/3/2 457/3/2
f 452/4/2 453/4/2 458/4/2
f 457/3/2 452/3/2 458/3/2
f 453/3/2 454/3/2 459/3/2
f 458/4/2 453/4/2 459/4/2
f 454/4/2 455/4/2 460/4/2
f 459/3/2 454/3/2 460/3/2
f 455/3/2 456/3/2 461/3/2
f 460/4/2 455/4/2 461/4/2
f 461/3/2 456/3/2 462/3/2
f 463/3/2 464/3/2 469/3/2
f 469/3/2 464/3/2 470/3/2
f 467/3/2 468/3/2 471/3/2
f 471/3/2 468/3/2 472/3/2
f 470/3/2 464/3/2 473/3/2
f 464/4/2 465/4/2 474/4/2
f 473/3/2 464/3/2 474/3/2
f 465/3/2 466/3/2 475/3/2
f 474/4/2 465/4/2 475/4/2
f 466/4/2 467/4/2 476/4/2
f 475/3/2 466/3/2 476/3/2
f 467/3/2 471/3/2 477/3/2
f 476/4/2 467/4/2 477/4/2
f 477/3/2 471/3/2 478/3/2
f 479/3/2 480/3/2 485/3/2
f 480/4/2 481/4/2 486/4/2
f 485/3/2 480/3/2 486/3/2
f 481/3/2 482/3/2 487/3/2
f 486/4/2 481/4/2 487/4/2
f 482/4/2 483/4/2 488/4/2
f 487/3/2 482/3/2 488/3/2
f 483/3/2 484/3/2 489/3/2
f 488/4/2 483/4/2 489/4/2
f 489/3/2 484/3/2 490/3/2
f 491/3/2 492/3/2 497/3/2
f 497/3/2 492/3/2 498/3/2
f 495/3/2 496/3/2 499/3/2
f 499/3/2 496/3/2 500/3/2
f 498/3/2 492/3/2 501/3/2
f 492/4/2 493/4/2 502/4/2
f 501/3/2 492/3/2 502/3/2
f 493/3/2 494/3/2 503/3/2
f 502/4/2 493/4/2 503/4/2
f 494/4/2 495/4/2 504/4/2
f 503/3/2 494/3/2 504/3/2
f 495/3/2 499/3/2 505/3/2
f 504/4/2 495/4/2 505/4/2
f 505/3/2 499/3/2 506/3/2
f 507/3/2 508/3/2 513/3/2
f 508/4/2 509/4/2 514/4/2
f 513/3/2 508/3/2 514/3/2
f 509/3/2 510/3/2 515/3/2
f 514/4/2 509/4/2 515/4/2
f 510/4/2 511/4/2 516/4/2
f 515/3/2 510/3/2 516/3/2
f 511/3/2 512/3/2 517/3/2
f 516/4/2 511/4/2 517/4/2
f 517/3/2 512/3/2 518/3/2
f 519/3/2 520/3/2 525/3/2
f 525/3/2 520/3/2 526/3/2
f 523/3/2 524/3/2 527/3/2
f 527/3/2 524/3/2 528/3/2
f 526/3/2 520/3/2 529/3/2
f 520/4/2 521/4/2 530/4/2
f 529/3/2 520/3/2 530/3/2
f 521/3/2 522/3/2 531/3/2
f 530/4/2 521/4/2 531/4/2
f 522/4/2 523/4/2 532/4/2
f 531/3/2 522/3/2 532/3/2
f 523/3/2 527/3/2 533/3/2
f 532/4/2 523/4/2 533/4/2
f 533/3/2 527/3/2 534/3/2
f 535/4/2 536/4/2 539/4/2
f 537/4/2 538/4/2 542/4/2
f 539/4/2 540/4/2 543/4/2
f 541/4/2 542/4/2 546/4/2
f 543/4/2 544/4/2 547/4/2
f 535/4/2 539/4/2 547/4/2
f 539/4/2 543/4/2 547/4/2
f 547/4/2 544/4/2 548/4/2
f 548/4/2 544/4/2 549/4/2
f 545/4/2 546/4/2 552/4/2
f 546/4/2 542/4/2 553/4/2
f 542/4/2 538/4/2 553/4/2
f 552/4/2 546/4/2 553/4/2
f 553/4/2 538/4/2 554/4/2
f 549/4/2 550/4/2 555/4/2
f 548/4/2 549/4/2 555/4/2
f 555/4/2 550/4/2 556/4/2
f 556/4/2 550/4/2 557/4/2
f 551/4/2 552/4/2 560/4/2
f 552/4/2 553/4/2 560/4/2
f 560/4/2 553/4/2 561/4/2
f 561/4/2 553/4/2 562/4/2
f 557/4/2 558/4/2 563/4/2
f 556/4/2 557/4/2 563/4/2
f 563/4/2 558/4/2 564/4/2
f 564/4/2 558/4/2 565/4/2
f 560/4/2 561/4/2 568/4/2
f 559/4/2 560/4/2 568/4/2
f 568/4/2 561/4/2 569/4/2
f 569/4/2 561/4/2 570/4/2
f 565/4/2 566/4/2 572/4/2
f 564/4/2 565/4/2 572/4/2
f 572/4/2 566/4/2 573/4/2
f 568/4/2 569/4/2 574/4/2
f 567/4/2 568/4/2 574/4/2
f 574/4/2 569/4/2 575/4/2
f 571/3/2 572/3/2 577/3/2
f 572/4/2 573/4/2 578/4/2
f 577/3/2 572/3/2 578/3/2
f 573/3/2 574/3/2 579/3/2
f 578/4/2 573/4/2 579/4/2
f 574/4/2 575/4/2 580/4/2
f 579/3/2 574/3/2 580/3/2
f 575/3/2 576/3/2 581/3/2
f 580/4/2 575/4/2 581/4/2
f 581/3/2 576/3/2 582/3/2
f 583/3/2 584/3/2 589/3/2
f 584/4/2 585/4/2 590/4/2
f 589/3/2 584/3/2 590/3/2
f 585/3/2 586/3/2 591/3/2
f 590/4/2 585/4/2 591/4/2
f 586/4/2 587/4/2 592/4/2
f 591/3/2 586/3/2 592/3/2
f 587/3/2 588/3/2 593/3/2
f 592/4/2 587/4/2 593/4/2
f 593/3/2 588/3/2 594/3/2
f 595/4/2 596/4/2 599/4/2
f 599/4/2 596/4/2 600/4/2
f 597/4/2 598/4/2 601/4/2
f 601/4/2 598/4/2 602/4/2
f 599/3/2 600/3/2 603/3/2
f 595/4/2 599/4/2 603/4/2
f 603/3/2 600/3/2 604/3/2
f 601/3/2 602/3/2 605/3/2
f 602/4/2 598/4/2 606/4/2
f 605/3/2 602/3/2 606/3/2
f 604/4/2 605/4/2 607/4/2
f 603/4/2 604/4/2 607/4/2
f 605/4/2 606/4/2 607/4/2
f 595/4/2 603/4/2 607/4/2
f 607/4/2 606/4/2 608/4/2
f 608/4/2 606/4/2 609/4/2
f 609/4/2 606/4/2 610/4/2
f 610/4/2 606/4/2 611/4/2
f 606/4/2 598/4/2 612/4/2
f 611/4/2 606/4/2 612/4/2
f 595/4/2 607/4/2 613/4/2
f 607/3/2 608/3/2 613/3/2
f 608/4/2 609/4/2 614/4/2
f 613/3/2 608/3/2 614/3/2
f 609/3/2 610/3/2 615/3/2
f 614/4/2 609/4/2 615/4/2
f 610/4/2 611/4/2 616/4/2
f 615/3/2 610/3/2 616/3/2
f 611/3/2 612/3/2 617/3/2
f 616/4/2 611/4/2 617/4/2
f 612/4/2 598/4/2 618/4/2
f 617/3/2 612/3/2 618/3/2
f 614/4/2 615/4/2 619/4/2
f 616/4/2 617/4/2 619/4/2
f 617/4/2 618/4/2 619/4/2
f 613/4/2 614/4/2 619/4/2
f 595/4/2 613/4/2 619/4/2
f 615/4/2 616/4/2 619/4/2
f 618/4/2 598/4/2 620/4/2
f 619/4/2 618/4/2 620/4/2
f 623/4/3 622/4/3 621/4/3
f 624/4/3 622/4/3 623/4/3
f 625/4/3 622/4/3 624/4/3
f 626/4/3 622/4/3 625/4/3
f 627/4/3 622/4/3 626/4/3
f 628/3/3 626/3/3 625/3/3
f 629/1/3 627/1/3 626/1/3
f 629/3/3 626/3/3 628/3/3
f 630/3/3 628/3/3 625/3/3
f 630/2/3 629/2/3 628/2/3
f 631/2/3 629/2/3 630/2/3
f 632/1/3 627/1/3 629/1/3
f 632/2/3 629/2/3 631/2/3
f 633/1/3 627/1/3 632/1/3
f 634/4/3 623/4/3 621/4/3
f 634/3/3 624/3/3 623/3/3
f 635/4/3 625/4/3 624/4/3
f 635/3/3 624/3/3 634/3/3
f 636/3/3 630/3/3 625/3/3
f 636/4/3 625/4/3 635/4/3
f 637/1/3 631/1/3 630/1/3
f 637/3/3 630/3/3 636/3/3
f 638/2/3 633/2/3 632/2/3
f 638/1/3 631/1/3 637/1/3
f 638/2/3 632/2/3 631/2/3
f 639/1/3 627/1/3 633/1/3
f 639/2/3 633/2/3 638/2/3
f 640/4/3 634/4/3 621/4/3
f 640/4/3 636/4/3 635/4/3
f 640/4/3 635/4/3 634/4/3
f 641/4/3 636/4/3 640/4/3
f 642/1/3 638/1/3 637/1/3
f 642/1/3 637/1/3 636/1/3
f 642/1/3 639/1/3 638/1/3
f 643/1/3 627/1/3 639/1/3
f 643/1/3 639/1/3 642/1/3
f 644/4/3 636/4/3 641/4/3
f 644/1/3 642/1/3 636/1/3
f 645/1/3 642/1/3 644/1/3
f 646/1/3 627/1/3 643/1/3
f 646/2/3 643/2/3 642/2/3
f 647/4/3 622/4/3 627/4/3
f 647/1/3 627/1/3 646/1/3
f 648/4/3 644/4/3 641/4/3
f 649/3/3 645/3/3 644/3/3
f 649/4/3 644/4/3 648/4/3
f 650/1/3 642/1/3 645/1/3
f 650/2/3 646/2/3 642/2/3
f 650/2/3 647/2/3 646/2/3
f 651/2/3 647/2/3 650/2/3
f 652/3/3 645/3/3 649/3/3
f 652/1/3 651/1/3 650/1/3
f 652/1/3 650/1/3 645/1/3
f 653/1/3 651/1/3 652/1/3
f 654/3/3 652/3/3 649/3/3
f 654/3/3 653/3/3 652/3/3
f 655/3/3 653/3/3 654/3/3
f 656/3/3 653/3/3 655/3/3
f 657/1/3 651/1/3 653/1/3
f 657/3/3 653/3/3 656/3/3
f 658/2/3 647/2/3 651/2/3
f 658/1/3 651/1/3 657/1/3
f 659/4/3 622/4/3 647/4/3
f 659/2/3 647/2/3 658/2/3
f 661/4/3 656/4/3 655/4/3
f 662/3/3 657/3/3 656/3/3
f 662/3/3 658/3/3 657/3/3
f 662/4/3 656/4/3 661/4/3
f 662/3/3 659/3/3 658/3/3
f 663/3/3 659/3/3 662/3/3
f 664/4/3 622/4/3 659/4/3
f 664/3/3 659/3/3 663/3/3
f 665/3/3 661/3/3 660/3/3
f 665/3/3 663/3/3 662/3/3
f 665/3/3 662/3/3 661/3/3
f 666/1/3 664/1/3 663/1/3
f 666/3/3 663/3/3 665/3/3
f 668/3/3 665/3/3 660/3/3
f 669/2/3 666/2/3 665/2/3
f 669/3/3 665/3/3 668/3/3
f 670/2/3 666/2/3 669/2/3
f 671/1/3 664/1/3 666/1/3
f 671/2/3 666/2/3 670/2/3
f 672/1/3 664/1/3 671/1/3
f 673/3/3 668/3/3 667/3/3
f 673/3/3 669/3/3 668/3/3
f 674/1/3 670/1/3 669/1/3
f 674/3/3 669/3/3 673/3/3
f 675/2/3 672/2/3 671/2/3
f 675/1/3 670/1/3 674/1/3
f 675/2/3 671/2/3 670/2/3
f 676/1/3 664/1/3 672/1/3
f 676/2/3 672/2/3 675/2/3
f 677/1/3 675/1/3 674/1/3
f 677/1/3 674/1/3 673/1/3
f 677/1/3 676/1/3 675/1/3
f 678/1/3 664/1/3 676/1/3
f 678/1/3 676/1/3 677/1/3
f 679/3/3 673/3/3 667/3/3
f 679/1/3 677/1/3 673/1/3
f 680/1/3 677/1/3 679/1/3
f 681/1/3 664/1/3 678/1/3
f 681/2/3 678/2/3 677/2/3
f 682/4/3 622/4/3 664/4/3
f 682/1/3 664/1/3 681/1/3
f 683/3/3 680/3/3 679/3/3
f 683/3/3 679/3/3 667/3/3
f 684/3/3 680/3/3 683/3/3
f 685/2/3 681/2/3 677/2/3
f 685/1/3 677/1/3 680/1/3
f 685/2/3 682/2/3 681/2/3
f 686/2/3 682/2/3 685/2/3
f 687/3/3 680/3/3 684/3/3
f 687/1/3 686/1/3 685/1/3
f 687/1/3 685/1/3 680/1/3
f 688/1/3 686/1/3 687/1/3
f 689/3/3 687/3/3 684/3/3
f 689/3/3 688/3/3 687/3/3
f 690/3/3 688/3/3 689/3/3
f 691/3/3 688/3/3 690/3/3
f 692/1/3 686/1/3 688/1/3
f 692/3/3 688/3/3 691/3/3
f 693/2/3 682/2/3 686/2/3
f 693/1/3 686/1/3 692/1/3
f 694/4/3 622/4/3 682/4/3
f 694/2/3 682/2/3 693/2/3
f 696/4/3 691/4/3 690/4/3
f 697/3/3 692/3/3 691/3/3
f 697/3/3 693/3/3 692/3/3
f 697/4/3 691/4/3 696/4/3
f 698/3/3 693/3/3 697/3/3
f 699/4/3 694/4/3 693/4/3
f 699/3/3 693/3/3 698/3/3
f 700/4/3 622/4/3 694/4/3
f 700/4/3 694/4/3 699/4/3
f 701/3/3 696/3/3 695/3/3
f 701/3/3 698/3/3 697/3/3
f 701/3/3 697/3/3 696/3/3
f 702/1/3 700/1/3 699/1/3
f 702/3/3 698/3/3 701/3/3
f 702/1/3 699/1/3 698/1/3
f 704/3/3 701/3/3 695/3/3
f 705/2/3 702/2/3 701/2/3
f 705/3/3 701/3/3 704/3/3
f 706/2/3 702/2/3 705/2/3
f 707/1/3 700/1/3 702/1/3
f 707/2/3 702/2/3 706/2/3
f 708/1/3 700/1/3 707/1/3
f 709/3/3 704/3/3 703/3/3
f 709/3/3 705/3/3 704/3/3
f 710/1/3 706/1/3 705/1/3
f 710/3/3 705/3/3 709/3/3
f 711/2/3 708/2/3 707/2/3
f 711/1/3 706/1/3 710/1/3
f 711/2/3 707/2/3 706/2/3
f 712/1/3 700/1/3 708/1/3
f 712/2/3 708/2/3 711/2/3
f 713/1/3 711/1/3 710/1/3
f 713/1/3 710/1/3 709/1/3
f 713/1/3 712/1/3 711/1/3
f 714/1/3 700/1/3 712/1/3
f 714/1/3 712/1/3 713/1/3
f 715/3/3 709/3/3 703/3/3
f 715/1/3 713/1/3 709/1/3
f 716/1/3 713/1/3 715/1/3
f 717/1/3 700/1/3 714/1/3
f 717/2/3 714/2/3 713/2/3
f 718/4/3 622/4/3 700/4/3
f 718/1/3 700/1/3 717/1/3
f 719/3/3 716/3/3 715/3/3
f 719/3/3 715/3/3 703/3/3
f 720/3/3 716/3/3 719/3/3
f 721/2/3 717/2/3 713/2/3
f 721/1/3 713/1/3 716/1/3
f 721/2/3 718/2/3 717/2/3
f 722/2/3 718/2/3 721/2/3
f 723/3/3 716/3/3 720/3/3
f 723/1/3 722/1/3 721/1/3
f 723/1/3 721/1/3 716/1/3
f 724/1/3 722/1/3 723/1/3
f 725/3/3 723/3/3 720/3/3
f 725/3/3 724/3/3 723/3/3
f 726/3/3 724/3/3 725/3/3
f 727/3/3 724/3/3 726/3/3
f 728/1/3 722/1/3 724/1/3
f 728/3/3 724/3/3 727/3/3
f 729/2/3 718/2/3 722/2/3
f 729/1/3 722/1/3 728/1/3
f 730/4/3 622/4/3 718/4/3
f 730/2/3 718/2/3 729/2/3
f 732/4/3 727/4/3 726/4/3
f 733/3/3 728/3/3 727/3/3
f 733/3/3 729/3/3 728/3/3
f 733/4/3 727/4/3 732/4/3
f 733/3/3 730/3/3 729/3/3
f 734/3/3 730/3/3 733/3/3
f 735/4/3 622/4/3 730/4/3
f 735/3/3 730/3/3 734/3/3
f 736/3/3 732/3/3 731/3/3
f 736/3/3 734/3/3 733/3/3
f 736/3/3 733/3/3 732/3/3
f 737/1/3 735/1/3 734/1/3
f 737/3/3 734/3/3 736/3/3
f 739/3/3 736/3/3 731/3/3
f 740/2/3 737/2/3 736/2/3
f 740/3/3 736/3/3 739/3/3
f 741/2/3 737/2/3 740/2/3
f 742/1/3 735/1/3 737/1/3
f 742/2/3 737/2/3 741/2/3
f 743/1/3 735/1/3 742/1/3
f 744/3/3 739/3/3 738/3/3
f 744/3/3 740/3/3 739/3/3
f 745/1/3 741/1/3 740/1/3
f 745/3/3 740/3/3 744/3/3
f 746/2/3 743/2/3 742/2/3
f 746/1/3 741/1/3 745/1/3
f 746/2/3 742/2/3 741/2/3
f 747/1/3 735/1/3 743/1/3
f 747/2/3 743/2/3 746/2/3
f 748/1/3 746/1/3 745/1/3
f 748/1/3 745/1/3 744/1/3
f 748/1/3 747/1/3 746/1/3
f 749/1/3 735/1/3 747/1/3
f 749/1/3 747/1/3 748/1/3
f 750/3/3 744/3/3 738/3/3
f 750/1/3 748/1/3 744/1/3
f 751/1/3 748/1/3 750/1/3
f 752/1/3 735/1/3 749/1/3
f 752/2/3 749/2/3 748/2/3
f 753/4/3 622/4/3 735/4/3
f 753/1/3 735/1/3 752/1/3
f 754/3/3 751/3/3 750/3/3
f 754/3/3 750/3/3 738/3/3
f 755/3/3 751/3/3 754/3/3
f 756/2/3 752/2/3 748/2/3
f 756/1/3 748/1/3 751/1/3
f 756/2/3 753/2/3 752/2/3
f 757/2/3 753/2/3 756/2/3
f 758/3/3 751/3/3 755/3/3
f 758/1/3 757/1/3 756/1/3
f 758/1/3 756/1/3 751/1/3
f 759/1/3 757/1/3 758/1/3
f 760/3/3 758/3/3 755/3/3
f 760/3/3 759/3/3 758/3/3
f 761/3/3 759/3/3 760/3/3
f 762/3/3 759/3/3 761/3/3
f 763/1/3 757/1/3 759/1/3
f 763/3/3 759/3/3 762/3/3
f 764/2/3 753/2/3 757/2/3
f 764/1/3 757/1/3 763/1/3
f 765/4/3 622/4/3 753/4/3
f 765/2/3 753/2/3 764/2/3
f 767/4/3 762/4/3 761/4/3
f 768/3/3 763/3/3 762/3/3
f 768/3/3 764/3/3 763/3/3
f 768/4/3 762/4/3 767/4/3
f 769/3/3 764/3/3 768/3/3
f 770/4/3 765/4/3 764/4/3
f 770/3/3 764/3/3 769/3/3
f 771/4/3 622/4/3 765/4/3
f 771/4/3 765/4/3 770/4/3
f 772/3/3 767/3/3 766/3/3
f 772/3/3 769/3/3 768/3/3
f 772/3/3 768/3/3 767/3/3
f 773/1/3 771/1/3 770/1/3
f 773/3/3 769/3/3 772/3/3
f 773/1/3 770/1/3 769/1/3
f 775/3/3 772/3/3 766/3/3
f 776/2/3 773/2/3 772/2/3
f 776/3/3 772/3/3 775/3/3
f 777/2/3 773/2/3 776/2/3
f 778/1/3 771/1/3 773/1/3
f 778/2/3 773/2/3 777/2/3
f 779/1/3 771/1/3 778/1/3
f 780/3/3 775/3/3 774/3/3
f 780/3/3 776/3/3 775/3/3
f 781/1/3 777/1/3 776/1/3
f 781/3/3 776/3/3 780/3/3
f 782/2/3 779/2/3 778/2/3
f 782/1/3 777/1/3 781/1/3
f 782/2/3 778/2/3 777/2/3
f 783/1/3 771/1/3 779/1/3
f 783/2/3 779/2/3 782/2/3
f 784/1/3 782/1/3 781/1/3
f 784/1/3 781/1/3 780/1/3
f 784/1/3 783/1/3 782/1/3
f 785/1/3 771/1/3 783/1/3
f 785/1/3 783/1/3 784/1/3
f 786/3/3 780/3/3 774/3/3
f 786/1/3 784/1/3 780/1/3
f 787/1/3 784/1/3 786/1/3
f 788/1/3 771/1/3 785/1/3
f 788/2/3 785/2/3 784/2/3
f 789/4/3 622/4/3 771/4/3
f 789/1/3 771/1/3 788/1/3
f 790/3/3 787/3/3 786/3/3
f 790/3/3 786/3/3 774/3/3
f 791/3/3 787/3/3 790/3/3
f 792/2/3 788/2/3 784/2/3
f 792/1/3 784/1/3 787/1/3
f 792/2/3 789/2/3 788/2/3
f 793/2/3 789/2/3 792/2/3
f 794/3/3 787/3/3 791/3/3
f 794/1/3 793/1/3 792/1/3
f 794/1/3 792/1/3 787/1/3
f 795/1/3 793/1/3 794/1/3
f 796/3/3 794/3/3 791/3/3
f 796/3/3 795/3/3 794/3/3
f 797/3/3 795/3/3 796/3/3
f 798/3/3 795/3/3 797/3/3
f 799/1/3 793/1/3 795/1/3
f 799/3/3 795/3/3 798/3/3
f 800/2/3 789/2/3 793/2/3
f 800/1/3 793/1/3 799/1/3
f 801/4/3 622/4/3 789/4/3
f 801/2/3 789/2/3 800/2/3
f 803/4/3 798/4/3 797/4/3
f 804/3/3 799/3/3 798/3/3
f 804/3/3 800/3/3 799/3/3
f 804/4/3 798/4/3 803/4/3
f 804/3/3 801/3/3 800/3/3
f 805/3/3 801/3/3 804/3/3
f 806/4/3 622/4/3 801/4/3
f 806/3/3 801/3/3 805/3/3
f 807/3/3 803/3/3 802/3/3
f 807/3/3 805/3/3 804/3/3
f 807/3/3 804/3/3 803/3/3
f 808/1/3 806/1/3 805/1/3
f 808/3/3 805/3/3 807/3/3
f 810/3/3 807/3/3 802/3/3
f 811/2/3 808/2/3 807/2/3
f 811/3/3 807/3/3 810/3/3
f 812/2/3 808/2/3 811/2/3
f 813/1/3 806/1/3 808/1/3
f 813/2/3 808/2/3 812/2/3
f 814/1/3 806/1/3 813/1/3
f 815/4/3 810/4/3 809/4/3
f 815/3/3 811/3/3 810/3/3
f 816/1/3 812/1/3 811/1/3
f 816/3/3 811/3/3 815/3/3
f 817/2/3 814/2/3 813/2/3
f 817/1/3 812/1/3 816/1/3
f 817/2/3 813/2/3 812/2/3
f 818/1/3 806/1/3 814/1/3
f 818/2/3 814/2/3 817/2/3
f 820/4/3 815/4/3 809/4/3
f 821/1/3 817/1/3 816/1/3
f 821/1/3 816/1/3 815/1/3
f 821/1/3 818/1/3 817/1/3
f 822/1/3 806/1/3 818/1/3
f 822/1/3 818/1/3 821/1/3
f 823/4/3 820/4/3 819/4/3
f 824/4/3 815/4/3 820/4/3
f 824/4/3 820/4/3 823/4/3
f 825/1/3 821/1/3 815/1/3
f 825/4/3 815/4/3 824/4/3
f 826/1/3 821/1/3 825/1/3
f 827/1/3 806/1/3 822/1/3
f 827/2/3 822/2/3 821/2/3
f 828/4/3 622/4/3 806/4/3
f 828/1/3 806/1/3 827/1/3
f 829/2/3 827/2/3 821/2/3
f 829/1/3 821/1/3 826/1/3
f 829/2/3 828/2/3 827/2/3
f 830/2/3 828/2/3 829/2/3
f 831/3/3 826/3/3 825/3/3
f 831/1/3 829/1/3 826/1/3
f 831/1/3 830/1/3 829/1/3
f 832/1/3 830/1/3 831/1/3
f 833/3/3 824/3/3 823/3/3
f 833/4/3 823/4/3 819/4/3
f 834/4/3 825/4/3 824/4/3
f 834/3/3 824/3/3 833/3/3
f 835/3/3 832/3/3 831/3/3
f 835/4/3 825/4/3 834/4/3
f 835/3/3 831/3/3 825/3/3
f 836/1/3 830/1/3 832/1/3
f 836/3/3 832/3/3 835/3/3
f 837/2/3 828/2/3 830/2/3
f 837/1/3 830/1/3 836/1/3
f 838/4/3 622/4/3 828/4/3
f 838/2/3 828/2/3 837/2/3
f 839/4/3 837/4/3 836/4/3
f 839/4/3 835/4/3 834/4/3
f 839/4/3 838/4/3 837/4/3
f 839/4/3 836/4/3 835/4/3
f 839/4/3 833/4/3 819/4/3
f 839/4/3 834/4/3 833/4/3
f 840/4/3 622/4/3 838/4/3
f 840/4/3 838/4/3 839/4/3
f 843/4/3 842/4/3 841/4/3
f 844/4/3 842/4/3 843/4/3
f 847/4/3 846/4/3 845/4/3
f 848/4/3 846/4/3 847/4/3
f 851/4/3 850/4/3 849/4/3
f 852/4/3 850/4/3 851/4/3
f 855/4/3 854/4/3 853/4/3
f 856/4/3 854/4/3 855/4/3
f 859/4/3 858/4/3 857/4/3
f 860/4/3 858/4/3 859/4/3
f 863/4/3 862/4/3 861/4/3
f 864/4/3 862/4/3 863/4/3
f 867/4/3 866/4/3 865/4/3
f 868/4/3 866/4/3 867/4/3
f 871/4/3 870/4/3 869/4/3
f 872/4/3 870/4/3 871/4/3
f 875/4/3 874/4/3 873/4/3
f 876/4/3 874/4/3 875/4/3
f 879/4/3 878/4/3 877/4/3
f 880/4/3 878/4/3 879/4/3
f 883/4/3 882/4/3 881/4/3
f 884/4/3 882/4/3 883/4/3
f 887/4/3 886/4/3 885/4/3
f 888/4/3 886/4/3 887/4/3
f 891/4/3 890/4/3 889/4/3
f 892/4/3 890/4/3 891/4/3
f 895/4/3 894/4/3 893/4/3
f 896/4/3 894/4/3 895/4/3
f 899/4/3 898/4/3 897/4/3
f 900/4/3 898/4/3 899/4/3
f 903/4/3 902/4/3 901/4/3
f 904/4/3 902/4/3 903/4/3
f 908/3/3 907/3/3 906/3/3
f 909/3/3 907/3/3 908/3/3
f 910/4/3 906/4/3 905/4/3
f 911/3/3 908/3/3 906/3/3
f 911/4/3 906/4/3 910/4/3
f 912/3/3 908/3/3 911/3/3
f 915/4/3 914/4/3 913/4/3
f 916/4/3 914/4/3 915/4/3
f 919/4/3 918/4/3 917/4/3
f 920/4/3 918/4/3 919/4/3
f 924/3/3 923/3/3 922/3/3
f 926/4/3 922/4/3 921/4/3
f 927/3/3 924/3/3 922/3/3
f 927/4/3 922/4/3 926/4/3
f 927/3/3 925/3/3 924/3/3
f 928/3/3 925/3/3 927/3/3
f 932/4/3 930/4/3 929/4/3
f 932/3/3 931/3/3 930/3/3
f 933/3/3 931/3/3 932/3/3
f 934/3/3 931/3/3 933/3/3
f 935/3/3 931/3/3 934/3/3
f 936/3/3 931/3/3 935/3/3
f 937/4/3 932/4/3 929/4/3
f 937/4/3 933/4/3 932/4/3
f 938/4/3 933/4/3 937/4/3
f 939/4/3 935/4/3 934/4/3
f 940/4/3 935/4/3 939/4/3
f 945/4/3 942/4/3 941/4/3
f 946/4/3 942/4/3 945/4/3
f 947/4/3 944/4/3 943/4/3
f 948/4/3 944/4/3 947/4/3
f 950/4/3 945/4/3 941/4/3
f 951/3/3 948/3/3 947/3/3
f 951/4/3 945/4/3 950/4/3
f 951/3/3 946/3/3 945/3/3
f 951/3/3 947/3/3 946/3/3
f 951/3/3 949/3/3 948/3/3
f 952/3/3 949/3/3 951/3/3
f 955/4/3 954/4/3 953/4/3
f 956/4/3 954/4/3 955/4/3
f 959/4/3 958/4/3 957/4/3
f 960/4/3 958/4/3 959/4/3
f 963/4/3 962/4/3 961/4/3
f 964/4/3 962/4/3 963/4/3
f 967/4/3 966/4/3 965/4/3
f 968/4/3 966/4/3 967/4/3
f 971/4/3 970/4/3 969/4/3
f 972/4/3 970/4/3 971/4/3
f 976/4/3 974/4/3 973/4/3
f 977/3/3 975/3/3 974/3/3
f 977/4/3 974/4/3 976/4/3
f 978/3/3 975/3/3 977/3/3
f 982/4/3 980/4/3 979/4/3
f 983/3/3 981/3/3 980/3/3
f 983/4/3 980/4/3 982/4/3
f 984/3/3 981/3/3 983/3/3
f 985/4/4 986/4/4 988/4/4
f 986/3/4 987/3/4 989/3/4
f 988/4/4 986/4/4 989/4/4
f 989/3/4 987/3/4 990/3/4
f 991/4/4 992/4/4 994/4/4
f 992/3/4 993/3/4 995/3/4
f 994/4/4 992/4/4 995/4/4
f 995/3/4 993/3/4 996/3/4
f 997/4/4 998/4/4 999/4/4
f 999/4/4 998/4/4 1000/4/4
f 1001/4/4 1002/4/4 1003/4/4
f 1003/4/4 1002/4/4 1004/4/4
f 1005/4/4 1006/4/4 1007/4/4
f 1007/4/4 1006/4/4 1008/4/4
f 1009/4/4 1010/4/4 1011/4/4
f 1011/4/4 1010/4/4 1012/4/4
f 1013/4/4 1014/4/4 1015/4/4
f 1015/4/4 1014/4/4 1016/4/4
f 1017/4/4 1018/4/4 1020/4/4
f 1018/3/4 1019/3/4 1020/3/4
f 1020/3/4 1019/3/4 1021/3/4
f 1021/3/4 1019/3/4 1022/3/4
f 1022/3/4 1019/3/4 1023/3/4
f 1023/3/4 1019/3/4 1024/3/4
f 1017/4/4 1020/4/4 1025/4/4
f 1020/4/4 1021/4/4 1025/4/4
f 1025/4/4 1021/4/4 1026/4/4
f 1022/4/4 1023/4/4 1027/4/4
f 1027/4/4 1023/4/4 1028/4/4
f 1029/4/4 1030/4/4 1033/4/4
f 1033/4/4 1030/4/4 1034/4/4
f 1031/4/4 1032/4/4 1035/4/4
f 1035/4/4 1032/4/4 1036/4/4
f 1029/4/4 1033/4/4 1038/4/4
f 1035/3/4 1036/3/4 1039/3/4
f 1038/4/4 1033/4/4 1039/4/4
f 1033/3/4 1034/3/4 1039/3/4
f 1034/3/4 1035/3/4 1039/3/4
f 1036/3/4 1037/3/4 1039/3/4
f 1039/3/4 1037/3/4 1040/3/4
f 1042/3/4 1043/3/4 1044/3/4
f 1044/3/4 1043/3/4 1045/3/4
f 1041/4/4 1042/4/4 1046/4/4
f 1042/3/4 1044/3/4 1047/3/4
f 1046/4/4 1042/4/4 1047/4/4
f 1047/3/4 1044/3/4 1048/3/4
f 1049/4/4 1050/4/4 1051/4/4
f 1051/4/4 1050/4/4 1052/4/4
f 1053/4/4 1054/4/4 1055/4/4
f 1055/4/4 1054/4/4 1056/4/4
f 1058/3/4 1059/3/4 1060/3/4
f 1057/4/4 1058/4/4 1062/4/4
f 1058/3/4 1060/3/4 1063/3/4
f 1062/4/4 1058/4/4 1063/4/4
f 1060/3/4 1061/3/4 1063/3/4
f 1063/3/4 1061/3/4 1064/3/4
f 1065/4/4 1066/4/4 1067/4/4
f 1067/4/4 1066/4/4 1068/4/4
f 1069/4/4 1070/4/4 1071/4/4
f 1071/4/4 1070/4/4 1072/4/4
f 1073/4/4 1074/4/4 1075/4/4
f 1075/4/4 1074/4/4 1076/4/4
f 1077/4/4 1078/4/4 1079/4/4
f 1079/4/4 1078/4/4 1080/4/4
f 1081/4/4 1082/4/4 1083/4/4
f 1083/4/4 1082/4/4 1084/4/4
f 1085/4/4 1086/4/4 1087/4/4
f 1087/4/4 1086/4/4 1088/4/4
f 1089/4/4 1090/4/4 1091/4/4
f 1091/4/4 1090/4/4 1092/4/4
f 1093/4/4 1094/4/4 1095/4/4
f 1095/4/4 1094/4/4 1096/4/4
f 1097/4/4 1098/4/4 1099/4/4
f 1099/4/4 1098/4/4 1100/4/4
f 1101/4/4 1102/4/4 1103/4/4
f 1103/4/4 1102/4/4 1104/4/4
f 1105/4/4 1106/4/4 1107/4/4
f 1107/4/4 1106/4/4 1108/4/4
f 1109/4/4 1110/4/4 1111/4/4
f 1111/4/4 1110/4/4 1112/4/4
f 1113/4/4 1114/4/4 1115/4/4
f 1115/4/4 1114/4/4 1116/4/4
f 1117/4/4 1118/4/4 1119/4/4
f 1119/4/4 1118/4/4 1120/4/4
f 1121/4/4 1122/4/4 1123/4/4
f 1123/4/4 1122/4/4 1124/4/4
f 1125/4/4 1126/4/4 1127/4/4
f 1127/4/4 1126/4/4 1128/4/4
f 1129/4/4 1130/4/4 1131/4/4
f 1131/4/4 1130/4/4 1132/4/4
f 1132/4/4 1130/4/4 1133/4/4
f 1133/4/4 1130/4/4 1134/4/4
f 1134/4/4 1130/4/4 1135/4/4
f 1133/3/4 1134/3/4 1136/3/4
f 1134/1/4 1135/1/4 1137/1/4
f 1136/3/4 1134/3/4 1137/3/4
f 1133/3/4 1136/3/4 1138/3/4
f 1136/2/4 1137/2/4 1138/2/4
f 1138/2/4 1137/2/4 1139/2/4
f 1137/1/4 1135/1/4 1140/1/4
f 1139/2/4 1137/2/4 1140/2/4
f 1140/1/4 1135/1/4 1141/1/4
f 1129/4/4 1131/4/4 1142/4/4
f 1131/3/4 1132/3/4 1142/3/4
f 1132/4/4 1133/4/4 1143/4/4
f 1142/3/4 1132/3/4 1143/3/4
f 1133/3/4 1138/3/4 1144/3/4
f 1143/4/4 1133/4/4 1144/4/4
f 1138/1/4 1139/1/4 1145/1/4
f 1144/3/4 1138/3/4 1145/3/4
f 1140/2/4 1141/2/4 1146/2/4
f 1145/1/4 1139/1/4 1146/1/4
f 1139/2/4 1140/2/4 1146/2/4
f 1141/1/4 1135/1/4 1147/1/4
f 1146/2/4 1141/2/4 1147/2/4
f 1129/4/4 1142/4/4 1148/4/4
f 1143/4/4 1144/4/4 1148/4/4
f 1142/4/4 1143/4/4 1148/4/4
f 1148/4/4 1144/4/4 1149/4/4
f 1145/1/4 1146/1/4 1150/1/4
f 1144/1/4 1145/1/4 1150/1/4
f 1146/1/4 1147/1/4 1150/1/4
f 1147/1/4 1135/1/4 1151/1/4
f 1150/1/4 1147/1/4 1151/1/4
f 1149/4/4 1144/4/4 1152/4/4
f 1144/1/4 1150/1/4 1152/1/4
f 1152/1/4 1150/1/4 1153/1/4
f 1153/1/4 1150/1/4 1154/1/4
f 1150/2/4 1151/2/4 1155/2/4
f 1154/1/4 1150/1/4 1155/1/4
f 1149/4/4 1152/4/4 1156/4/4
f 1152/3/4 1153/3/4 1157/3/4
f 1156/4/4 1152/4/4 1157/4/4
f 1155/2/4 1151/2/4 1158/2/4
f 1154/2/4 1155/2/4 1158/2/4
f 1151/1/4 1135/1/4 1159/1/4
f 1158/2/4 1151/2/4 1159/2/4
f 1153/1/4 1154/1/4 1160/1/4
f 1157/3/4 1153/3/4 1160/3/4
f 1154/2/4 1158/2/4 1161/2/4
f 1160/1/4 1154/1/4 1161/1/4
f 1158/1/4 1159/1/4 1162/1/4
f 1161/2/4 1158/2/4 1162/2/4
f 1157/3/4 1160/3/4 1163/3/4
f 1160/3/4 1161/3/4 1163/3/4
f 1161/3/4 1162/3/4 1163/3/4
f 1163/3/4 1162/3/4 1164/3/4
f 1164/3/4 1162/3/4 1165/3/4
f 1162/1/4 1159/1/4 1166/1/4
f 1165/3/4 1162/3/4 1166/3/4
f 1159/1/4 1135/1/4 1167/1/4
f 1166/1/4 1159/1/4 1167/1/4
f 1135/4/4 1130/4/4 1167/4/4
f 1164/4/4 1165/4/4 1169/4/4
f 1166/3/4 1167/3/4 1170/3/4
f 1165/3/4 1166/3/4 1170/3/4
f 1169/4/4 1165/4/4 1170/4/4
f 1170/3/4 1167/3/4 1171/3/4
f 1167/4/4 1130/4/4 1172/4/4
f 1171/3/4 1167/3/4 1172/3/4
f 1168/3/4 1169/3/4 1173/3/4
f 1170/3/4 1171/3/4 1173/3/4
f 1169/3/4 1170/3/4 1173/3/4
f 1171/1/4 1172/1/4 1174/1/4
f 1173/3/4 1171/3/4 1174/3/4
f 1168/3/4 1173/3/4 1176/3/4
f 1173/2/4 1174/2/4 1177/2/4
f 1176/3/4 1173/3/4 1177/3/4
f 1177/2/4 1174/2/4 1178/2/4
f 1174/1/4 1172/1/4 1179/1/4
f 1178/2/4 1174/2/4 1179/2/4
f 1179/1/4 1172/1/4 1180/1/4
f 1175/3/4 1176/3/4 1181/3/4
f 1176/3/4 1177/3/4 1181/3/4
f 1177/1/4 1178/1/4 1182/1/4
f 1181/3/4 1177/3/4 1182/3/4
f 1179/2/4 1180/2/4 1183/2/4
f 1182/1/4 1178/1/4 1183/1/4
f 1178/2/4 1179/2/4 1183/2/4
f 1180/1/4 1172/1/4 1184/1/4
f 1183/2/4 1180/2/4 1184/2/4
f 1182/1/4 1183/1/4 1185/1/4
f 1181/1/4 1182/1/4 1185/1/4
f 1183/1/4 1184/1/4 1185/1/4
f 1184/1/4 1172/1/4 1186/1/4
f 1185/1/4 1184/1/4 1186/1/4
f 1175/3/4 1181/3/4 1187/3/4
f 1181/1/4 1185/1/4 1187/1/4
f 1187/1/4 1185/1/4 1188/1/4
f 1188/1/4 1185/1/4 1189/1/4
f 1185/2/4 1186/2/4 1190/2/4
f 1189/1/4 1185/1/4 1190/1/4
f 1175/3/4 1187/3/4 1191/3/4
f 1187/3/4 1188/3/4 1191/3/4
f 1191/3/4 1188/3/4 1192/3/4
f 1190/2/4 1186/2/4 1193/2/4
f 1189/2/4 1190/2/4 1193/2/4
f 1186/1/4 1172/1/4 1194/1/4
f 1193/2/4 1186/2/4 1194/2/4
f 1188/1/4 1189/1/4 1195/1/4
f 1192/3/4 1188/3/4 1195/3/4
f 1189/2/4 1193/2/4 1196/2/4
f 1195/1/4 1189/1/4 1196/1/4
f 1193/1/4 1194/1/4 1197/1/4
f 1196/2/4 1193/2/4 1197/2/4
f 1192/3/4 1195/3/4 1198/3/4
f 1195/3/4 1196/3/4 1198/3/4
f 1196/3/4 1197/3/4 1198/3/4
f 1198/3/4 1197/3/4 1199/3/4
f 1199/3/4 1197/3/4 1200/3/4
f 1197/1/4 1194/1/4 1201/1/4
f 1200/3/4 1197/3/4 1201/3/4
f 1194/1/4 1172/1/4 1202/1/4
f 1201/1/4 1194/1/4 1202/1/4
f 1172/4/4 1130/4/4 1203/4/4
f 1202/1/4 1172/1/4 1203/1/4
f 1199/4/4 1200/4/4 1205/4/4
f 1201/3/4 1202/3/4 1206/3/4
f 1200/3/4 1201/3/4 1206/3/4
f 1205/4/4 1200/4/4 1206/4/4
f 1206/3/4 1202/3/4 1207/3/4
f 1202/4/4 1203/4/4 1208/4/4
f 1207/3/4 1202/3/4 1208/3/4
f 1203/4/4 1130/4/4 1209/4/4
f 1208/4/4 1203/4/4 1209/4/4
f 1204/3/4 1205/3/4 1210/3/4
f 1206/3/4 1207/3/4 1210/3/4
f 1205/3/4 1206/3/4 1210/3/4
f 1208/1/4 1209/1/4 1211/1/4
f 1210/3/4 1207/3/4 1211/3/4
f 1207/1/4 1208/1/4 1211/1/4
f 1204/3/4 1210/3/4 1213/3/4
f 1210/2/4 1211/2/4 1214/2/4
f 1213/3/4 1210/3/4 1214/3/4
f 1214/2/4 1211/2/4 1215/2/4
f 1211/1/4 1209/1/4 1216/1/4
f 1215/2/4 1211/2/4 1216/2/4
f 1216/1/4 1209/1/4 1217/1/4
f 1212/3/4 1213/3/4 1218/3/4
f 1213/3/4 1214/3/4 1218/3/4
f 1214/1/4 1215/1/4 1219/1/4
f 1218/3/4 1214/3/4 1219/3/4
f 1216/2/4 1217/2/4 1220/2/4
f 1219/1/4 1215/1/4 1220/1/4
f 1215/2/4 1216/2/4 1220/2/4
f 1217/1/4 1209/1/4 1221/1/4
f 1220/2/4 1217/2/4 1221/2/4
f 1219/1/4 1220/1/4 1222/1/4
f 1218/1/4 1219/1/4 1222/1/4
f 1220/1/4 1221/1/4 1222/1/4
f 1221/1/4 1209/1/4 1223/1/4
f 1222/1/4 1221/1/4 1223/1/4
f 1212/3/4 1218/3/4 1224/3/4
f 1218/1/4 1222/1/4 1224/1/4
f 1224/1/4 1222/1/4 1225/1/4
f 1225/1/4 1222/1/4 1226/1/4
f 1222/2/4 1223/2/4 1227/2/4
f 1226/1/4 1222/1/4 1227/1/4
f 1212/3/4 1224/3/4 1228/3/4
f 1224/3/4 1225/3/4 1228/3/4
f 1228/3/4 1225/3/4 1229/3/4
f 1227/2/4 1223/2/4 1230/2/4
f 1226/2/4 1227/2/4 1230/2/4
f 1223/1/4 1209/1/4 1231/1/4
f 1230/2/4 1223/2/4 1231/2/4
f 1225/1/4 1226/1/4 1232/1/4
f 1229/3/4 1225/3/4 1232/3/4
f 1226/2/4 1230/2/4 1233/2/4
f 1232/1/4 1226/1/4 1233/1/4
f 1230/1/4 1231/1/4 1234/1/4
f 1233/2/4 1230/2/4 1234/2/4
f 1229/3/4 1232/3/4 1235/3/4
f 1232/3/4 1233/3/4 1235/3/4
f 1233/3/4 1234/3/4 1235/3/4
f 1235/3/4 1234/3/4 1236/3/4
f 1236/3/4 1234/3/4 1237/3/4
f 1234/1/4 1231/1/4 1238/1/4
f 1237/3/4 1234/3/4 1238/3/4
f 1209/4/4 1130/4/4 1239/4/4
f 1238/1/4 1231/1/4 1239/1/4
f 1231/1/4 1209/1/4 1239/1/4
f 1236/4/4 1237/4/4 1241/4/4
f 1237/3/4 1238/3/4 1242/3/4
f 1238/3/4 1239/3/4 1242/3/4
f 1241/4/4 1237/4/4 1242/4/4
f 1242/3/4 1239/3/4 1243/3/4
f 1239/4/4 1130/4/4 1244/4/4
f 1243/3/4 1239/3/4 1244/3/4
f 1240/3/4 1241/3/4 1245/3/4
f 1242/3/4 1243/3/4 1245/3/4
f 1241/3/4 1242/3/4 1245/3/4
f 1243/1/4 1244/1/4 1246/1/4
f 1245/3/4 1243/3/4 1246/3/4
f 1240/3/4 1245/3/4 1248/3/4
f 1245/2/4 1246/2/4 1249/2/4
f 1248/3/4 1245/3/4 1249/3/4
f 1249/2/4 1246/2/4 1250/2/4
f 1246/1/4 1244/1/4 1251/1/4
f 1250/2/4 1246/2/4 1251/2/4
f 1251/1/4 1244/1/4 1252/1/4
f 1247/3/4 1248/3/4 1253/3/4
f 1248/3/4 1249/3/4 1253/3/4
f 1249/1/4 1250/1/4 1254/1/4
f 1253/3/4 1249/3/4 1254/3/4
f 1251/2/4 1252/2/4 1255/2/4
f 1254/1/4 1250/1/4 1255/1/4
f 1250/2/4 1251/2/4 1255/2/4
f 1252/1/4 1244/1/4 1256/1/4
f 1255/2/4 1252/2/4 1256/2/4
f 1254/1/4 1255/1/4 1257/1/4
f 1253/1/4 1254/1/4 1257/1/4
f 1255/1/4 1256/1/4 1257/1/4
f 1256/1/4 1244/1/4 1258/1/4
f 1257/1/4 1256/1/4 1258/1/4
f 1247/3/4 1253/3/4 1259/3/4
f 1253/1/4 1257/1/4 1259/1/4
f 1259/1/4 1257/1/4 1260/1/4
f 1260/1/4 1257/1/4 1261/1/4
f 1257/2/4 1258/2/4 1262/2/4
f 1261/1/4 1257/1/4 1262/1/4
f 1247/3/4 1259/3/4 1263/3/4
f 1259/3/4 1260/3/4 1263/3/4
f 1263/3/4 1260/3/4 1264/3/4
f 1262/2/4 1258/2/4 1265/2/4
f 1261/2/4 1262/2/4 1265/2/4
f 1258/1/4 1244/1/4 1266/1/4
f 1265/2/4 1258/2/4 1266/2/4
f 1260/1/4 1261/1/4 1267/1/4
f 1264/3/4 1260/3/4 1267/3/4
f 1261/2/4 1265/2/4 1268/2/4
f 1267/1/4 1261/1/4 1268/1/4
f 1265/1/4 1266/1/4 1269/1/4
f 1268/2/4 1265/2/4 1269/2/4
f 1264/3/4 1267/3/4 1270/3/4
f 1267/3/4 1268/3/4 1270/3/4
f 1268/3/4 1269/3/4 1270/3/4
f 1270/3/4 1269/3/4 1271/3/4
f 1271/3/4 1269/3/4 1272/3/4
f 1269/1/4 1266/1/4 1273/1/4
f 1272/3/4 1269/3/4 1273/3/4
f 1266/1/4 1244/1/4 1274/1/4
f 1273/1/4 1266/1/4 1274/1/4
f 1244/4/4 1130/4/4 1275/4/4
f 1274/1/4 1244/1/4 1275/1/4
f 1271/4/4 1272/4/4 1277/4/4
f 1273/3/4 1274/3/4 1278/3/4
f 1272/3/4 1273/3/4 1278/3/4
f 1277/4/4 1272/4/4 1278/4/4
f 1278/3/4 1274/3/4 1279/3/4
f 1274/4/4 1275/4/4 1280/4/4
f 1279/3/4 1274/3/4 1280/3/4
f 1275/4/4 1130/4/4 1281/4/4
f 1280/4/4 1275/4/4 1281/4/4
f 1276/3/4 1277/3/4 1282/3/4
f 1278/3/4 1279/3/4 1282/3/4
f 1277/3/4 1278/3/4 1282/3/4
f 1280/1/4 1281/1/4 1283/1/4
f 1282/3/4 1279/3/4 1283/3/4
f 1279/1/4 1280/1/4 1283/1/4
f 1276/3/4 1282/3/4 1285/3/4
f 1282/2/4 1283/2/4 1286/2/4
f 1285/3/4 1282/3/4 1286/3/4
f 1286/2/4 1283/2/4 1287/2/4
f 1283/1/4 1281/1/4 1288/1/4
f 1287/2/4 1283/2/4 1288/2/4
f 1288/1/4 1281/1/4 1289/1/4
f 1284/3/4 1285/3/4 1290/3/4
f 1285/3/4 1286/3/4 1290/3/4
f 1286/1/4 1287/1/4 1291/1/4
f 1290/3/4 1286/3/4 1291/3/4
f 1288/2/4 1289/2/4 1292/2/4
f 1291/1/4 1287/1/4 1292/1/4
f 1287/2/4 1288/2/4 1292/2/4
f 1289/1/4 1281/1/4 1293/1/4
f 1292/2/4 1289/2/4 1293/2/4
f 1291/1/4 1292/1/4 1294/1/4
f 1290/1/4 1291/1/4 1294/1/4
f 1292/1/4 1293/1/4 1294/1/4
f 1293/1/4 1281/1/4 1295/1/4
f 1294/1/4 1293/1/4 1295/1/4
f 1284/3/4 1290/3/4 1296/3/4
f 1290/1/4 1294/1/4 1296/1/4
f 1296/1/4 1294/1/4 1297/1/4
f 1297/1/4 1294/1/4 1298/1/4
f 1294/2/4 1295/2/4 1299/2/4
f 1298/1/4 1294/1/4 1299/1/4
f 1284/3/4 1296/3/4 1300/3/4
f 1296/3/4 1297/3/4 1300/3/4
f 1300/3/4 1297/3/4 1301/3/4
f 1299/2/4 1295/2/4 1302/2/4
f 1298/2/4 1299/2/4 1302/2/4
f 1295/1/4 1281/1/4 1303/1/4
f 1302/2/4 1295/2/4 1303/2/4
f 1297/1/4 1298/1/4 1304/1/4
f 1301/3/4 1297/3/4 1304/3/4
f 1298/2/4 1302/2/4 1305/2/4
f 1304/1/4 1298/1/4 1305/1/4
f 1302/1/4 1303/1/4 1306/1/4
f 1305/2/4 1302/2/4 1306/2/4
f 1301/3/4 1304/3/4 1307/3/4
f 1304/3/4 1305/3/4 1307/3/4
f 1305/3/4 1306/3/4 1307/3/4
f 1307/3/4 1306/3/4 1308/3/4
f 1308/3/4 1306/3/4 1309/3/4
f 1306/1/4 1303/1/4 1310/1/4
f 1309/3/4 1306/3/4 1310/3/4
f 1281/4/4 1130/4/4 1311/4/4
f 1310/1/4 1303/1/4 1311/1/4
f 1303/1/4 1281/1/4 1311/1/4
f 1308/4/4 1309/4/4 1313/4/4
f 1309/3/4 1310/3/4 1314/3/4
f 1310/3/4 1311/3/4 1314/3/4
f 1313/4/4 1309/4/4 1314/4/4
f 1314/3/4 1311/3/4 1315/3/4
f 1311/4/4 1130/4/4 1316/4/4
f 1315/3/4 1311/3/4 1316/3/4
f 1312/3/4 1313/3/4 1317/3/4
f 1314/3/4 1315/3/4 1317/3/4
f 1313/3/4 1314/3/4 1317/3/4
f 1315/1/4 1316/1/4 1318/1/4
f 1317/3/4 1315/3/4 1318/3/4
f 1312/3/4 1317/3/4 1320/3/4
f 1317/2/4 1318/2/4 1321/2/4
f 1320/3/4 1317/3/4 1321/3/4
f 1321/2/4 1318/2/4 1322/2/4
f 1318/1/4 1316/1/4 1323/1/4
f 1322/2/4 1318/2/4 1323/2/4
f 1323/1/4 1316/1/4 1324/1/4
f 1319/4/4 1320/4/4 1325/4/4
f 1320/3/4 1321/3/4 1325/3/4
f 1321/1/4 1322/1/4 1326/1/4
f 1325/3/4 1321/3/4 1326/3/4
f 1323/2/4 1324/2/4 1327/2/4
f 1326/1/4 1322/1/4 1327/1/4
f 1322/2/4 1323/2/4 1327/2/4
f 1324/1/4 1316/1/4 1328/1/4
f 1327/2/4 1324/2/4 1328/2/4
f 1319/4/4 1325/4/4 1330/4/4
f 1326/1/4 1327/1/4 1331/1/4
f 1325/1/4 1326/1/4 1331/1/4
f 1327/1/4 1328/1/4 1331/1/4
f 1328/1/4 1316/1/4 1332/1/4
f 1331/1/4 1328/1/4 1332/1/4
f 1329/4/4 1330/4/4 1333/4/4
f 1330/4/4 1325/4/4 1334/4/4
f 1333/4/4 1330/4/4 1334/4/4
f 1325/1/4 1331/1/4 1335/1/4
f 1334/4/4 1325/4/4 1335/4/4
f 1335/1/4 1331/1/4 1336/1/4
f 1336/1/4 1331/1/4 1337/1/4
f 1331/2/4 1332/2/4 1338/2/4
f 1337/1/4 1331/1/4 1338/1/4
f 1337/2/4 1338/2/4 1339/2/4
f 1338/2/4 1332/2/4 1339/2/4
f 1332/1/4 1316/1/4 1340/1/4
f 1339/2/4 1332/2/4 1340/2/4
f 1336/1/4 1337/1/4 1341/1/4
f 1335/3/4 1336/3/4 1341/3/4
f 1337/2/4 1339/2/4 1342/2/4
f 1341/1/4 1337/1/4 1342/1/4
f 1339/1/4 1340/1/4 1343/1/4
f 1342/2/4 1339/2/4 1343/2/4
f 1333/3/4 1334/3/4 1344/3/4
f 1329/4/4 1333/4/4 1344/4/4
f 1334/4/4 1335/4/4 1345/4/4
f 1344/3/4 1334/3/4 1345/3/4
f 1335/3/4 1341/3/4 1346/3/4
f 1345/4/4 1335/4/4 1346/4/4
f 1342/3/4 1343/3/4 1346/3/4
f 1341/3/4 1342/3/4 1346/3/4
f 1343/1/4 1340/1/4 1347/1/4
f 1346/3/4 1343/3/4 1347/3/4
f 1316/4/4 1130/4/4 1348/4/4
f 1347/1/4 1340/1/4 1348/1/4
f 1340/1/4 1316/1/4 1348/1/4
f 1346/4/4 1347/4/4 1349/4/4
f 1345/4/4 1346/4/4 1349/4/4
f 1347/4/4 1348/4/4 1349/4/4
f 1344/4/4 1345/4/4 1349/4/4
f 1329/4/4 1344/4/4 1349/4/4
f 1348/4/4 1130/4/4 1350/4/4
f 1349/4/4 1348/4/4 1350/4/4
f 1355/4/5 1352/4/5 1351/4/5
f 1356/4/5 1352/4/5 1355/4/5
f 1357/4/5 1352/4/5 1356/4/5
f 1358/4/5 1354/4/5 1353/4/5
f 1359/4/5 1354/4/5 1358/4/5
f 1360/4/5 1354/4/5 1359/4/5
f 1361/1/5 1356/1/5 1355/1/5
f 1361/3/5 1357/3/5 1356/3/5
f 1362/4/5 1352/4/5 1357/4/5
f 1362/3/5 1357/3/5 1361/3/5
f 1363/4/5 1352/4/5 1362/4/5
f 1364/4/5 1358/4/5 1353/4/5
f 1365/3/5 1359/3/5 1358/3/5
f 1365/4/5 1358/4/5 1364/4/5
f 1366/1/5 1360/1/5 1359/1/5
f 1366/3/5 1359/3/5 1365/3/5
f 1367/1/5 1361/1/5 1355/1/5
f 1367/4/5 1355/4/5 1351/4/5
f 1368/1/5 1361/1/5 1367/1/5
f 1369/4/5 1362/4/5 1361/4/5
f 1369/1/5 1361/1/5 1368/1/5
f 1370/1/5 1360/1/5 1366/1/5
f 1370/4/5 1366/4/5 1365/4/5
f 1371/1/5 1360/1/5 1370/1/5
f 1372/4/5 1354/4/5 1360/4/5
f 1372/1/5 1360/1/5 1371/1/5
f 1373/3/5 1368/3/5 1367/3/5
f 1373/4/5 1367/4/5 1351/4/5
f 1374/4/5 1369/4/5 1368/4/5
f 1374/3/5 1368/3/5 1373/3/5
f 1375/4/5 1362/4/5 1369/4/5
f 1375/4/5 1369/4/5 1374/4/5
f 1376/4/5 1371/4/5 1370/4/5
f 1376/4/5 1370/4/5 1365/4/5
f 1377/3/5 1372/3/5 1371/3/5
f 1377/4/5 1371/4/5 1376/4/5
f 1378/4/5 1354/4/5 1372/4/5
f 1378/3/5 1372/3/5 1377/3/5
f 1379/4/5 1374/4/5 1373/4/5
f 1379/4/5 1373/4/5 1351/4/5
f 1380/4/5 1374/4/5 1379/4/5
f 1381/4/5 1378/4/5 1377/4/5
f 1382/4/5 1354/4/5 1378/4/5
f 1382/4/5 1378/4/5 1381/4/5
f 1387/4/5 1384/4/5 1383/4/5
f 1388/4/5 1384/4/5 1387/4/5
f 1391/4/5 1386/4/5 1385/4/5
f 1392/4/5 1386/4/5 1391/4/5
f 1393/4/5 1387/4/5 1383/4/5
f 1393/3/5 1388/3/5 1387/3/5
f 1394/4/5 1389/4/5 1388/4/5
f 1394/3/5 1388/3/5 1393/3/5
f 1395/4/5 1389/4/5 1394/4/5
f 1396/4/5 1391/4/5 1390/4/5
f 1397/3/5 1392/3/5 1391/3/5
f 1397/4/5 1391/4/5 1396/4/5
f 1398/4/5 1386/4/5 1392/4/5
f 1398/3/5 1392/3/5 1397/3/5
f 1399/4/5 1389/4/5 1395/4/5
f 1399/1/5 1394/1/5 1393/1/5
f 1399/1/5 1395/1/5 1394/1/5
f 1400/4/5 1389/4/5 1399/4/5
f 1403/4/5 1396/4/5 1390/4/5
f 1404/1/5 1397/1/5 1396/1/5
f 1404/1/5 1398/1/5 1397/1/5
f 1404/4/5 1396/4/5 1403/4/5
f 1405/4/5 1393/4/5 1383/4/5
f 1405/1/5 1399/1/5 1393/1/5
f 1406/3/5 1400/3/5 1399/3/5
f 1406/1/5 1399/1/5 1405/1/5
f 1407/4/5 1401/4/5 1400/4/5
f 1407/3/5 1400/3/5 1406/3/5
f 1408/4/5 1403/4/5 1402/4/5
f 1408/3/5 1404/3/5 1403/3/5
f 1409/1/5 1398/1/5 1404/1/5
f 1409/3/5 1404/3/5 1408/3/5
f 1410/4/5 1386/4/5 1398/4/5
f 1410/1/5 1398/1/5 1409/1/5
f 1411/4/5 1406/4/5 1405/4/5
f 1411/4/5 1407/4/5 1406/4/5
f 1411/4/5 1405/4/5 1383/4/5
f 1412/4/5 1401/4/5 1407/4/5
f 1412/4/5 1407/4/5 1411/4/5
f 1413/4/5 1408/4/5 1402/4/5
f 1413/4/5 1409/4/5 1408/4/5
f 1413/4/5 1410/4/5 1409/4/5
f 1414/4/5 1386/4/5 1410/4/5
f 1414/4/5 1410/4/5 1413/4/5
f 1419/4/5 1416/4/5 1415/4/5
f 1420/4/5 1416/4/5 1419/4/5
f 1421/4/5 1418/4/5 1417/4/5
f 1422/4/5 1418/4/5 1421/4/5
f 1427/4/5 1424/4/5 1423/4/5
f 1428/4/5 1424/4/5 1427/4/5
f 1429/4/5 1426/4/5 1425/4/5
f 1430/4/5 1426/4/5 1429/4/5
f 1435/4/5 1432/4/5 1431/4/5
f 1436/4/5 1432/4/5 1435/4/5
f 1437/4/5 1434/4/5 1433/4/5
f 1438/4/5 1434/4/5 1437/4/5
f 1443/4/5 1440/4/5 1439/4/5
f 1444/4/5 1440/4/5 1443/4/5
f 1445/4/5 1442/4/5 1441/4/5
f 1446/4/5 1442/4/5 1445/4/5
f 1451/4/5 1448/4/5 1447/4/5
f 1452/4/5 1448/4/5 1451/4/5
f 1453/4/5 1450/4/5 1449/4/5
f 1454/4/5 1450/4/5 1453/4/5
f 1459/4/5 1456/4/5 1455/4/5
f 1460/4/5 1456/4/5 1459/4/5
f 1461/4/5 1458/4/5 1457/4/5
f 1462/4/5 1458/4/5 1461/4/5
f 1467/4/5 1464/4/5 1463/4/5
f 1468/4/5 1464/4/5 1467/4/5
f 1469/4/5 1466/4/5 1465/4/5
f 1470/4/5 1466/4/5 1469/4/5
f 1475/4/5 1472/4/5 1471/4/5
f 1476/4/5 1472/4/5 1475/4/5
f 1477/4/5 1474/4/5 1473/4/5
f 1478/4/5 1474/4/5 1477/4/5
f 1483/4/5 1480/4/5 1479/4/5
f 1484/4/5 1480/4/5 1483/4/5
f 1485/4/5 1482/4/5 1481/4/5
f 1486/4/5 1482/4/5 1485/4/5
f 1491/4/5 1488/4/5 1487/4/5
f 1492/4/5 1488/4/5 1491/4/5
f 1493/4/5 1490/4/5 1489/4/5
f 1494/4/5 1490/4/5 1493/4/5
f 1499/4/5 1496/4/5 1495/4/5
f 1500/4/5 1496/4/5 1499/4/5
f 1501/4/5 1498/4/5 1497/4/5
f 1502/4/5 1498/4/5 1501/4/5
f 1507/4/5 1504/4/5 1503/4/5
f 1508/4/5 1504/4/5 1507/4/5
f 1509/4/5 1506/4/5 1505/4/5
f 1510/4/5 1506/4/5 1509/4/5
f 1523/4/5 1512/4/5 1511/4/5
f 1524/4/5 1512/4/5 1523/4/5
f 1525/4/5 1522/4/5 1521/4/5
f 1526/4/5 1522/4/5 1525/4/5
f 1528/3/5 1524/3/5 1523/3/5
f 1529/3/5 1526/3/5 1525/3/5
f 1531/3/5 1528/3/5 1527/3/5
f 1532/4/5 1512/4/5 1524/4/5
f 1532/3/5 1528/3/5 1531/3/5
f 1532/3/5 1524/3/5 1528/3/5
f 1533/3/5 1529/3/5 1525/3/5
f 1533/4/5 1525/4/5 1521/4/5
f 1533/3/5 1530/3/5 1529/3/5
f 1534/3/5 1530/3/5 1533/3/5
f 1536/4/5 1532/4/5 1531/4/5
f 1537/4/5 1512/4/5 1532/4/5
f 1537/4/5 1532/4/5 1536/4/5
f 1538/4/5 1533/4/5 1521/4/5
f 1538/4/5 1534/4/5 1533/4/5
f 1539/4/5 1534/4/5 1538/4/5
f 1541/3/5 1536/3/5 1535/3/5
f 1541/3/5 1537/3/5 1536/3/5
f 1542/3/5 1537/3/5 1541/3/5
f 1543/3/5 1537/3/5 1542/3/5
f 1544/3/5 1514/3/5 1513/3/5
f 1545/3/5 1514/3/5 1544/3/5
f 1546/3/5 1516/3/5 1515/3/5
f 1547/3/5 1516/3/5 1546/3/5
f 1548/3/5 1518/3/5 1517/3/5
f 1549/3/5 1518/3/5 1548/3/5
f 1550/3/5 1520/3/5 1519/3/5
f 1551/3/5 1520/3/5 1550/3/5
f 1552/3/5 1540/3/5 1539/3/5
f 1552/3/5 1539/3/5 1538/3/5
f 1553/3/5 1540/3/5 1552/3/5
f 1554/3/5 1540/3/5 1553/3/5
f 1556/4/5 1543/4/5 1542/4/5
f 1557/4/5 1543/4/5 1556/4/5
f 1558/4/5 1545/4/5 1544/4/5
f 1559/4/5 1545/4/5 1558/4/5
f 1560/4/5 1547/4/5 1546/4/5
f 1561/4/5 1547/4/5 1560/4/5
f 1562/4/5 1549/4/5 1548/4/5
f 1563/4/5 1549/4/5 1562/4/5
f 1564/4/5 1551/4/5 1550/4/5
f 1565/4/5 1551/4/5 1564/4/5
f 1566/4/5 1553/4/5 1552/4/5
f 1567/4/5 1553/4/5 1566/4/5
f 1569/3/5 1557/3/5 1556/3/5
f 1569/3/5 1556/3/5 1555/3/5
f 1570/3/5 1557/3/5 1569/3/5
f 1571/3/5 1557/3/5 1570/3/5
f 1572/3/5 1559/3/5 1558/3/5
f 1573/3/5 1559/3/5 1572/3/5
f 1574/3/5 1561/3/5 1560/3/5
f 1575/3/5 1561/3/5 1574/3/5
f 1576/3/5 1563/3/5 1562/3/5
f 1577/3/5 1563/3/5 1576/3/5
f 1578/3/5 1565/3/5 1564/3/5
f 1579/3/5 1565/3/5 1578/3/5
f 1580/3/5 1568/3/5 1567/3/5
f 1580/3/5 1567/3/5 1566/3/5
f 1581/3/5 1568/3/5 1580/3/5
f 1582/3/5 1568/3/5 1581/3/5
f 1584/4/5 1571/4/5 1570/4/5
f 1585/4/5 1571/4/5 1584/4/5
f 1586/4/5 1573/4/5 1572/4/5
f 1587/4/5 1573/4/5 1586/4/5
f 1588/4/5 1575/4/5 1574/4/5
f 1589/4/5 1575/4/5 1588/4/5
f 1590/4/5 1577/4/5 1576/4/5
f 1591/4/5 1577/4/5 1590/4/5
f 1592/4/5 1579/4/5 1578/4/5
f 1593/4/5 1579/4/5 1592/4/5
f 1594/4/5 1581/4/5 1580/4/5
f 1595/4/5 1581/4/5 1594/4/5
f 1597/3/5 1585/3/5 1584/3/5
f 1597/3/5 1584/3/5 1583/3/5
f 1598/3/5 1585/3/5 1597/3/5
f 1599/3/5 1585/3/5 1598/3/5
f 1600/3/5 1596/3/5 1595/3/5
f 1600/3/5 1595/3/5 1594/3/5
f 1601/3/5 1596/3/5 1600/3/5
f 1602/3/5 1596/3/5 1601/3/5
f 1603/4/5 1599/4/5 1598/4/5
f 1604/4/5 1599/4/5 1603/4/5
f 1605/4/5 1601/4/5 1600/4/5
f 1606/4/5 1601/4/5 1605/4/5
f 1607/3/5 1604/3/5 1603/3/5
f 1608/3/5 1604/3/5 1607/3/5
f 1609/3/5 1606/3/5 1605/3/5
f 1610/3/5 1606/3/5 1609/3/5
f 1611/3/5 1604/3/5 1608/3/5
f 1612/4/5 1599/4/5 1604/4/5
f 1612/3/5 1604/3/5 1611/3/5
f 1613/4/5 1605/4/5 1600/4/5
f 1613/3/5 1609/3/5 1605/3/5
f 1614/3/5 1609/3/5 1613/3/5
f 1615/4/5 1612/4/5 1611/4/5
f 1616/4/5 1599/4/5 1612/4/5
f 1616/4/5 1612/4/5 1615/4/5
f 1617/3/5 1587/3/5 1586/3/5
f 1618/3/5 1587/3/5 1617/3/5
f 1619/3/5 1589/3/5 1588/3/5
f 1620/3/5 1589/3/5 1619/3/5
f 1621/3/5 1591/3/5 1590/3/5
f 1622/3/5 1591/3/5 1621/3/5
f 1623/3/5 1593/3/5 1592/3/5
f 1624/3/5 1593/3/5 1623/3/5
f 1625/4/5 1613/4/5 1600/4/5
f 1625/4/5 1614/4/5 1613/4/5
f 1626/4/5 1614/4/5 1625/4/5
f 1649/3/5 1628/3/5 1627/3/5
f 1650/3/5 1646/3/5 1645/3/5
f 1654/3/5 1648/3/5 1647/3/5
f 1655/3/5 1652/3/5 1651/3/5
f 1657/3/5 1654/3/5 1653/3/5
f 1658/3/5 1648/3/5 1654/3/5
f 1658/3/5 1654/3/5 1657/3/5
f 1659/3/5 1628/3/5 1649/3/5
f 1660/3/5 1628/3/5 1659/3/5
f 1661/3/5 1630/3/5 1629/3/5
f 1662/3/5 1630/3/5 1661/3/5
f 1663/3/5 1632/3/5 1631/3/5
f 1664/3/5 1632/3/5 1663/3/5
f 1665/3/5 1634/3/5 1633/3/5
f 1666/3/5 1634/3/5 1665/3/5
f 1667/3/5 1636/3/5 1635/3/5
f 1668/3/5 1636/3/5 1667/3/5
f 1669/3/5 1638/3/5 1637/3/5
f 1670/3/5 1638/3/5 1669/3/5
f 1671/3/5 1640/3/5 1639/3/5
f 1672/3/5 1640/3/5 1671/3/5
f 1673/3/5 1642/3/5 1641/3/5
f 1674/3/5 1642/3/5 1673/3/5
f 1675/3/5 1644/3/5 1643/3/5
f 1676/3/5 1644/3/5 1675/3/5
f 1677/3/5 1650/3/5 1645/3/5
f 1678/3/5 1650/3/5 1677/3/5
f 1679/3/5 1656/3/5 1655/3/5
f 1679/3/5 1655/3/5 1651/3/5
f 1680/3/5 1656/3/5 1679/3/5
f 1681/4/5 1658/4/5 1657/4/5
f 1682/4/5 1658/4/5 1681/4/5
f 1683/4/5 1660/4/5 1659/4/5
f 1684/4/5 1660/4/5 1683/4/5
f 1685/4/5 1662/4/5 1661/4/5
f 1686/4/5 1662/4/5 1685/4/5
f 1687/4/5 1664/4/5 1663/4/5
f 1688/4/5 1664/4/5 1687/4/5
f 1689/4/5 1666/4/5 1665/4/5
f 1690/4/5 1666/4/5 1689/4/5
f 1691/4/5 1668/4/5 1667/4/5
f 1692/4/5 1668/4/5 1691/4/5
f 1693/4/5 1670/4/5 1669/4/5
f 1694/4/5 1670/4/5 1693/4/5
f 1695/4/5 1672/4/5 1671/4/5
f 1696/4/5 1672/4/5 1695/4/5
f 1697/4/5 1674/4/5 1673/4/5
f 1698/4/5 1674/4/5 1697/4/5
f 1699/4/5 1676/4/5 1675/4/5
f 1700/4/5 1676/4/5 1699/4/5
f 1701/4/5 1678/4/5 1677/4/5
f 1702/4/5 1678/4/5 1701/4/5
f 1703/4/5 1680/4/5 1679/4/5
f 1704/4/5 1680/4/5 1703/4/5
f 1705/3/5 1682/3/5 1681/3/5
f 1706/3/5 1682/3/5 1705/3/5
f 1707/3/5 1684/3/5 1683/3/5
f 1708/3/5 1684/3/5 1707/3/5
f 1709/3/5 1686/3/5 1685/3/5
f 1710/3/5 1686/3/5 1709/3/5
f 1711/3/5 1688/3/5 1687/3/5
f 1712/3/5 1688/3/5 1711/3/5
f 1713/3/5 1690/3/5 1689/3/5
f 1714/3/5 1690/3/5 1713/3/5
f 1715/3/5 1692/3/5 1691/3/5
f 1716/3/5 1692/3/5 1715/3/5
f 1717/3/5 1694/3/5 1693/3/5
f 1718/3/5 1694/3/5 1717/3/5
f 1719/3/5 1696/3/5 1695/3/5
f 1720/3/5 1696/3/5 1719/3/5
f 1721/3/5 1698/3/5 1697/3/5
f 1722/3/5 1698/3/5 1721/3/5
f 1723/3/5 1700/3/5 1699/3/5
f 1724/3/5 1700/3/5 1723/3/5
f 1725/3/5 1702/3/5 1701/3/5
f 1726/3/5 1702/3/5 1725/3/5
f 1727/3/5 1704/3/5 1703/3/5
f 1728/3/5 1704/3/5 1727/3/5
f 1729/4/5 1706/4/5 1705/4/5
f 1730/4/5 1706/4/5 1729/4/5
f 1731/4/5 1708/4/5 1707/4/5
f 1732/4/5 1708/4/5 1731/4/5
f 1733/4/5 1710/4/5 1709/4/5
f 1734/4/5 1710/4/5 1733/4/5
f 1735/4/5 1712/4/5 1711/4/5
f 1736/4/5 1712/4/5 1735/4/5
f 1737/4/5 1714/4/5 1713/4/5
f 1738/4/5 1714/4/5 1737/4/5
f 1739/4/5 1716/4/5 1715/4/5
f 1740/4/5 1716/4/5 1739/4/5
f 1741/4/5 1718/4/5 1717/4/5
f 1742/4/5 1718/4/5 1741/4/5
f 1743/4/5 1720/4/5 1719/4/5
f 1744/4/5 1720/4/5 1743/4/5
f 1745/4/5 1722/4/5 1721/4/5
f 1746/4/5 1722/4/5 1745/4/5
f 1747/4/5 1724/4/5 1723/4/5
f 1748/4/5 1724/4/5 1747/4/5
f 1749/4/5 1726/4/5 1725/4/5
f 1750/4/5 1726/4/5 1749/4/5
f 1751/4/5 1728/4/5 1727/4/5
f 1752/4/5 1728/4/5 1751/4/5
f 1753/3/5 1730/3/5 1729/3/5
f 1754/3/5 1730/3/5 1753/3/5
f 1755/3/5 1752/3/5 1751/3/5
f 1756/3/5 1752/3/5 1755/3/5
f 1757/3/5 1730/3/5 1754/3/5
f 1758/3/5 1730/3/5 1757/3/5
f 1759/3/5 1732/3/5 1731/3/5
f 1760/3/5 1750/3/5 1749/3/5
f 1761/3/5 1755/3/5 1751/3/5
f 1762/3/5 1755/3/5 1761/3/5
f 1763/3/5 1732/3/5 1759/3/5
f 1764/3/5 1732/3/5 1763/3/5
f 1765/3/5 1734/3/5 1733/3/5
f 1766/3/5 1734/3/5 1765/3/5
f 1767/3/5 1736/3/5 1735/3/5
f 1768/3/5 1736/3/5 1767/3/5
f 1769/3/5 1738/3/5 1737/3/5
f 1770/3/5 1738/3/5 1769/3/5
f 1771/3/5 1740/3/5 1739/3/5
f 1772/3/5 1740/3/5 1771/3/5
f 1773/3/5 1742/3/5 1741/3/5
f 1774/3/5 1742/3/5 1773/3/5
f 1775/3/5 1744/3/5 1743/3/5
f 1776/3/5 1744/3/5 1775/3/5
f 1777/3/5 1746/3/5 1745/3/5
f 1778/3/5 1746/3/5 1777/3/5
f 1779/3/5 1748/3/5 1747/3/5
f 1780/3/5 1748/3/5 1779/3/5
f 1781/3/5 1760/3/5 1749/3/5
f 1782/3/5 1760/3/5 1781/3/5
f 1793/4/5 1784/4/5 1783/4/5
f 1794/4/5 1784/4/5 1793/4/5
f 1795/4/5 1786/4/5 1785/4/5
f 1796/4/5 1786/4/5 1795/4/5
f 1797/4/5 1788/4/5 1787/4/5
f 1798/4/5 1788/4/5 1797/4/5
f 1799/4/5 1790/4/5 1789/4/5
f 1800/4/5 1790/4/5 1799/4/5
f 1801/4/5 1792/4/5 1791/4/5
f 1802/4/5 1792/4/5 1801/4/5
f 1807/4/5 1804/4/5 1803/4/5
f 1808/4/5 1806/4/5 1805/4/5
f 1809/4/5 1807/4/5 1803/4/5
f 1810/4/5 1806/4/5 1808/4/5
f 1811/4/5 1809/4/5 1803/4/5
f 1812/4/5 1806/4/5 1810/4/5
f 1813/4/5 1811/4/5 1803/4/5
f 1814/4/5 1806/4/5 1812/4/5
f 1815/4/5 1813/4/5 1803/4/5
f 1816/4/5 1813/4/5 1815/4/5
f 1817/4/5 1806/4/5 1814/4/5
f 1818/4/5 1806/4/5 1817/4/5
f 1829/4/5 1820/4/5 1819/4/5
f 1830/4/5 1820/4/5 1829/4/5
f 1831/4/5 1822/4/5 1821/4/5
f 1832/4/5 1822/4/5 1831/4/5
f 1833/4/5 1824/4/5 1823/4/5
f 1834/4/5 1824/4/5 1833/4/5
f 1835/4/5 1826/4/5 1825/4/5
f 1836/4/5 1826/4/5 1835/4/5
f 1837/4/5 1828/4/5 1827/4/5
f 1838/4/5 1828/4/5 1837/4/5
f 1849/3/5 1840/3/5 1839/3/5
f 1850/3/5 1840/3/5 1849/3/5
f 1851/3/5 1842/3/5 1841/3/5
f 1852/3/5 1842/3/5 1851/3/5
f 1853/3/5 1844/3/5 1843/3/5
f 1854/3/5 1844/3/5 1853/3/5
f 1855/3/5 1846/3/5 1845/3/5
f 1856/3/5 1846/3/5 1855/3/5
f 1857/3/5 1848/3/5 1847/3/5
f 1858/3/5 1848/3/5 1857/3/5
f 1859/4/5 1850/4/5 1849/4/5
f 1860/4/5 1850/4/5 1859/4/5
f 1861/4/5 1852/4/5 1851/4/5
f 1862/4/5 1852/4/5 1861/4/5
f 1863/4/5 1854/4/5 1853/4/5
f 1864/4/5 1854/4/5 1863/4/5
f 1865/4/5 1856/4/5 1855/4/5
f 1866/4/5 1856/4/5 1865/4/5
f 1867/4/5 1858/4/5 1857/4/5
f 1868/4/5 1858/4/5 1867/4/5
f 1869/3/5 1860/3/5 1859/3/5
f 1870/3/5 1860/3/5 1869/3/5
f 1871/3/5 1862/3/5 1861/3/5
f 1872/3/5 1862/3/5 1871/3/5
f 1873/3/5 1864/3/5 1863/3/5
f 1874/3/5 1864/3/5 1873/3/5
f 1875/3/5 1866/3/5 1865/3/5
f 1876/3/5 1866/3/5 1875/3/5
f 1877/3/5 1868/3/5 1867/3/5
f 1878/3/5 1868/3/5 1877/3/5
f 1879/4/5 1870/4/5 1869/4/5
f 1880/4/5 1870/4/5 1879/4/5
f 1881/4/5 1872/4/5 1871/4/5
f 1882/4/5 1872/4/5 1881/4/5
f 1883/4/5 1874/4/5 1873/4/5
f 1884/4/5 1874/4/5 1883/4/5
f 1885/4/5 1876/4/5 1875/4/5
f 1886/4/5 1876/4/5 1885/4/5
f 1887/4/5 1878/4/5 1877/4/5
f 1888/4/5 1878/4/5 1887/4/5
f 1889/3/5 1880/3/5 1879/3/5
f 1890/3/5 1880/3/5 1889/3/5
f 1891/3/5 1882/3/5 1881/3/5
f 1892/3/5 1882/3/5 1891/3/5
f 1893/3/5 1884/3/5 1883/3/5
f 1894/3/5 1884/3/5 1893/3/5
f 1895/3/5 1886/3/5 1885/3/5
f 1896/3/5 1886/3/5 1895/3/5
f 1897/3/5 1888/3/5 1887/3/5
f 1898/3/5 1888/3/5 1897/3/5
f 1899/4/6 1900/4/6 1903/4/6
f 1903/4/6 1900/4/6 1904/4/6
f 1901/4/6 1902/4/6 1905/4/6
f 1905/4/6 1902/4/6 1906/4/6
f 1907/4/6 1908/4/6 1911/4/6
f 1911/4/6 1908/4/6 1912/4/6
f 1909/4/6 1910/4/6 1913/4/6
f 1913/4/6 1910/4/6 1914/4/6
f 1915/4/6 1916/4/6 1919/4/6
f 1919/4/6 1916/4/6 1920/4/6
f 1917/4/6 1918/4/6 1921/4/6
f 1921/4/6 1918/4/6 1922/4/6
f 1923/4/6 1924/4/6 1927/4/6
f 1927/4/6 1924/4/6 1928/4/6
f 1925/4/6 1926/4/6 1929/4/6
f 1929/4/6 1926/4/6 1930/4/6
f 1931/4/6 1932/4/6 1935/4/6
f 1935/4/6 1932/4/6 1936/4/6
f 1933/4/6 1934/4/6 1937/4/6
f 1937/4/6 1934/4/6 1938/4/6
f 1939/4/6 1940/4/6 1943/4/6
f 1943/4/6 1940/4/6 1944/4/6
f 1941/4/6 1942/4/6 1945/4/6
f 1945/4/6 1942/4/6 1946/4/6
f 1947/4/6 1948/4/6 1949/4/6
f 1949/4/6 1948/4/6 1950/4/6
f 1949/3/6 1950/3/6 1951/3/6
f 1951/3/6 1950/3/6 1952/3/6
f 1949/3/6 1951/3/6 1953/3/6
f 1953/3/6 1951/3/6 1954/3/6
f 1952/3/6 1950/3/6 1955/3/6
f 1955/3/6 1950/3/6 1956/3/6
f 1949/3/6 1953/3/6 1957/3/6
f 1953/4/6 1954/4/6 1957/4/6
f 1954/3/6 1951/3/6 1958/3/6
f 1957/4/6 1954/4/6 1958/4/6
f 1955/4/6 1956/4/6 1959/4/6
f 1952/3/6 1955/3/6 1959/3/6
f 1956/3/6 1950/3/6 1960/3/6
f 1959/4/6 1956/4/6 1960/4/6
f 1949/3/6 1957/3/6 1961/3/6
f 1957/3/6 1958/3/6 1961/3/6
f 1951/4/6 1952/4/6 1962/4/6
f 1961/3/6 1958/3/6 1962/3/6
f 1958/3/6 1951/3/6 1962/3/6
f 1952/3/6 1959/3/6 1963/3/6
f 1962/4/6 1952/4/6 1963/4/6
f 1959/3/6 1960/3/6 1963/3/6
f 1960/3/6 1950/3/6 1964/3/6
f 1963/3/6 1960/3/6 1964/3/6
f 1962/4/6 1963/4/6 1965/4/6
f 1949/3/6 1961/3/6 1965/3/6
f 1963/4/6 1964/4/6 1965/4/6
f 1961/4/6 1962/4/6 1965/4/6
f 1965/4/6 1964/4/6 1966/4/6
f 1966/4/6 1964/4/6 1967/4/6
f 1964/3/6 1950/3/6 1968/3/6
f 1967/4/6 1964/4/6 1968/4/6
f 1965/3/6 1966/3/6 1969/3/6
f 1969/3/6 1966/3/6 1970/3/6
f 1967/3/6 1968/3/6 1971/3/6
f 1971/3/6 1968/3/6 1972/3/6
f 1965/3/6 1969/3/6 1973/3/6
f 1969/4/6 1970/4/6 1973/4/6
f 1970/3/6 1966/3/6 1974/3/6
f 1973/4/6 1970/4/6 1974/4/6
f 1971/4/6 1972/4/6 1975/4/6
f 1967/3/6 1971/3/6 1975/3/6
f 1972/3/6 1968/3/6 1976/3/6
f 1975/4/6 1972/4/6 1976/4/6
f 1966/4/6 1967/4/6 1977/4/6
f 1974/3/6 1966/3/6 1977/3/6
f 1973/3/6 1974/3/6 1977/3/6
f 1967/3/6 1975/3/6 1978/3/6
f 1977/4/6 1967/4/6 1978/4/6
f 1975/3/6 1976/3/6 1978/3/6
f 1947/4/6 1949/4/6 1979/4/6
f 1949/3/6 1965/3/6 1979/3/6
f 1977/3/6 1978/3/6 1979/3/6
f 1973/3/6 1977/3/6 1979/3/6
f 1965/3/6 1973/3/6 1979/3/6
f 1978/3/6 1976/3/6 1980/3/6
f 1979/3/6 1978/3/6 1980/3/6
f 1950/4/6 1948/4/6 1980/4/6
f 1968/3/6 1950/3/6 1980/3/6
f 1976/3/6 1968/3/6 1980/3/6
f 1947/4/6 1979/4/6 1981/4/6
f 1979/4/6 1980/4/6 1981/4/6
f 1980/4/6 1948/4/6 1982/4/6
f 1981/4/6 1980/4/6 1982/4/6
