# MagicaVoxel @ Ephtracy

# group
o 

# material
mtllib LogWallMiddle.mtl
usemtl palette

# normals
vn -1 0 0
vn 1 0 0
vn 0 0 1
vn 0 0 -1
vn 0 -1 0
vn 0 1 0

# texcoords
vt 0.201172 0.5
vt 0.369141 0.5
vt 0.537109 0.5
vt 0.982422 0.5

# verts
v -2 0 0.5
v -2 0 0.2
v -2 0 -0.2
v -2 0 -0.5
v -2 0.1 0.4
v -2 0.1 0.2
v -2 0.1 0.1
v -2 0.1 -0.1
v -2 0.1 -0.2
v -2 0.1 -0.4
v -2 0.2 0.3
v -2 0.2 0.2
v -2 0.2 0.1
v -2 0.2 -0.1
v -2 0.2 -0.3
v -2 0.3 0.5
v -2 0.3 0.4
v -2 0.3 0.1
v -2 0.3 0
v -2 0.3 -0.4
v -2 0.3 -0.5
v -2 0.4 0.4
v -2 0.4 0.3
v -2 0.4 0.2
v -2 0.4 0.1
v -2 0.4 -0.1
v -2 0.4 -0.3
v -2 0.4 -0.4
v -2 0.5 0.1
v -2 0.5 0
v -2 0.5 -0.2
v -2 0.5 -0.4
v -2 0.6 0.4
v -2 0.6 0.3
v -2 0.6 0.2
v -2 0.6 0
v -2 0.6 -0.1
v -2 0.6 -0.2
v -2 0.6 -0.3
v -2 0.6 -0.4
v -2 0.7 0.5
v -2 0.7 0.4
v -2 0.7 0.3
v -2 0.7 0.2
v -2 0.7 0.1
v -2 0.7 0
v -2 0.7 -0.1
v -2 0.7 -0.2
v -2 0.7 -0.4
v -2 0.7 -0.5
v -2 0.8 0.3
v -2 0.8 0.1
v -2 0.8 -0.1
v -2 0.8 -0.2
v -2 0.8 -0.3
v -2 0.9 0.4
v -2 0.9 0.2
v -2 0.9 0.1
v -2 0.9 -0.1
v -2 0.9 -0.2
v -2 0.9 -0.4
v -2 1.1 0.4
v -2 1.1 0.2
v -2 1.1 0.1
v -2 1.1 -0.1
v -2 1.1 -0.2
v -2 1.1 -0.4
v -2 1.2 0.3
v -2 1.2 0.2
v -2 1.2 0.1
v -2 1.2 -0.1
v -2 1.2 -0.3
v -2 1.3 0.5
v -2 1.3 0.4
v -2 1.3 0.1
v -2 1.3 0
v -2 1.3 -0.4
v -2 1.3 -0.5
v -2 1.4 0.4
v -2 1.4 0.3
v -2 1.4 0.2
v -2 1.4 0.1
v -2 1.4 -0.1
v -2 1.4 -0.3
v -2 1.4 -0.4
v -2 1.5 0.1
v -2 1.5 0
v -2 1.5 -0.2
v -2 1.5 -0.4
v -2 1.6 0.4
v -2 1.6 0.3
v -2 1.6 0.2
v -2 1.6 0
v -2 1.6 -0.1
v -2 1.6 -0.2
v -2 1.6 -0.3
v -2 1.6 -0.4
v -2 1.7 0.5
v -2 1.7 0.4
v -2 1.7 0.3
v -2 1.7 0.2
v -2 1.7 0.1
v -2 1.7 0
v -2 1.7 -0.1
v -2 1.7 -0.2
v -2 1.7 -0.4
v -2 1.7 -0.5
v -2 1.8 0.3
v -2 1.8 0.1
v -2 1.8 -0.1
v -2 1.8 -0.2
v -2 1.8 -0.3
v -2 1.9 0.4
v -2 1.9 0.2
v -2 1.9 0.1
v -2 1.9 -0.1
v -2 1.9 -0.2
v -2 1.9 -0.4
v -2 2.1 0.4
v -2 2.1 0.2
v -2 2.1 0.1
v -2 2.1 -0.1
v -2 2.1 -0.2
v -2 2.1 -0.4
v -2 2.2 0.3
v -2 2.2 0.2
v -2 2.2 0.1
v -2 2.2 -0.1
v -2 2.2 -0.3
v -2 2.3 0.5
v -2 2.3 0.4
v -2 2.3 0.1
v -2 2.3 0
v -2 2.3 -0.4
v -2 2.3 -0.5
v -2 2.4 0.4
v -2 2.4 0.3
v -2 2.4 0.2
v -2 2.4 0.1
v -2 2.4 -0.1
v -2 2.4 -0.3
v -2 2.4 -0.4
v -2 2.5 0.1
v -2 2.5 0
v -2 2.5 -0.2
v -2 2.5 -0.4
v -2 2.6 0.4
v -2 2.6 0.3
v -2 2.6 0.2
v -2 2.6 0
v -2 2.6 -0.1
v -2 2.6 -0.2
v -2 2.6 -0.3
v -2 2.6 -0.4
v -2 2.7 0.5
v -2 2.7 0.4
v -2 2.7 0.3
v -2 2.7 0.2
v -2 2.7 0.1
v -2 2.7 0
v -2 2.7 -0.1
v -2 2.7 -0.2
v -2 2.7 -0.4
v -2 2.7 -0.5
v -2 2.8 0.3
v -2 2.8 0.1
v -2 2.8 -0.1
v -2 2.8 -0.2
v -2 2.8 -0.3
v -2 2.9 0.4
v -2 2.9 0.2
v -2 2.9 0.1
v -2 2.9 -0.1
v -2 2.9 -0.2
v -2 2.9 -0.4
v -2 3.1 0.4
v -2 3.1 0.2
v -2 3.1 0.1
v -2 3.1 -0.1
v -2 3.1 -0.2
v -2 3.1 -0.4
v -2 3.2 0.3
v -2 3.2 0.2
v -2 3.2 0.1
v -2 3.2 -0.1
v -2 3.2 -0.3
v -2 3.3 0.5
v -2 3.3 0.4
v -2 3.3 0.1
v -2 3.3 0
v -2 3.3 -0.4
v -2 3.3 -0.5
v -2 3.4 0.4
v -2 3.4 0.3
v -2 3.4 0.2
v -2 3.4 0.1
v -2 3.4 -0.1
v -2 3.4 -0.3
v -2 3.4 -0.4
v -2 3.5 0.1
v -2 3.5 0
v -2 3.5 -0.2
v -2 3.5 -0.4
v -2 3.6 0.4
v -2 3.6 0.3
v -2 3.6 0.2
v -2 3.6 0
v -2 3.6 -0.1
v -2 3.6 -0.2
v -2 3.6 -0.3
v -2 3.6 -0.4
v -2 3.7 0.5
v -2 3.7 0.4
v -2 3.7 0.3
v -2 3.7 0.2
v -2 3.7 0.1
v -2 3.7 0
v -2 3.7 -0.1
v -2 3.7 -0.2
v -2 3.7 -0.4
v -2 3.7 -0.5
v -2 3.8 0.3
v -2 3.8 0.1
v -2 3.8 -0.1
v -2 3.8 -0.2
v -2 3.8 -0.3
v -2 3.9 0.4
v -2 3.9 0.2
v -2 3.9 0.1
v -2 3.9 -0.1
v -2 3.9 -0.2
v -2 3.9 -0.4
v -2 4 0.5
v -2 4 0.2
v -2 4 -0.2
v -2 4 -0.5
v 1.8 0 0.5
v 1.8 0 0.2
v 1.8 0 -0.2
v 1.8 0 -0.5
v 1.8 0.1 0.4
v 1.8 0.1 0.2
v 1.8 0.1 -0.2
v 1.8 0.1 -0.4
v 1.8 0.3 0.5
v 1.8 0.3 0.4
v 1.8 0.3 -0.4
v 1.8 0.3 -0.5
v 1.8 0.7 0.5
v 1.8 0.7 0.4
v 1.8 0.7 -0.4
v 1.8 0.7 -0.5
v 1.8 0.9 0.4
v 1.8 0.9 0.2
v 1.8 0.9 -0.2
v 1.8 0.9 -0.4
v 1.8 1.1 0.4
v 1.8 1.1 0.2
v 1.8 1.1 -0.2
v 1.8 1.1 -0.4
v 1.8 1.3 0.5
v 1.8 1.3 0.4
v 1.8 1.3 -0.4
v 1.8 1.3 -0.5
v 1.8 1.7 0.5
v 1.8 1.7 0.4
v 1.8 1.7 -0.4
v 1.8 1.7 -0.5
v 1.8 1.9 0.4
v 1.8 1.9 0.2
v 1.8 1.9 -0.2
v 1.8 1.9 -0.4
v 1.8 2.1 0.4
v 1.8 2.1 0.2
v 1.8 2.1 -0.2
v 1.8 2.1 -0.4
v 1.8 2.3 0.5
v 1.8 2.3 0.4
v 1.8 2.3 -0.4
v 1.8 2.3 -0.5
v 1.8 2.7 0.5
v 1.8 2.7 0.4
v 1.8 2.7 -0.4
v 1.8 2.7 -0.5
v 1.8 2.9 0.4
v 1.8 2.9 0.2
v 1.8 2.9 -0.2
v 1.8 2.9 -0.4
v 1.8 3.1 0.4
v 1.8 3.1 0.2
v 1.8 3.1 -0.2
v 1.8 3.1 -0.4
v 1.8 3.3 0.5
v 1.8 3.3 0.4
v 1.8 3.3 -0.4
v 1.8 3.3 -0.5
v 1.8 3.7 0.5
v 1.8 3.7 0.4
v 1.8 3.7 -0.4
v 1.8 3.7 -0.5
v 1.8 3.9 0.4
v 1.8 3.9 0.2
v 1.8 3.9 -0.2
v 1.8 3.9 -0.4
v 1.8 4 0.5
v 1.8 4 0.2
v 1.8 4 -0.2
v 1.8 4 -0.5
v -1.8 0 0.5
v -1.8 0 0.2
v -1.8 0 -0.2
v -1.8 0 -0.5
v -1.8 0.1 0.4
v -1.8 0.1 0.2
v -1.8 0.1 -0.2
v -1.8 0.1 -0.4
v -1.8 0.3 0.5
v -1.8 0.3 0.4
v -1.8 0.3 -0.4
v -1.8 0.3 -0.5
v -1.8 0.7 0.5
v -1.8 0.7 0.4
v -1.8 0.7 -0.4
v -1.8 0.7 -0.5
v -1.8 0.9 0.4
v -1.8 0.9 0.2
v -1.8 0.9 -0.2
v -1.8 0.9 -0.4
v -1.8 1.1 0.4
v -1.8 1.1 0.2
v -1.8 1.1 -0.2
v -1.8 1.1 -0.4
v -1.8 1.3 0.5
v -1.8 1.3 0.4
v -1.8 1.3 -0.4
v -1.8 1.3 -0.5
v -1.8 1.7 0.5
v -1.8 1.7 0.4
v -1.8 1.7 -0.4
v -1.8 1.7 -0.5
v -1.8 1.9 0.4
v -1.8 1.9 0.2
v -1.8 1.9 -0.2
v -1.8 1.9 -0.4
v -1.8 2.1 0.4
v -1.8 2.1 0.2
v -1.8 2.1 -0.2
v -1.8 2.1 -0.4
v -1.8 2.3 0.5
v -1.8 2.3 0.4
v -1.8 2.3 -0.4
v -1.8 2.3 -0.5
v -1.8 2.7 0.5
v -1.8 2.7 0.4
v -1.8 2.7 -0.4
v -1.8 2.7 -0.5
v -1.8 2.9 0.4
v -1.8 2.9 0.2
v -1.8 2.9 -0.2
v -1.8 2.9 -0.4
v -1.8 3.1 0.4
v -1.8 3.1 0.2
v -1.8 3.1 -0.2
v -1.8 3.1 -0.4
v -1.8 3.3 0.5
v -1.8 3.3 0.4
v -1.8 3.3 -0.4
v -1.8 3.3 -0.5
v -1.8 3.7 0.5
v -1.8 3.7 0.4
v -1.8 3.7 -0.4
v -1.8 3.7 -0.5
v -1.8 3.9 0.4
v -1.8 3.9 0.2
v -1.8 3.9 -0.2
v -1.8 3.9 -0.4
v -1.8 4 0.5
v -1.8 4 0.2
v -1.8 4 -0.2
v -1.8 4 -0.5
v 2 0 0.5
v 2 0 0.2
v 2 0 -0.2
v 2 0 -0.5
v 2 0.1 0.4
v 2 0.1 0.2
v 2 0.1 0.1
v 2 0.1 0
v 2 0.1 -0.1
v 2 0.1 -0.2
v 2 0.1 -0.4
v 2 0.2 0.3
v 2 0.2 0.1
v 2 0.2 -0.1
v 2 0.2 -0.3
v 2 0.3 0.5
v 2 0.3 0.4
v 2 0.3 0.1
v 2 0.3 0
v 2 0.3 -0.4
v 2 0.3 -0.5
v 2 0.4 0.4
v 2 0.4 0.3
v 2 0.4 0
v 2 0.4 -0.1
v 2 0.4 -0.3
v 2 0.4 -0.4
v 2 0.5 0.1
v 2 0.5 0
v 2 0.5 -0.1
v 2 0.5 -0.2
v 2 0.6 0.4
v 2 0.6 0.3
v 2 0.6 0.2
v 2 0.6 0
v 2 0.6 -0.2
v 2 0.6 -0.3
v 2 0.6 -0.4
v 2 0.7 0.5
v 2 0.7 0.4
v 2 0.7 0.3
v 2 0.7 0.2
v 2 0.7 0.1
v 2 0.7 0
v 2 0.7 -0.1
v 2 0.7 -0.2
v 2 0.7 -0.4
v 2 0.7 -0.5
v 2 0.8 0.3
v 2 0.8 0.1
v 2 0.8 -0.1
v 2 0.8 -0.2
v 2 0.8 -0.3
v 2 0.9 0.4
v 2 0.9 0.2
v 2 0.9 0.1
v 2 0.9 -0.1
v 2 0.9 -0.2
v 2 0.9 -0.4
v 2 1.1 0.4
v 2 1.1 0.2
v 2 1.1 0.1
v 2 1.1 0
v 2 1.1 -0.1
v 2 1.1 -0.2
v 2 1.1 -0.4
v 2 1.2 0.3
v 2 1.2 0.1
v 2 1.2 -0.1
v 2 1.2 -0.3
v 2 1.3 0.5
v 2 1.3 0.4
v 2 1.3 0.1
v 2 1.3 0
v 2 1.3 -0.4
v 2 1.3 -0.5
v 2 1.4 0.4
v 2 1.4 0.3
v 2 1.4 0
v 2 1.4 -0.1
v 2 1.4 -0.3
v 2 1.4 -0.4
v 2 1.5 0.1
v 2 1.5 0
v 2 1.5 -0.1
v 2 1.5 -0.2
v 2 1.6 0.4
v 2 1.6 0.3
v 2 1.6 0.2
v 2 1.6 0
v 2 1.6 -0.2
v 2 1.6 -0.3
v 2 1.6 -0.4
v 2 1.7 0.5
v 2 1.7 0.4
v 2 1.7 0.3
v 2 1.7 0.2
v 2 1.7 0.1
v 2 1.7 0
v 2 1.7 -0.1
v 2 1.7 -0.2
v 2 1.7 -0.4
v 2 1.7 -0.5
v 2 1.8 0.3
v 2 1.8 0.1
v 2 1.8 -0.1
v 2 1.8 -0.2
v 2 1.8 -0.3
v 2 1.9 0.4
v 2 1.9 0.2
v 2 1.9 0.1
v 2 1.9 -0.1
v 2 1.9 -0.2
v 2 1.9 -0.4
v 2 2.1 0.4
v 2 2.1 0.2
v 2 2.1 0.1
v 2 2.1 0
v 2 2.1 -0.1
v 2 2.1 -0.2
v 2 2.1 -0.4
v 2 2.2 0.3
v 2 2.2 0.1
v 2 2.2 -0.1
v 2 2.2 -0.3
v 2 2.3 0.5
v 2 2.3 0.4
v 2 2.3 0.1
v 2 2.3 0
v 2 2.3 -0.4
v 2 2.3 -0.5
v 2 2.4 0.4
v 2 2.4 0.3
v 2 2.4 0
v 2 2.4 -0.1
v 2 2.4 -0.3
v 2 2.4 -0.4
v 2 2.5 0.1
v 2 2.5 0
v 2 2.5 -0.1
v 2 2.5 -0.2
v 2 2.6 0.4
v 2 2.6 0.3
v 2 2.6 0.2
v 2 2.6 0
v 2 2.6 -0.2
v 2 2.6 -0.3
v 2 2.6 -0.4
v 2 2.7 0.5
v 2 2.7 0.4
v 2 2.7 0.3
v 2 2.7 0.2
v 2 2.7 0.1
v 2 2.7 0
v 2 2.7 -0.1
v 2 2.7 -0.2
v 2 2.7 -0.4
v 2 2.7 -0.5
v 2 2.8 0.3
v 2 2.8 0.1
v 2 2.8 -0.1
v 2 2.8 -0.2
v 2 2.8 -0.3
v 2 2.9 0.4
v 2 2.9 0.2
v 2 2.9 0.1
v 2 2.9 -0.1
v 2 2.9 -0.2
v 2 2.9 -0.4
v 2 3.1 0.4
v 2 3.1 0.2
v 2 3.1 0.1
v 2 3.1 0
v 2 3.1 -0.1
v 2 3.1 -0.2
v 2 3.1 -0.4
v 2 3.2 0.3
v 2 3.2 0.1
v 2 3.2 -0.1
v 2 3.2 -0.3
v 2 3.3 0.5
v 2 3.3 0.4
v 2 3.3 0.1
v 2 3.3 0
v 2 3.3 -0.4
v 2 3.3 -0.5
v 2 3.4 0.4
v 2 3.4 0.3
v 2 3.4 0
v 2 3.4 -0.1
v 2 3.4 -0.3
v 2 3.4 -0.4
v 2 3.5 0.1
v 2 3.5 0
v 2 3.5 -0.1
v 2 3.5 -0.2
v 2 3.6 0.4
v 2 3.6 0.3
v 2 3.6 0.2
v 2 3.6 0
v 2 3.6 -0.2
v 2 3.6 -0.3
v 2 3.6 -0.4
v 2 3.7 0.5
v 2 3.7 0.4
v 2 3.7 0.3
v 2 3.7 0.2
v 2 3.7 0.1
v 2 3.7 0
v 2 3.7 -0.1
v 2 3.7 -0.2
v 2 3.7 -0.4
v 2 3.7 -0.5
v 2 3.8 0.3
v 2 3.8 0.1
v 2 3.8 -0.1
v 2 3.8 -0.2
v 2 3.8 -0.3
v 2 3.9 0.4
v 2 3.9 0.2
v 2 3.9 0.1
v 2 3.9 -0.1
v 2 3.9 -0.2
v 2 3.9 -0.4
v 2 4 0.5
v 2 4 0.2
v 2 4 -0.2
v 2 4 -0.5
v -2 0 0.5
v -2 0.3 0.5
v -2 0.7 0.5
v -2 1.3 0.5
v -2 1.7 0.5
v -2 2.3 0.5
v -2 2.7 0.5
v -2 3.3 0.5
v -2 3.7 0.5
v -2 4 0.5
v -1.8 0 0.5
v -1.8 0.3 0.5
v -1.8 0.7 0.5
v -1.8 1.3 0.5
v -1.8 1.7 0.5
v -1.8 2.3 0.5
v -1.8 2.7 0.5
v -1.8 3.3 0.5
v -1.8 3.7 0.5
v -1.8 4 0.5
v 1.8 0 0.5
v 1.8 0.3 0.5
v 1.8 0.7 0.5
v 1.8 1.3 0.5
v 1.8 1.7 0.5
v 1.8 2.3 0.5
v 1.8 2.7 0.5
v 1.8 3.3 0.5
v 1.8 3.7 0.5
v 1.8 4 0.5
v 2 0 0.5
v 2 0.3 0.5
v 2 0.7 0.5
v 2 1.3 0.5
v 2 1.7 0.5
v 2 2.3 0.5
v 2 2.7 0.5
v 2 3.3 0.5
v 2 3.7 0.5
v 2 4 0.5
v -1.8 0.1 0.4
v -1.8 0.3 0.4
v -1.8 0.7 0.4
v -1.8 0.9 0.4
v -1.8 1.1 0.4
v -1.8 1.3 0.4
v -1.8 1.7 0.4
v -1.8 1.9 0.4
v -1.8 2.1 0.4
v -1.8 2.3 0.4
v -1.8 2.7 0.4
v -1.8 2.9 0.4
v -1.8 3.1 0.4
v -1.8 3.3 0.4
v -1.8 3.7 0.4
v -1.8 3.9 0.4
v 1.8 0.1 0.4
v 1.8 0.3 0.4
v 1.8 0.7 0.4
v 1.8 0.9 0.4
v 1.8 1.1 0.4
v 1.8 1.3 0.4
v 1.8 1.7 0.4
v 1.8 1.9 0.4
v 1.8 2.1 0.4
v 1.8 2.3 0.4
v 1.8 2.7 0.4
v 1.8 2.9 0.4
v 1.8 3.1 0.4
v 1.8 3.3 0.4
v 1.8 3.7 0.4
v 1.8 3.9 0.4
v -1.8 0 0.2
v -1.8 0.1 0.2
v -1.8 0.9 0.2
v -1.8 1.1 0.2
v -1.8 1.9 0.2
v -1.8 2.1 0.2
v -1.8 2.9 0.2
v -1.8 3.1 0.2
v -1.8 3.9 0.2
v -1.8 4 0.2
v 1.8 0 0.2
v 1.8 0.1 0.2
v 1.8 0.9 0.2
v 1.8 1.1 0.2
v 1.8 1.9 0.2
v 1.8 2.1 0.2
v 1.8 2.9 0.2
v 1.8 3.1 0.2
v 1.8 3.9 0.2
v 1.8 4 0.2
v -1.8 0 -0.2
v -1.8 0.1 -0.2
v -1.8 0.9 -0.2
v -1.8 1.1 -0.2
v -1.8 1.9 -0.2
v -1.8 2.1 -0.2
v -1.8 2.9 -0.2
v -1.8 3.1 -0.2
v -1.8 3.9 -0.2
v -1.8 4 -0.2
v 1.8 0 -0.2
v 1.8 0.1 -0.2
v 1.8 0.9 -0.2
v 1.8 1.1 -0.2
v 1.8 1.9 -0.2
v 1.8 2.1 -0.2
v 1.8 2.9 -0.2
v 1.8 3.1 -0.2
v 1.8 3.9 -0.2
v 1.8 4 -0.2
v -1.8 0.1 -0.4
v -1.8 0.3 -0.4
v -1.8 0.7 -0.4
v -1.8 0.9 -0.4
v -1.8 1.1 -0.4
v -1.8 1.3 -0.4
v -1.8 1.7 -0.4
v -1.8 1.9 -0.4
v -1.8 2.1 -0.4
v -1.8 2.3 -0.4
v -1.8 2.7 -0.4
v -1.8 2.9 -0.4
v -1.8 3.1 -0.4
v -1.8 3.3 -0.4
v -1.8 3.7 -0.4
v -1.8 3.9 -0.4
v 1.8 0.1 -0.4
v 1.8 0.3 -0.4
v 1.8 0.7 -0.4
v 1.8 0.9 -0.4
v 1.8 1.1 -0.4
v 1.8 1.3 -0.4
v 1.8 1.7 -0.4
v 1.8 1.9 -0.4
v 1.8 2.1 -0.4
v 1.8 2.3 -0.4
v 1.8 2.7 -0.4
v 1.8 2.9 -0.4
v 1.8 3.1 -0.4
v 1.8 3.3 -0.4
v 1.8 3.7 -0.4
v 1.8 3.9 -0.4
v -2 0 -0.5
v -2 0.3 -0.5
v -2 0.7 -0.5
v -2 1.3 -0.5
v -2 1.7 -0.5
v -2 2.3 -0.5
v -2 2.7 -0.5
v -2 3.3 -0.5
v -2 3.7 -0.5
v -2 4 -0.5
v -1.8 0 -0.5
v -1.8 0.3 -0.5
v -1.8 0.7 -0.5
v -1.8 1.3 -0.5
v -1.8 1.7 -0.5
v -1.8 2.3 -0.5
v -1.8 2.7 -0.5
v -1.8 3.3 -0.5
v -1.8 3.7 -0.5
v -1.8 4 -0.5
v 1.8 0 -0.5
v 1.8 0.3 -0.5
v 1.8 0.7 -0.5
v 1.8 1.3 -0.5
v 1.8 1.7 -0.5
v 1.8 2.3 -0.5
v 1.8 2.7 -0.5
v 1.8 3.3 -0.5
v 1.8 3.7 -0.5
v 1.8 4 -0.5
v 2 0 -0.5
v 2 0.3 -0.5
v 2 0.7 -0.5
v 2 1.3 -0.5
v 2 1.7 -0.5
v 2 2.3 -0.5
v 2 2.7 -0.5
v 2 3.3 -0.5
v 2 3.7 -0.5
v 2 4 -0.5
v -2 0 0.5
v -1.8 0 0.5
v 1.8 0 0.5
v 2 0 0.5
v -2 0 0.2
v -1.8 0 0.2
v 1.8 0 0.2
v 2 0 0.2
v -2 0 -0.2
v -1.8 0 -0.2
v 1.8 0 -0.2
v 2 0 -0.2
v -2 0 -0.5
v -1.8 0 -0.5
v 1.8 0 -0.5
v 2 0 -0.5
v -1.8 0.1 0.4
v 1.8 0.1 0.4
v -1.8 0.1 0.2
v 1.8 0.1 0.2
v -1.8 0.1 -0.2
v 1.8 0.1 -0.2
v -1.8 0.1 -0.4
v 1.8 0.1 -0.4
v -1.8 0.3 0.5
v 1.8 0.3 0.5
v -1.8 0.3 0.4
v 1.8 0.3 0.4
v -1.8 0.3 -0.4
v 1.8 0.3 -0.4
v -1.8 0.3 -0.5
v 1.8 0.3 -0.5
v -1.8 1.1 0.4
v 1.8 1.1 0.4
v -1.8 1.1 0.2
v 1.8 1.1 0.2
v -1.8 1.1 -0.2
v 1.8 1.1 -0.2
v -1.8 1.1 -0.4
v 1.8 1.1 -0.4
v -1.8 1.3 0.5
v 1.8 1.3 0.5
v -1.8 1.3 0.4
v 1.8 1.3 0.4
v -1.8 1.3 -0.4
v 1.8 1.3 -0.4
v -1.8 1.3 -0.5
v 1.8 1.3 -0.5
v -1.8 2.1 0.4
v 1.8 2.1 0.4
v -1.8 2.1 0.2
v 1.8 2.1 0.2
v -1.8 2.1 -0.2
v 1.8 2.1 -0.2
v -1.8 2.1 -0.4
v 1.8 2.1 -0.4
v -1.8 2.3 0.5
v 1.8 2.3 0.5
v -1.8 2.3 0.4
v 1.8 2.3 0.4
v -1.8 2.3 -0.4
v 1.8 2.3 -0.4
v -1.8 2.3 -0.5
v 1.8 2.3 -0.5
v -1.8 3.1 0.4
v 1.8 3.1 0.4
v -1.8 3.1 0.2
v 1.8 3.1 0.2
v -1.8 3.1 -0.2
v 1.8 3.1 -0.2
v -1.8 3.1 -0.4
v 1.8 3.1 -0.4
v -1.8 3.3 0.5
v 1.8 3.3 0.5
v -1.8 3.3 0.4
v 1.8 3.3 0.4
v -1.8 3.3 -0.4
v 1.8 3.3 -0.4
v -1.8 3.3 -0.5
v 1.8 3.3 -0.5
v -1.8 0.7 0.5
v 1.8 0.7 0.5
v -1.8 0.7 0.4
v 1.8 0.7 0.4
v -1.8 0.7 -0.4
v 1.8 0.7 -0.4
v -1.8 0.7 -0.5
v 1.8 0.7 -0.5
v -1.8 0.9 0.4
v 1.8 0.9 0.4
v -1.8 0.9 0.2
v 1.8 0.9 0.2
v -1.8 0.9 -0.2
v 1.8 0.9 -0.2
v -1.8 0.9 -0.4
v 1.8 0.9 -0.4
v -1.8 1.7 0.5
v 1.8 1.7 0.5
v -1.8 1.7 0.4
v 1.8 1.7 0.4
v -1.8 1.7 -0.4
v 1.8 1.7 -0.4
v -1.8 1.7 -0.5
v 1.8 1.7 -0.5
v -1.8 1.9 0.4
v 1.8 1.9 0.4
v -1.8 1.9 0.2
v 1.8 1.9 0.2
v -1.8 1.9 -0.2
v 1.8 1.9 -0.2
v -1.8 1.9 -0.4
v 1.8 1.9 -0.4
v -1.8 2.7 0.5
v 1.8 2.7 0.5
v -1.8 2.7 0.4
v 1.8 2.7 0.4
v -1.8 2.7 -0.4
v 1.8 2.7 -0.4
v -1.8 2.7 -0.5
v 1.8 2.7 -0.5
v -1.8 2.9 0.4
v 1.8 2.9 0.4
v -1.8 2.9 0.2
v 1.8 2.9 0.2
v -1.8 2.9 -0.2
v 1.8 2.9 -0.2
v -1.8 2.9 -0.4
v 1.8 2.9 -0.4
v -1.8 3.7 0.5
v 1.8 3.7 0.5
v -1.8 3.7 0.4
v 1.8 3.7 0.4
v -1.8 3.7 -0.4
v 1.8 3.7 -0.4
v -1.8 3.7 -0.5
v 1.8 3.7 -0.5
v -1.8 3.9 0.4
v 1.8 3.9 0.4
v -1.8 3.9 0.2
v 1.8 3.9 0.2
v -1.8 3.9 -0.2
v 1.8 3.9 -0.2
v -1.8 3.9 -0.4
v 1.8 3.9 -0.4
v -2 4 0.5
v -1.8 4 0.5
v 1.8 4 0.5
v 2 4 0.5
v -2 4 0.2
v -1.8 4 0.2
v 1.8 4 0.2
v 2 4 0.2
v -2 4 -0.2
v -1.8 4 -0.2
v 1.8 4 -0.2
v 2 4 -0.2
v -2 4 -0.5
v -1.8 4 -0.5
v 1.8 4 -0.5
v 2 4 -0.5

# faces
f 5/4/1 2/4/1 1/4/1
f 6/3/1 3/3/1 2/3/1
f 6/4/1 2/4/1 5/4/1
f 7/3/1 3/3/1 6/3/1
f 8/3/1 3/3/1 7/3/1
f 9/4/1 4/4/1 3/4/1
f 9/3/1 3/3/1 8/3/1
f 10/4/1 4/4/1 9/4/1
f 11/3/1 6/3/1 5/3/1
f 11/3/1 7/3/1 6/3/1
f 12/3/1 7/3/1 11/3/1
f 13/1/1 8/1/1 7/1/1
f 13/3/1 7/3/1 12/3/1
f 14/3/1 10/3/1 9/3/1
f 14/1/1 8/1/1 13/1/1
f 14/3/1 9/3/1 8/3/1
f 15/3/1 10/3/1 14/3/1
f 16/4/1 5/4/1 1/4/1
f 17/3/1 11/3/1 5/3/1
f 17/4/1 5/4/1 16/4/1
f 18/2/1 13/2/1 12/2/1
f 18/1/1 14/1/1 13/1/1
f 18/1/1 15/1/1 14/1/1
f 19/1/1 15/1/1 18/1/1
f 20/3/1 10/3/1 15/3/1
f 20/4/1 4/4/1 10/4/1
f 21/4/1 4/4/1 20/4/1
f 22/3/1 11/3/1 17/3/1
f 22/3/1 17/3/1 16/3/1
f 23/1/1 12/1/1 11/1/1
f 23/3/1 11/3/1 22/3/1
f 24/2/1 19/2/1 18/2/1
f 24/1/1 12/1/1 23/1/1
f 24/2/1 18/2/1 12/2/1
f 25/2/1 19/2/1 24/2/1
f 26/1/1 15/1/1 19/1/1
f 27/3/1 21/3/1 20/3/1
f 27/1/1 15/1/1 26/1/1
f 27/3/1 20/3/1 15/3/1
f 28/3/1 21/3/1 27/3/1
f 29/2/1 19/2/1 25/2/1
f 29/1/1 23/1/1 22/1/1
f 29/1/1 25/1/1 24/1/1
f 29/1/1 24/1/1 23/1/1
f 30/1/1 26/1/1 19/1/1
f 30/2/1 19/2/1 29/2/1
f 31/2/1 28/2/1 27/2/1
f 31/2/1 27/2/1 26/2/1
f 32/3/1 21/3/1 28/3/1
f 32/2/1 28/2/1 31/2/1
f 33/3/1 22/3/1 16/3/1
f 33/1/1 29/1/1 22/1/1
f 33/1/1 30/1/1 29/1/1
f 34/1/1 30/1/1 33/1/1
f 35/1/1 30/1/1 34/1/1
f 36/1/1 26/1/1 30/1/1
f 36/1/1 30/1/1 35/1/1
f 37/2/1 31/2/1 26/2/1
f 37/1/1 26/1/1 36/1/1
f 38/1/1 32/1/1 31/1/1
f 38/2/1 31/2/1 37/2/1
f 39/1/1 32/1/1 38/1/1
f 40/3/1 21/3/1 32/3/1
f 40/1/1 32/1/1 39/1/1
f 41/3/1 33/3/1 16/3/1
f 41/3/1 34/3/1 33/3/1
f 42/3/1 34/3/1 41/3/1
f 43/1/1 35/1/1 34/1/1
f 43/3/1 34/3/1 42/3/1
f 44/2/1 36/2/1 35/2/1
f 44/1/1 35/1/1 43/1/1
f 45/2/1 36/2/1 44/2/1
f 46/1/1 39/1/1 38/1/1
f 46/2/1 36/2/1 45/2/1
f 46/1/1 37/1/1 36/1/1
f 46/1/1 38/1/1 37/1/1
f 47/1/1 39/1/1 46/1/1
f 48/1/1 39/1/1 47/1/1
f 49/3/1 21/3/1 40/3/1
f 49/3/1 40/3/1 39/3/1
f 50/3/1 21/3/1 49/3/1
f 51/2/1 45/2/1 44/2/1
f 51/3/1 43/3/1 42/3/1
f 51/2/1 44/2/1 43/2/1
f 52/1/1 46/1/1 45/1/1
f 52/2/1 45/2/1 51/2/1
f 52/1/1 47/1/1 46/1/1
f 53/2/1 48/2/1 47/2/1
f 53/1/1 47/1/1 52/1/1
f 54/1/1 39/1/1 48/1/1
f 54/2/1 48/2/1 53/2/1
f 55/3/1 49/3/1 39/3/1
f 55/1/1 39/1/1 54/1/1
f 56/4/1 42/4/1 41/4/1
f 56/3/1 52/3/1 51/3/1
f 56/3/1 51/3/1 42/3/1
f 57/3/1 52/3/1 56/3/1
f 58/1/1 53/1/1 52/1/1
f 58/3/1 52/3/1 57/3/1
f 59/3/1 54/3/1 53/3/1
f 59/1/1 53/1/1 58/1/1
f 59/3/1 55/3/1 54/3/1
f 60/3/1 55/3/1 59/3/1
f 61/4/1 50/4/1 49/4/1
f 61/3/1 55/3/1 60/3/1
f 61/3/1 49/3/1 55/3/1
f 62/4/1 57/4/1 56/4/1
f 62/4/1 56/4/1 41/4/1
f 63/3/1 60/3/1 59/3/1
f 63/4/1 57/4/1 62/4/1
f 63/3/1 59/3/1 58/3/1
f 63/3/1 58/3/1 57/3/1
f 64/3/1 60/3/1 63/3/1
f 65/3/1 60/3/1 64/3/1
f 66/4/1 61/4/1 60/4/1
f 66/3/1 60/3/1 65/3/1
f 67/4/1 50/4/1 61/4/1
f 67/4/1 61/4/1 66/4/1
f 68/3/1 63/3/1 62/3/1
f 68/3/1 64/3/1 63/3/1
f 69/3/1 64/3/1 68/3/1
f 70/1/1 65/1/1 64/1/1
f 70/3/1 64/3/1 69/3/1
f 71/3/1 66/3/1 65/3/1
f 71/1/1 65/1/1 70/1/1
f 71/3/1 67/3/1 66/3/1
f 72/3/1 67/3/1 71/3/1
f 73/4/1 62/4/1 41/4/1
f 74/3/1 68/3/1 62/3/1
f 74/4/1 62/4/1 73/4/1
f 75/2/1 70/2/1 69/2/1
f 75/1/1 71/1/1 70/1/1
f 75/1/1 72/1/1 71/1/1
f 76/1/1 72/1/1 75/1/1
f 77/3/1 67/3/1 72/3/1
f 77/4/1 50/4/1 67/4/1
f 78/4/1 50/4/1 77/4/1
f 79/3/1 68/3/1 74/3/1
f 79/3/1 74/3/1 73/3/1
f 80/1/1 69/1/1 68/1/1
f 80/3/1 68/3/1 79/3/1
f 81/2/1 76/2/1 75/2/1
f 81/1/1 69/1/1 80/1/1
f 81/2/1 75/2/1 69/2/1
f 82/2/1 76/2/1 81/2/1
f 83/1/1 72/1/1 76/1/1
f 84/3/1 78/3/1 77/3/1
f 84/1/1 72/1/1 83/1/1
f 84/3/1 77/3/1 72/3/1
f 85/3/1 78/3/1 84/3/1
f 86/2/1 76/2/1 82/2/1
f 86/1/1 80/1/1 79/1/1
f 86/1/1 82/1/1 81/1/1
f 86/1/1 81/1/1 80/1/1
f 87/1/1 83/1/1 76/1/1
f 87/2/1 76/2/1 86/2/1
f 88/2/1 85/2/1 84/2/1
f 88/2/1 84/2/1 83/2/1
f 89/3/1 78/3/1 85/3/1
f 89/2/1 85/2/1 88/2/1
f 90/3/1 79/3/1 73/3/1
f 90/1/1 86/1/1 79/1/1
f 90/1/1 87/1/1 86/1/1
f 91/1/1 87/1/1 90/1/1
f 92/1/1 87/1/1 91/1/1
f 93/1/1 83/1/1 87/1/1
f 93/1/1 87/1/1 92/1/1
f 94/2/1 88/2/1 83/2/1
f 94/1/1 83/1/1 93/1/1
f 95/1/1 89/1/1 88/1/1
f 95/2/1 88/2/1 94/2/1
f 96/1/1 89/1/1 95/1/1
f 97/3/1 78/3/1 89/3/1
f 97/1/1 89/1/1 96/1/1
f 98/3/1 90/3/1 73/3/1
f 98/3/1 91/3/1 90/3/1
f 99/3/1 91/3/1 98/3/1
f 100/1/1 92/1/1 91/1/1
f 100/3/1 91/3/1 99/3/1
f 101/2/1 93/2/1 92/2/1
f 101/1/1 92/1/1 100/1/1
f 102/2/1 93/2/1 101/2/1
f 103/1/1 96/1/1 95/1/1
f 103/2/1 93/2/1 102/2/1
f 103/1/1 94/1/1 93/1/1
f 103/1/1 95/1/1 94/1/1
f 104/1/1 96/1/1 103/1/1
f 105/1/1 96/1/1 104/1/1
f 106/3/1 78/3/1 97/3/1
f 106/3/1 97/3/1 96/3/1
f 107/3/1 78/3/1 106/3/1
f 108/3/1 100/3/1 99/3/1
f 108/2/1 102/2/1 101/2/1
f 108/2/1 101/2/1 100/2/1
f 109/1/1 103/1/1 102/1/1
f 109/2/1 102/2/1 108/2/1
f 109/1/1 104/1/1 103/1/1
f 110/2/1 105/2/1 104/2/1
f 110/1/1 104/1/1 109/1/1
f 111/1/1 96/1/1 105/1/1
f 111/2/1 105/2/1 110/2/1
f 112/3/1 106/3/1 96/3/1
f 112/1/1 96/1/1 111/1/1
f 113/4/1 99/4/1 98/4/1
f 113/3/1 109/3/1 108/3/1
f 113/3/1 108/3/1 99/3/1
f 114/3/1 109/3/1 113/3/1
f 115/1/1 110/1/1 109/1/1
f 115/3/1 109/3/1 114/3/1
f 116/3/1 111/3/1 110/3/1
f 116/1/1 110/1/1 115/1/1
f 116/3/1 112/3/1 111/3/1
f 117/3/1 112/3/1 116/3/1
f 118/4/1 107/4/1 106/4/1
f 118/3/1 112/3/1 117/3/1
f 118/3/1 106/3/1 112/3/1
f 119/4/1 114/4/1 113/4/1
f 119/4/1 113/4/1 98/4/1
f 120/3/1 117/3/1 116/3/1
f 120/4/1 114/4/1 119/4/1
f 120/3/1 116/3/1 115/3/1
f 120/3/1 115/3/1 114/3/1
f 121/3/1 117/3/1 120/3/1
f 122/3/1 117/3/1 121/3/1
f 123/4/1 118/4/1 117/4/1
f 123/3/1 117/3/1 122/3/1
f 124/4/1 107/4/1 118/4/1
f 124/4/1 118/4/1 123/4/1
f 125/3/1 120/3/1 119/3/1
f 125/3/1 121/3/1 120/3/1
f 126/3/1 121/3/1 125/3/1
f 127/1/1 122/1/1 121/1/1
f 127/3/1 121/3/1 126/3/1
f 128/3/1 123/3/1 122/3/1
f 128/1/1 122/1/1 127/1/1
f 128/3/1 124/3/1 123/3/1
f 129/3/1 124/3/1 128/3/1
f 130/4/1 119/4/1 98/4/1
f 131/3/1 125/3/1 119/3/1
f 131/4/1 119/4/1 130/4/1
f 132/2/1 127/2/1 126/2/1
f 132/1/1 128/1/1 127/1/1
f 132/1/1 129/1/1 128/1/1
f 133/1/1 129/1/1 132/1/1
f 134/3/1 124/3/1 129/3/1
f 134/4/1 107/4/1 124/4/1
f 135/4/1 107/4/1 134/4/1
f 136/3/1 125/3/1 131/3/1
f 136/3/1 131/3/1 130/3/1
f 137/1/1 126/1/1 125/1/1
f 137/3/1 125/3/1 136/3/1
f 138/2/1 133/2/1 132/2/1
f 138/1/1 126/1/1 137/1/1
f 138/2/1 132/2/1 126/2/1
f 139/2/1 133/2/1 138/2/1
f 140/1/1 129/1/1 133/1/1
f 141/3/1 135/3/1 134/3/1
f 141/1/1 129/1/1 140/1/1
f 141/3/1 134/3/1 129/3/1
f 142/3/1 135/3/1 141/3/1
f 143/2/1 133/2/1 139/2/1
f 143/1/1 137/1/1 136/1/1
f 143/1/1 139/1/1 138/1/1
f 143/1/1 138/1/1 137/1/1
f 144/1/1 140/1/1 133/1/1
f 144/2/1 133/2/1 143/2/1
f 145/2/1 142/2/1 141/2/1
f 145/2/1 141/2/1 140/2/1
f 146/3/1 135/3/1 142/3/1
f 146/2/1 142/2/1 145/2/1
f 147/3/1 136/3/1 130/3/1
f 147/1/1 143/1/1 136/1/1
f 147/1/1 144/1/1 143/1/1
f 148/1/1 144/1/1 147/1/1
f 149/1/1 144/1/1 148/1/1
f 150/1/1 140/1/1 144/1/1
f 150/1/1 144/1/1 149/1/1
f 151/2/1 145/2/1 140/2/1
f 151/1/1 140/1/1 150/1/1
f 152/1/1 146/1/1 145/1/1
f 152/2/1 145/2/1 151/2/1
f 153/1/1 146/1/1 152/1/1
f 154/3/1 135/3/1 146/3/1
f 154/1/1 146/1/1 153/1/1
f 155/3/1 147/3/1 130/3/1
f 155/3/1 148/3/1 147/3/1
f 156/3/1 148/3/1 155/3/1
f 157/1/1 149/1/1 148/1/1
f 157/3/1 148/3/1 156/3/1
f 158/2/1 150/2/1 149/2/1
f 158/1/1 149/1/1 157/1/1
f 159/2/1 150/2/1 158/2/1
f 160/1/1 153/1/1 152/1/1
f 160/2/1 150/2/1 159/2/1
f 160/1/1 151/1/1 150/1/1
f 160/1/1 152/1/1 151/1/1
f 161/1/1 153/1/1 160/1/1
f 162/1/1 153/1/1 161/1/1
f 163/3/1 135/3/1 154/3/1
f 163/3/1 154/3/1 153/3/1
f 164/3/1 135/3/1 163/3/1
f 165/3/1 157/3/1 156/3/1
f 165/2/1 159/2/1 158/2/1
f 165/2/1 158/2/1 157/2/1
f 166/1/1 160/1/1 159/1/1
f 166/2/1 159/2/1 165/2/1
f 166/1/1 161/1/1 160/1/1
f 167/2/1 162/2/1 161/2/1
f 167/1/1 161/1/1 166/1/1
f 168/1/1 153/1/1 162/1/1
f 168/2/1 162/2/1 167/2/1
f 169/3/1 163/3/1 153/3/1
f 169/1/1 153/1/1 168/1/1
f 170/4/1 156/4/1 155/4/1
f 170/3/1 166/3/1 165/3/1
f 170/3/1 165/3/1 156/3/1
f 171/3/1 166/3/1 170/3/1
f 172/1/1 167/1/1 166/1/1
f 172/3/1 166/3/1 171/3/1
f 173/3/1 168/3/1 167/3/1
f 173/1/1 167/1/1 172/1/1
f 173/3/1 169/3/1 168/3/1
f 174/3/1 169/3/1 173/3/1
f 175/4/1 164/4/1 163/4/1
f 175/3/1 169/3/1 174/3/1
f 175/3/1 163/3/1 169/3/1
f 176/4/1 171/4/1 170/4/1
f 176/4/1 170/4/1 155/4/1
f 177/3/1 174/3/1 173/3/1
f 177/4/1 171/4/1 176/4/1
f 177/3/1 173/3/1 172/3/1
f 177/3/1 172/3/1 171/3/1
f 178/3/1 174/3/1 177/3/1
f 179/3/1 174/3/1 178/3/1
f 180/4/1 175/4/1 174/4/1
f 180/3/1 174/3/1 179/3/1
f 181/4/1 164/4/1 175/4/1
f 181/4/1 175/4/1 180/4/1
f 182/3/1 177/3/1 176/3/1
f 182/3/1 178/3/1 177/3/1
f 183/3/1 178/3/1 182/3/1
f 184/1/1 179/1/1 178/1/1
f 184/3/1 178/3/1 183/3/1
f 185/3/1 180/3/1 179/3/1
f 185/1/1 179/1/1 184/1/1
f 185/3/1 181/3/1 180/3/1
f 186/3/1 181/3/1 185/3/1
f 187/4/1 176/4/1 155/4/1
f 188/3/1 182/3/1 176/3/1
f 188/4/1 176/4/1 187/4/1
f 189/2/1 184/2/1 183/2/1
f 189/1/1 185/1/1 184/1/1
f 189/1/1 186/1/1 185/1/1
f 190/1/1 186/1/1 189/1/1
f 191/3/1 181/3/1 186/3/1
f 191/4/1 164/4/1 181/4/1
f 192/4/1 164/4/1 191/4/1
f 193/3/1 182/3/1 188/3/1
f 193/3/1 188/3/1 187/3/1
f 194/1/1 183/1/1 182/1/1
f 194/3/1 182/3/1 193/3/1
f 195/2/1 190/2/1 189/2/1
f 195/1/1 183/1/1 194/1/1
f 195/2/1 189/2/1 183/2/1
f 196/2/1 190/2/1 195/2/1
f 197/1/1 186/1/1 190/1/1
f 198/3/1 192/3/1 191/3/1
f 198/1/1 186/1/1 197/1/1
f 198/3/1 191/3/1 186/3/1
f 199/3/1 192/3/1 198/3/1
f 200/2/1 190/2/1 196/2/1
f 200/1/1 194/1/1 193/1/1
f 200/1/1 196/1/1 195/1/1
f 200/1/1 195/1/1 194/1/1
f 201/1/1 197/1/1 190/1/1
f 201/2/1 190/2/1 200/2/1
f 202/2/1 199/2/1 198/2/1
f 202/2/1 198/2/1 197/2/1
f 203/3/1 192/3/1 199/3/1
f 203/2/1 199/2/1 202/2/1
f 204/3/1 193/3/1 187/3/1
f 204/1/1 200/1/1 193/1/1
f 204/1/1 201/1/1 200/1/1
f 205/1/1 201/1/1 204/1/1
f 206/1/1 201/1/1 205/1/1
f 207/1/1 197/1/1 201/1/1
f 207/1/1 201/1/1 206/1/1
f 208/2/1 202/2/1 197/2/1
f 208/1/1 197/1/1 207/1/1
f 209/1/1 203/1/1 202/1/1
f 209/2/1 202/2/1 208/2/1
f 210/1/1 203/1/1 209/1/1
f 211/3/1 192/3/1 203/3/1
f 211/1/1 203/1/1 210/1/1
f 212/3/1 204/3/1 187/3/1
f 212/3/1 205/3/1 204/3/1
f 213/3/1 205/3/1 212/3/1
f 214/1/1 206/1/1 205/1/1
f 214/3/1 205/3/1 213/3/1
f 215/2/1 207/2/1 206/2/1
f 215/1/1 206/1/1 214/1/1
f 216/2/1 207/2/1 215/2/1
f 217/1/1 210/1/1 209/1/1
f 217/2/1 207/2/1 216/2/1
f 217/1/1 208/1/1 207/1/1
f 217/1/1 209/1/1 208/1/1
f 218/1/1 210/1/1 217/1/1
f 219/1/1 210/1/1 218/1/1
f 220/3/1 192/3/1 211/3/1
f 220/3/1 211/3/1 210/3/1
f 221/3/1 192/3/1 220/3/1
f 222/3/1 214/3/1 213/3/1
f 222/2/1 216/2/1 215/2/1
f 222/2/1 215/2/1 214/2/1
f 223/1/1 217/1/1 216/1/1
f 223/2/1 216/2/1 222/2/1
f 223/1/1 218/1/1 217/1/1
f 224/2/1 219/2/1 218/2/1
f 224/1/1 218/1/1 223/1/1
f 225/1/1 210/1/1 219/1/1
f 225/2/1 219/2/1 224/2/1
f 226/3/1 220/3/1 210/3/1
f 226/1/1 210/1/1 225/1/1
f 227/4/1 213/4/1 212/4/1
f 227/3/1 223/3/1 222/3/1
f 227/3/1 222/3/1 213/3/1
f 228/3/1 223/3/1 227/3/1
f 229/1/1 224/1/1 223/1/1
f 229/3/1 223/3/1 228/3/1
f 230/3/1 225/3/1 224/3/1
f 230/1/1 224/1/1 229/1/1
f 230/3/1 226/3/1 225/3/1
f 231/3/1 226/3/1 230/3/1
f 232/4/1 221/4/1 220/4/1
f 232/3/1 226/3/1 231/3/1
f 232/3/1 220/3/1 226/3/1
f 233/4/1 228/4/1 227/4/1
f 233/4/1 227/4/1 212/4/1
f 234/3/1 231/3/1 230/3/1
f 234/4/1 228/4/1 233/4/1
f 234/3/1 230/3/1 229/3/1
f 234/3/1 229/3/1 228/3/1
f 235/4/1 232/4/1 231/4/1
f 235/3/1 231/3/1 234/3/1
f 236/4/1 221/4/1 232/4/1
f 236/4/1 232/4/1 235/4/1
f 241/4/1 238/4/1 237/4/1
f 242/4/1 238/4/1 241/4/1
f 243/4/1 240/4/1 239/4/1
f 244/4/1 240/4/1 243/4/1
f 245/4/1 241/4/1 237/4/1
f 246/4/1 241/4/1 245/4/1
f 247/4/1 240/4/1 244/4/1
f 248/4/1 240/4/1 247/4/1
f 253/4/1 250/4/1 249/4/1
f 256/4/1 252/4/1 251/4/1
f 257/4/1 254/4/1 253/4/1
f 257/4/1 253/4/1 249/4/1
f 258/4/1 254/4/1 257/4/1
f 259/4/1 256/4/1 255/4/1
f 260/4/1 252/4/1 256/4/1
f 260/4/1 256/4/1 259/4/1
f 261/4/1 257/4/1 249/4/1
f 262/4/1 257/4/1 261/4/1
f 263/4/1 252/4/1 260/4/1
f 264/4/1 252/4/1 263/4/1
f 269/4/1 266/4/1 265/4/1
f 272/4/1 268/4/1 267/4/1
f 273/4/1 270/4/1 269/4/1
f 273/4/1 269/4/1 265/4/1
f 274/4/1 270/4/1 273/4/1
f 275/4/1 272/4/1 271/4/1
f 276/4/1 268/4/1 272/4/1
f 276/4/1 272/4/1 275/4/1
f 277/4/1 273/4/1 265/4/1
f 278/4/1 273/4/1 277/4/1
f 279/4/1 268/4/1 276/4/1
f 280/4/1 268/4/1 279/4/1
f 285/4/1 282/4/1 281/4/1
f 288/4/1 284/4/1 283/4/1
f 289/4/1 286/4/1 285/4/1
f 289/4/1 285/4/1 281/4/1
f 290/4/1 286/4/1 289/4/1
f 291/4/1 288/4/1 287/4/1
f 292/4/1 284/4/1 288/4/1
f 292/4/1 288/4/1 291/4/1
f 293/4/1 289/4/1 281/4/1
f 294/4/1 289/4/1 293/4/1
f 295/4/1 284/4/1 292/4/1
f 296/4/1 284/4/1 295/4/1
f 301/4/1 298/4/1 297/4/1
f 304/4/1 300/4/1 299/4/1
f 305/4/1 302/4/1 301/4/1
f 305/4/1 301/4/1 297/4/1
f 306/4/1 302/4/1 305/4/1
f 307/4/1 304/4/1 303/4/1
f 308/4/1 300/4/1 304/4/1
f 308/4/1 304/4/1 307/4/1
f 309/4/2 310/4/2 313/4/2
f 313/4/2 310/4/2 314/4/2
f 311/4/2 312/4/2 315/4/2
f 315/4/2 312/4/2 316/4/2
f 309/4/2 313/4/2 317/4/2
f 317/4/2 313/4/2 318/4/2
f 316/4/2 312/4/2 319/4/2
f 319/4/2 312/4/2 320/4/2
f 321/4/2 322/4/2 325/4/2
f 323/4/2 324/4/2 328/4/2
f 325/4/2 326/4/2 329/4/2
f 321/4/2 325/4/2 329/4/2
f 329/4/2 326/4/2 330/4/2
f 327/4/2 328/4/2 331/4/2
f 328/4/2 324/4/2 332/4/2
f 331/4/2 328/4/2 332/4/2
f 321/4/2 329/4/2 333/4/2
f 333/4/2 329/4/2 334/4/2
f 332/4/2 324/4/2 335/4/2
f 335/4/2 324/4/2 336/4/2
f 337/4/2 338/4/2 341/4/2
f 339/4/2 340/4/2 344/4/2
f 341/4/2 342/4/2 345/4/2
f 337/4/2 341/4/2 345/4/2
f 345/4/2 342/4/2 346/4/2
f 343/4/2 344/4/2 347/4/2
f 344/4/2 340/4/2 348/4/2
f 347/4/2 344/4/2 348/4/2
f 337/4/2 345/4/2 349/4/2
f 349/4/2 345/4/2 350/4/2
f 348/4/2 340/4/2 351/4/2
f 351/4/2 340/4/2 352/4/2
f 353/4/2 354/4/2 357/4/2
f 355/4/2 356/4/2 360/4/2
f 357/4/2 358/4/2 361/4/2
f 353/4/2 357/4/2 361/4/2
f 361/4/2 358/4/2 362/4/2
f 359/4/2 360/4/2 363/4/2
f 360/4/2 356/4/2 364/4/2
f 363/4/2 360/4/2 364/4/2
f 353/4/2 361/4/2 365/4/2
f 365/4/2 361/4/2 366/4/2
f 364/4/2 356/4/2 367/4/2
f 367/4/2 356/4/2 368/4/2
f 369/4/2 370/4/2 373/4/2
f 371/4/2 372/4/2 376/4/2
f 373/4/2 374/4/2 377/4/2
f 369/4/2 373/4/2 377/4/2
f 377/4/2 374/4/2 378/4/2
f 375/4/2 376/4/2 379/4/2
f 376/4/2 372/4/2 380/4/2
f 379/4/2 376/4/2 380/4/2
f 381/4/2 382/4/2 385/4/2
f 382/3/2 383/3/2 386/3/2
f 385/4/2 382/4/2 386/4/2
f 386/3/2 383/3/2 387/3/2
f 387/3/2 383/3/2 388/3/2
f 388/3/2 383/3/2 389/3/2
f 383/4/2 384/4/2 390/4/2
f 389/3/2 383/3/2 390/3/2
f 390/4/2 384/4/2 391/4/2
f 385/3/2 386/3/2 392/3/2
f 386/3/2 387/3/2 392/3/2
f 387/1/2 388/1/2 393/1/2
f 392/3/2 387/3/2 393/3/2
f 388/2/2 389/2/2 394/2/2
f 390/3/2 391/3/2 394/3/2
f 389/3/2 390/3/2 394/3/2
f 394/3/2 391/3/2 395/3/2
f 381/4/2 385/4/2 396/4/2
f 385/3/2 392/3/2 397/3/2
f 396/4/2 385/4/2 397/4/2
f 393/1/2 388/1/2 398/1/2
f 392/1/2 393/1/2 398/1/2
f 388/2/2 394/2/2 399/2/2
f 398/1/2 388/1/2 399/1/2
f 395/3/2 391/3/2 400/3/2
f 391/4/2 384/4/2 400/4/2
f 400/4/2 384/4/2 401/4/2
f 397/3/2 392/3/2 402/3/2
f 396/3/2 397/3/2 402/3/2
f 392/1/2 398/1/2 403/1/2
f 402/3/2 392/3/2 403/3/2
f 399/2/2 394/2/2 404/2/2
f 398/2/2 399/2/2 404/2/2
f 394/1/2 395/1/2 405/1/2
f 404/2/2 394/2/2 405/2/2
f 400/3/2 401/3/2 406/3/2
f 405/1/2 395/1/2 406/1/2
f 395/3/2 400/3/2 406/3/2
f 406/3/2 401/3/2 407/3/2
f 403/1/2 398/1/2 408/1/2
f 402/1/2 403/1/2 408/1/2
f 398/2/2 404/2/2 408/2/2
f 406/1/2 407/1/2 409/1/2
f 408/2/2 404/2/2 409/2/2
f 404/1/2 405/1/2 409/1/2
f 405/1/2 406/1/2 409/1/2
f 409/1/2 407/1/2 410/1/2
f 410/1/2 407/1/2 411/1/2
f 402/1/2 408/1/2 412/1/2
f 396/3/2 402/3/2 412/3/2
f 408/1/2 409/1/2 412/1/2
f 409/1/2 410/1/2 412/1/2
f 412/1/2 410/1/2 413/1/2
f 413/1/2 410/1/2 414/1/2
f 414/1/2 410/1/2 415/1/2
f 411/1/2 407/1/2 416/1/2
f 410/2/2 411/2/2 416/2/2
f 416/1/2 407/1/2 417/1/2
f 407/3/2 401/3/2 418/3/2
f 417/1/2 407/1/2 418/1/2
f 396/3/2 412/3/2 419/3/2
f 412/3/2 413/3/2 419/3/2
f 419/3/2 413/3/2 420/3/2
f 413/1/2 414/1/2 421/1/2
f 420/3/2 413/3/2 421/3/2
f 414/2/2 415/2/2 422/2/2
f 421/1/2 414/1/2 422/1/2
f 422/2/2 415/2/2 423/2/2
f 415/1/2 410/1/2 424/1/2
f 423/2/2 415/2/2 424/2/2
f 416/2/2 417/2/2 425/2/2
f 424/1/2 410/1/2 425/1/2
f 410/2/2 416/2/2 425/2/2
f 425/2/2 417/2/2 426/2/2
f 418/3/2 401/3/2 427/3/2
f 417/3/2 418/3/2 427/3/2
f 427/3/2 401/3/2 428/3/2
f 422/2/2 423/2/2 429/2/2
f 420/3/2 421/3/2 429/3/2
f 421/2/2 422/2/2 429/2/2
f 423/1/2 424/1/2 430/1/2
f 429/2/2 423/2/2 430/2/2
f 425/1/2 426/1/2 430/1/2
f 424/1/2 425/1/2 430/1/2
f 430/1/2 426/1/2 431/1/2
f 426/2/2 417/2/2 432/2/2
f 431/1/2 426/1/2 432/1/2
f 417/3/2 427/3/2 433/3/2
f 432/2/2 417/2/2 433/2/2
f 420/3/2 429/3/2 434/3/2
f 419/4/2 420/4/2 434/4/2
f 429/3/2 430/3/2 434/3/2
f 434/3/2 430/3/2 435/3/2
f 430/1/2 431/1/2 436/1/2
f 435/3/2 430/3/2 436/3/2
f 432/3/2 433/3/2 437/3/2
f 436/1/2 431/1/2 437/1/2
f 431/3/2 432/3/2 437/3/2
f 437/3/2 433/3/2 438/3/2
f 433/3/2 427/3/2 439/3/2
f 438/3/2 433/3/2 439/3/2
f 427/4/2 428/4/2 439/4/2
f 434/4/2 435/4/2 440/4/2
f 419/4/2 434/4/2 440/4/2
f 437/3/2 438/3/2 441/3/2
f 440/4/2 435/4/2 441/4/2
f 436/3/2 437/3/2 441/3/2
f 435/3/2 436/3/2 441/3/2
f 441/3/2 438/3/2 442/3/2
f 442/3/2 438/3/2 443/3/2
f 443/3/2 438/3/2 444/3/2
f 438/4/2 439/4/2 445/4/2
f 444/3/2 438/3/2 445/3/2
f 439/4/2 428/4/2 446/4/2
f 445/4/2 439/4/2 446/4/2
f 440/3/2 441/3/2 447/3/2
f 441/3/2 442/3/2 447/3/2
f 442/1/2 443/1/2 448/1/2
f 447/3/2 442/3/2 448/3/2
f 443/2/2 444/2/2 449/2/2
f 444/3/2 445/3/2 449/3/2
f 445/3/2 446/3/2 449/3/2
f 449/3/2 446/3/2 450/3/2
f 419/4/2 440/4/2 451/4/2
f 440/3/2 447/3/2 452/3/2
f 451/4/2 440/4/2 452/4/2
f 448/1/2 443/1/2 453/1/2
f 447/1/2 448/1/2 453/1/2
f 443/2/2 449/2/2 454/2/2
f 453/1/2 443/1/2 454/1/2
f 450/3/2 446/3/2 455/3/2
f 446/4/2 428/4/2 455/4/2
f 455/4/2 428/4/2 456/4/2
f 452/3/2 447/3/2 457/3/2
f 451/3/2 452/3/2 457/3/2
f 447/1/2 453/1/2 458/1/2
f 457/3/2 447/3/2 458/3/2
f 454/2/2 449/2/2 459/2/2
f 453/2/2 454/2/2 459/2/2
f 449/1/2 450/1/2 460/1/2
f 459/2/2 449/2/2 460/2/2
f 455/3/2 456/3/2 461/3/2
f 460/1/2 450/1/2 461/1/2
f 450/3/2 455/3/2 461/3/2
f 461/3/2 456/3/2 462/3/2
f 458/1/2 453/1/2 463/1/2
f 457/1/2 458/1/2 463/1/2
f 453/2/2 459/2/2 463/2/2
f 459/1/2 460/1/2 464/1/2
f 463/2/2 459/2/2 464/2/2
f 461/1/2 462/1/2 464/1/2
f 460/1/2 461/1/2 464/1/2
f 464/1/2 462/1/2 465/1/2
f 465/1/2 462/1/2 466/1/2
f 457/1/2 463/1/2 467/1/2
f 451/3/2 457/3/2 467/3/2
f 463/1/2 464/1/2 467/1/2
f 464/1/2 465/1/2 467/1/2
f 467/1/2 465/1/2 468/1/2
f 468/1/2 465/1/2 469/1/2
f 469/1/2 465/1/2 470/1/2
f 466/1/2 462/1/2 471/1/2
f 465/2/2 466/2/2 471/2/2
f 471/1/2 462/1/2 472/1/2
f 462/3/2 456/3/2 473/3/2
f 472/1/2 462/1/2 473/1/2
f 451/3/2 467/3/2 474/3/2
f 467/3/2 468/3/2 474/3/2
f 474/3/2 468/3/2 475/3/2
f 468/1/2 469/1/2 476/1/2
f 475/3/2 468/3/2 476/3/2
f 469/2/2 470/2/2 477/2/2
f 476/1/2 469/1/2 477/1/2
f 477/2/2 470/2/2 478/2/2
f 470/1/2 465/1/2 479/1/2
f 478/2/2 470/2/2 479/2/2
f 471/2/2 472/2/2 480/2/2
f 479/1/2 465/1/2 480/1/2
f 465/2/2 471/2/2 480/2/2
f 480/2/2 472/2/2 481/2/2
f 473/3/2 456/3/2 482/3/2
f 472/3/2 473/3/2 482/3/2
f 482/3/2 456/3/2 483/3/2
f 477/2/2 478/2/2 484/2/2
f 475/3/2 476/3/2 484/3/2
f 476/2/2 477/2/2 484/2/2
f 478/1/2 479/1/2 485/1/2
f 484/2/2 478/2/2 485/2/2
f 480/1/2 481/1/2 485/1/2
f 479/1/2 480/1/2 485/1/2
f 485/1/2 481/1/2 486/1/2
f 481/2/2 472/2/2 487/2/2
f 486/1/2 481/1/2 487/1/2
f 472/3/2 482/3/2 488/3/2
f 487/2/2 472/2/2 488/2/2
f 475/3/2 484/3/2 489/3/2
f 474/4/2 475/4/2 489/4/2
f 484/3/2 485/3/2 489/3/2
f 489/3/2 485/3/2 490/3/2
f 485/1/2 486/1/2 491/1/2
f 490/3/2 485/3/2 491/3/2
f 487/3/2 488/3/2 492/3/2
f 491/1/2 486/1/2 492/1/2
f 486/3/2 487/3/2 492/3/2
f 492/3/2 488/3/2 493/3/2
f 488/3/2 482/3/2 494/3/2
f 493/3/2 488/3/2 494/3/2
f 482/4/2 483/4/2 494/4/2
f 489/4/2 490/4/2 495/4/2
f 474/4/2 489/4/2 495/4/2
f 492/3/2 493/3/2 496/3/2
f 495/4/2 490/4/2 496/4/2
f 491/3/2 492/3/2 496/3/2
f 490/3/2 491/3/2 496/3/2
f 496/3/2 493/3/2 497/3/2
f 497/3/2 493/3/2 498/3/2
f 498/3/2 493/3/2 499/3/2
f 493/4/2 494/4/2 500/4/2
f 499/3/2 493/3/2 500/3/2
f 494/4/2 483/4/2 501/4/2
f 500/4/2 494/4/2 501/4/2
f 495/3/2 496/3/2 502/3/2
f 496/3/2 497/3/2 502/3/2
f 497/1/2 498/1/2 503/1/2
f 502/3/2 497/3/2 503/3/2
f 498/2/2 499/2/2 504/2/2
f 499/3/2 500/3/2 504/3/2
f 500/3/2 501/3/2 504/3/2
f 504/3/2 501/3/2 505/3/2
f 474/4/2 495/4/2 506/4/2
f 495/3/2 502/3/2 507/3/2
f 506/4/2 495/4/2 507/4/2
f 503/1/2 498/1/2 508/1/2
f 502/1/2 503/1/2 508/1/2
f 498/2/2 504/2/2 509/2/2
f 508/1/2 498/1/2 509/1/2
f 505/3/2 501/3/2 510/3/2
f 501/4/2 483/4/2 510/4/2
f 510/4/2 483/4/2 511/4/2
f 507/3/2 502/3/2 512/3/2
f 506/3/2 507/3/2 512/3/2
f 502/1/2 508/1/2 513/1/2
f 512/3/2 502/3/2 513/3/2
f 509/2/2 504/2/2 514/2/2
f 508/2/2 509/2/2 514/2/2
f 504/1/2 505/1/2 515/1/2
f 514/2/2 504/2/2 515/2/2
f 510/3/2 511/3/2 516/3/2
f 515/1/2 505/1/2 516/1/2
f 505/3/2 510/3/2 516/3/2
f 516/3/2 511/3/2 517/3/2
f 513/1/2 508/1/2 518/1/2
f 512/1/2 513/1/2 518/1/2
f 508/2/2 514/2/2 518/2/2
f 514/1/2 515/1/2 519/1/2
f 518/2/2 514/2/2 519/2/2
f 516/1/2 517/1/2 519/1/2
f 515/1/2 516/1/2 519/1/2
f 519/1/2 517/1/2 520/1/2
f 520/1/2 517/1/2 521/1/2
f 512/1/2 518/1/2 522/1/2
f 506/3/2 512/3/2 522/3/2
f 518/1/2 519/1/2 522/1/2
f 519/1/2 520/1/2 522/1/2
f 522/1/2 520/1/2 523/1/2
f 523/1/2 520/1/2 524/1/2
f 524/1/2 520/1/2 525/1/2
f 521/1/2 517/1/2 526/1/2
f 520/2/2 521/2/2 526/2/2
f 526/1/2 517/1/2 527/1/2
f 517/3/2 511/3/2 528/3/2
f 527/1/2 517/1/2 528/1/2
f 506/3/2 522/3/2 529/3/2
f 522/3/2 523/3/2 529/3/2
f 529/3/2 523/3/2 530/3/2
f 523/1/2 524/1/2 531/1/2
f 530/3/2 523/3/2 531/3/2
f 524/2/2 525/2/2 532/2/2
f 531/1/2 524/1/2 532/1/2
f 532/2/2 525/2/2 533/2/2
f 525/1/2 520/1/2 534/1/2
f 533/2/2 525/2/2 534/2/2
f 526/2/2 527/2/2 535/2/2
f 534/1/2 520/1/2 535/1/2
f 520/2/2 526/2/2 535/2/2
f 535/2/2 527/2/2 536/2/2
f 528/3/2 511/3/2 537/3/2
f 527/3/2 528/3/2 537/3/2
f 537/3/2 511/3/2 538/3/2
f 532/2/2 533/2/2 539/2/2
f 530/3/2 531/3/2 539/3/2
f 531/2/2 532/2/2 539/2/2
f 533/1/2 534/1/2 540/1/2
f 539/2/2 533/2/2 540/2/2
f 535/1/2 536/1/2 540/1/2
f 534/1/2 535/1/2 540/1/2
f 540/1/2 536/1/2 541/1/2
f 536/2/2 527/2/2 542/2/2
f 541/1/2 536/1/2 542/1/2
f 527/3/2 537/3/2 543/3/2
f 542/2/2 527/2/2 543/2/2
f 530/3/2 539/3/2 544/3/2
f 529/4/2 530/4/2 544/4/2
f 539/3/2 540/3/2 544/3/2
f 544/3/2 540/3/2 545/3/2
f 540/1/2 541/1/2 546/1/2
f 545/3/2 540/3/2 546/3/2
f 542/3/2 543/3/2 547/3/2
f 546/1/2 541/1/2 547/1/2
f 541/3/2 542/3/2 547/3/2
f 547/3/2 543/3/2 548/3/2
f 543/3/2 537/3/2 549/3/2
f 548/3/2 543/3/2 549/3/2
f 537/4/2 538/4/2 549/4/2
f 544/4/2 545/4/2 550/4/2
f 529/4/2 544/4/2 550/4/2
f 547/3/2 548/3/2 551/3/2
f 550/4/2 545/4/2 551/4/2
f 546/3/2 547/3/2 551/3/2
f 545/3/2 546/3/2 551/3/2
f 551/3/2 548/3/2 552/3/2
f 552/3/2 548/3/2 553/3/2
f 553/3/2 548/3/2 554/3/2
f 548/4/2 549/4/2 555/4/2
f 554/3/2 548/3/2 555/3/2
f 549/4/2 538/4/2 556/4/2
f 555/4/2 549/4/2 556/4/2
f 550/3/2 551/3/2 557/3/2
f 551/3/2 552/3/2 557/3/2
f 552/1/2 553/1/2 558/1/2
f 557/3/2 552/3/2 558/3/2
f 553/2/2 554/2/2 559/2/2
f 554/3/2 555/3/2 559/3/2
f 555/3/2 556/3/2 559/3/2
f 559/3/2 556/3/2 560/3/2
f 529/4/2 550/4/2 561/4/2
f 550/3/2 557/3/2 562/3/2
f 561/4/2 550/4/2 562/4/2
f 558/1/2 553/1/2 563/1/2
f 557/1/2 558/1/2 563/1/2
f 553/2/2 559/2/2 564/2/2
f 563/1/2 553/1/2 564/1/2
f 560/3/2 556/3/2 565/3/2
f 556/4/2 538/4/2 565/4/2
f 565/4/2 538/4/2 566/4/2
f 562/3/2 557/3/2 567/3/2
f 561/3/2 562/3/2 567/3/2
f 557/1/2 563/1/2 568/1/2
f 567/3/2 557/3/2 568/3/2
f 564/2/2 559/2/2 569/2/2
f 563/2/2 564/2/2 569/2/2
f 559/1/2 560/1/2 570/1/2
f 569/2/2 559/2/2 570/2/2
f 565/3/2 566/3/2 571/3/2
f 570/1/2 560/1/2 571/1/2
f 560/3/2 565/3/2 571/3/2
f 571/3/2 566/3/2 572/3/2
f 568/1/2 563/1/2 573/1/2
f 567/1/2 568/1/2 573/1/2
f 563/2/2 569/2/2 573/2/2
f 569/1/2 570/1/2 574/1/2
f 573/2/2 569/2/2 574/2/2
f 571/1/2 572/1/2 574/1/2
f 570/1/2 571/1/2 574/1/2
f 574/1/2 572/1/2 575/1/2
f 575/1/2 572/1/2 576/1/2
f 567/1/2 573/1/2 577/1/2
f 561/3/2 567/3/2 577/3/2
f 573/1/2 574/1/2 577/1/2
f 574/1/2 575/1/2 577/1/2
f 577/1/2 575/1/2 578/1/2
f 578/1/2 575/1/2 579/1/2
f 579/1/2 575/1/2 580/1/2
f 576/1/2 572/1/2 581/1/2
f 575/2/2 576/2/2 581/2/2
f 581/1/2 572/1/2 582/1/2
f 572/3/2 566/3/2 583/3/2
f 582/1/2 572/1/2 583/1/2
f 561/3/2 577/3/2 584/3/2
f 577/3/2 578/3/2 584/3/2
f 584/3/2 578/3/2 585/3/2
f 578/1/2 579/1/2 586/1/2
f 585/3/2 578/3/2 586/3/2
f 579/2/2 580/2/2 587/2/2
f 586/1/2 579/1/2 587/1/2
f 587/2/2 580/2/2 588/2/2
f 580/1/2 575/1/2 589/1/2
f 588/2/2 580/2/2 589/2/2
f 581/2/2 582/2/2 590/2/2
f 589/1/2 575/1/2 590/1/2
f 575/2/2 581/2/2 590/2/2
f 590/2/2 582/2/2 591/2/2
f 583/3/2 566/3/2 592/3/2
f 582/3/2 583/3/2 592/3/2
f 592/3/2 566/3/2 593/3/2
f 587/2/2 588/2/2 594/2/2
f 585/3/2 586/3/2 594/3/2
f 586/2/2 587/2/2 594/2/2
f 588/1/2 589/1/2 595/1/2
f 594/2/2 588/2/2 595/2/2
f 590/1/2 591/1/2 595/1/2
f 589/1/2 590/1/2 595/1/2
f 595/1/2 591/1/2 596/1/2
f 591/2/2 582/2/2 597/2/2
f 596/1/2 591/1/2 597/1/2
f 582/3/2 592/3/2 598/3/2
f 597/2/2 582/2/2 598/2/2
f 585/3/2 594/3/2 599/3/2
f 584/4/2 585/4/2 599/4/2
f 594/3/2 595/3/2 599/3/2
f 599/3/2 595/3/2 600/3/2
f 595/1/2 596/1/2 601/1/2
f 600/3/2 595/3/2 601/3/2
f 597/3/2 598/3/2 602/3/2
f 601/1/2 596/1/2 602/1/2
f 596/3/2 597/3/2 602/3/2
f 602/3/2 598/3/2 603/3/2
f 598/3/2 592/3/2 604/3/2
f 603/3/2 598/3/2 604/3/2
f 592/4/2 593/4/2 604/4/2
f 599/4/2 600/4/2 605/4/2
f 584/4/2 599/4/2 605/4/2
f 602/3/2 603/3/2 606/3/2
f 605/4/2 600/4/2 606/4/2
f 601/3/2 602/3/2 606/3/2
f 600/3/2 601/3/2 606/3/2
f 603/4/2 604/4/2 607/4/2
f 606/3/2 603/3/2 607/3/2
f 604/4/2 593/4/2 608/4/2
f 607/4/2 604/4/2 608/4/2
f 619/4/3 610/4/3 609/4/3
f 620/3/3 611/3/3 610/3/3
f 620/4/3 610/4/3 619/4/3
f 621/4/3 612/4/3 611/4/3
f 621/3/3 611/3/3 620/3/3
f 622/3/3 613/3/3 612/3/3
f 622/4/3 612/4/3 621/4/3
f 623/4/3 614/4/3 613/4/3
f 623/3/3 613/3/3 622/3/3
f 624/3/3 615/3/3 614/3/3
f 624/4/3 614/4/3 623/4/3
f 625/4/3 616/4/3 615/4/3
f 625/3/3 615/3/3 624/3/3
f 626/3/3 617/3/3 616/3/3
f 626/4/3 616/4/3 625/4/3
f 627/4/3 618/4/3 617/4/3
f 627/3/3 617/3/3 626/3/3
f 628/4/3 618/4/3 627/4/3
f 630/3/3 621/3/3 620/3/3
f 631/3/3 621/3/3 630/3/3
f 632/3/3 623/3/3 622/3/3
f 633/3/3 623/3/3 632/3/3
f 634/3/3 625/3/3 624/3/3
f 635/3/3 625/3/3 634/3/3
f 636/3/3 627/3/3 626/3/3
f 637/3/3 627/3/3 636/3/3
f 639/4/3 630/4/3 629/4/3
f 640/3/3 631/3/3 630/3/3
f 640/4/3 630/4/3 639/4/3
f 641/4/3 632/4/3 631/4/3
f 641/3/3 631/3/3 640/3/3
f 642/3/3 633/3/3 632/3/3
f 642/4/3 632/4/3 641/4/3
f 643/4/3 634/4/3 633/4/3
f 643/3/3 633/3/3 642/3/3
f 644/3/3 635/3/3 634/3/3
f 644/4/3 634/4/3 643/4/3
f 645/4/3 636/4/3 635/4/3
f 645/3/3 635/3/3 644/3/3
f 646/3/3 637/3/3 636/3/3
f 646/4/3 636/4/3 645/4/3
f 647/4/3 638/4/3 637/4/3
f 647/3/3 637/3/3 646/3/3
f 648/4/3 638/4/3 647/4/3
f 665/3/3 650/3/3 649/3/3
f 666/3/3 650/3/3 665/3/3
f 667/3/3 652/3/3 651/3/3
f 668/3/3 652/3/3 667/3/3
f 669/3/3 654/3/3 653/3/3
f 670/3/3 654/3/3 669/3/3
f 671/3/3 656/3/3 655/3/3
f 672/3/3 656/3/3 671/3/3
f 673/3/3 658/3/3 657/3/3
f 674/3/3 658/3/3 673/3/3
f 675/3/3 660/3/3 659/3/3
f 676/3/3 660/3/3 675/3/3
f 677/3/3 662/3/3 661/3/3
f 678/3/3 662/3/3 677/3/3
f 679/3/3 664/3/3 663/3/3
f 680/3/3 664/3/3 679/3/3
f 691/3/3 682/3/3 681/3/3
f 692/3/3 682/3/3 691/3/3
f 693/3/3 684/3/3 683/3/3
f 694/3/3 684/3/3 693/3/3
f 695/3/3 686/3/3 685/3/3
f 696/3/3 686/3/3 695/3/3
f 697/3/3 688/3/3 687/3/3
f 698/3/3 688/3/3 697/3/3
f 699/3/3 690/3/3 689/3/3
f 700/3/3 690/3/3 699/3/3
f 701/3/4 702/3/4 711/3/4
f 711/3/4 702/3/4 712/3/4
f 703/3/4 704/3/4 713/3/4
f 713/3/4 704/3/4 714/3/4
f 705/3/4 706/3/4 715/3/4
f 715/3/4 706/3/4 716/3/4
f 707/3/4 708/3/4 717/3/4
f 717/3/4 708/3/4 718/3/4
f 709/3/4 710/3/4 719/3/4
f 719/3/4 710/3/4 720/3/4
f 721/3/4 722/3/4 737/3/4
f 737/3/4 722/3/4 738/3/4
f 723/3/4 724/3/4 739/3/4
f 739/3/4 724/3/4 740/3/4
f 725/3/4 726/3/4 741/3/4
f 741/3/4 726/3/4 742/3/4
f 727/3/4 728/3/4 743/3/4
f 743/3/4 728/3/4 744/3/4
f 729/3/4 730/3/4 745/3/4
f 745/3/4 730/3/4 746/3/4
f 731/3/4 732/3/4 747/3/4
f 747/3/4 732/3/4 748/3/4
f 733/3/4 734/3/4 749/3/4
f 749/3/4 734/3/4 750/3/4
f 735/3/4 736/3/4 751/3/4
f 751/3/4 736/3/4 752/3/4
f 753/4/4 754/4/4 763/4/4
f 754/3/4 755/3/4 764/3/4
f 763/4/4 754/4/4 764/4/4
f 755/4/4 756/4/4 765/4/4
f 764/3/4 755/3/4 765/3/4
f 756/3/4 757/3/4 766/3/4
f 765/4/4 756/4/4 766/4/4
f 757/4/4 758/4/4 767/4/4
f 766/3/4 757/3/4 767/3/4
f 758/3/4 759/3/4 768/3/4
f 767/4/4 758/4/4 768/4/4
f 759/4/4 760/4/4 769/4/4
f 768/3/4 759/3/4 769/3/4
f 760/3/4 761/3/4 770/3/4
f 769/4/4 760/4/4 770/4/4
f 761/4/4 762/4/4 771/4/4
f 770/3/4 761/3/4 771/3/4
f 771/4/4 762/4/4 772/4/4
f 764/3/4 765/3/4 774/3/4
f 774/3/4 765/3/4 775/3/4
f 766/3/4 767/3/4 776/3/4
f 776/3/4 767/3/4 777/3/4
f 768/3/4 769/3/4 778/3/4
f 778/3/4 769/3/4 779/3/4
f 770/3/4 771/3/4 780/3/4
f 780/3/4 771/3/4 781/3/4
f 773/4/4 774/4/4 783/4/4
f 774/3/4 775/3/4 784/3/4
f 783/4/4 774/4/4 784/4/4
f 775/4/4 776/4/4 785/4/4
f 784/3/4 775/3/4 785/3/4
f 776/3/4 777/3/4 786/3/4
f 785/4/4 776/4/4 786/4/4
f 777/4/4 778/4/4 787/4/4
f 786/3/4 777/3/4 787/3/4
f 778/3/4 779/3/4 788/3/4
f 787/4/4 778/4/4 788/4/4
f 779/4/4 780/4/4 789/4/4
f 788/3/4 779/3/4 789/3/4
f 780/3/4 781/3/4 790/3/4
f 789/4/4 780/4/4 790/4/4
f 781/4/4 782/4/4 791/4/4
f 790/3/4 781/3/4 791/3/4
f 791/4/4 782/4/4 792/4/4
f 797/4/5 794/4/5 793/4/5
f 798/4/5 794/4/5 797/4/5
f 799/4/5 796/4/5 795/4/5
f 800/4/5 796/4/5 799/4/5
f 801/3/5 798/3/5 797/3/5
f 801/3/5 799/3/5 798/3/5
f 801/3/5 800/3/5 799/3/5
f 802/3/5 800/3/5 801/3/5
f 803/3/5 800/3/5 802/3/5
f 804/3/5 800/3/5 803/3/5
f 805/4/5 802/4/5 801/4/5
f 806/4/5 802/4/5 805/4/5
f 807/4/5 804/4/5 803/4/5
f 808/4/5 804/4/5 807/4/5
f 811/3/5 810/3/5 809/3/5
f 812/3/5 810/3/5 811/3/5
f 815/3/5 814/3/5 813/3/5
f 816/3/5 814/3/5 815/3/5
f 819/3/5 818/3/5 817/3/5
f 820/3/5 818/3/5 819/3/5
f 823/3/5 822/3/5 821/3/5
f 824/3/5 822/3/5 823/3/5
f 827/3/5 826/3/5 825/3/5
f 828/3/5 826/3/5 827/3/5
f 831/3/5 830/3/5 829/3/5
f 832/3/5 830/3/5 831/3/5
f 835/3/5 834/3/5 833/3/5
f 836/3/5 834/3/5 835/3/5
f 839/3/5 838/3/5 837/3/5
f 840/3/5 838/3/5 839/3/5
f 843/3/5 842/3/5 841/3/5
f 844/3/5 842/3/5 843/3/5
f 847/3/5 846/3/5 845/3/5
f 848/3/5 846/3/5 847/3/5
f 851/3/5 850/3/5 849/3/5
f 852/3/5 850/3/5 851/3/5
f 855/3/5 854/3/5 853/3/5
f 856/3/5 854/3/5 855/3/5
f 859/3/5 858/3/5 857/3/5
f 860/3/5 858/3/5 859/3/5
f 863/3/5 862/3/5 861/3/5
f 864/3/5 862/3/5 863/3/5
f 867/3/5 866/3/5 865/3/5
f 868/3/5 866/3/5 867/3/5
f 871/3/5 870/3/5 869/3/5
f 872/3/5 870/3/5 871/3/5
f 873/3/6 874/3/6 875/3/6
f 875/3/6 874/3/6 876/3/6
f 877/3/6 878/3/6 879/3/6
f 879/3/6 878/3/6 880/3/6
f 881/3/6 882/3/6 883/3/6
f 883/3/6 882/3/6 884/3/6
f 885/3/6 886/3/6 887/3/6
f 887/3/6 886/3/6 888/3/6
f 889/3/6 890/3/6 891/3/6
f 891/3/6 890/3/6 892/3/6
f 893/3/6 894/3/6 895/3/6
f 895/3/6 894/3/6 896/3/6
f 897/3/6 898/3/6 899/3/6
f 899/3/6 898/3/6 900/3/6
f 901/3/6 902/3/6 903/3/6
f 903/3/6 902/3/6 904/3/6
f 905/3/6 906/3/6 907/3/6
f 907/3/6 906/3/6 908/3/6
f 909/3/6 910/3/6 911/3/6
f 911/3/6 910/3/6 912/3/6
f 913/3/6 914/3/6 915/3/6
f 915/3/6 914/3/6 916/3/6
f 917/3/6 918/3/6 919/3/6
f 919/3/6 918/3/6 920/3/6
f 921/3/6 922/3/6 923/3/6
f 923/3/6 922/3/6 924/3/6
f 925/3/6 926/3/6 927/3/6
f 927/3/6 926/3/6 928/3/6
f 929/3/6 930/3/6 931/3/6
f 931/3/6 930/3/6 932/3/6
f 933/3/6 934/3/6 935/3/6
f 935/3/6 934/3/6 936/3/6
f 937/4/6 938/4/6 941/4/6
f 941/4/6 938/4/6 942/4/6
f 939/4/6 940/4/6 943/4/6
f 943/4/6 940/4/6 944/4/6
f 941/3/6 942/3/6 945/3/6
f 942/3/6 943/3/6 945/3/6
f 943/3/6 944/3/6 945/3/6
f 945/3/6 944/3/6 946/3/6
f 946/3/6 944/3/6 947/3/6
f 947/3/6 944/3/6 948/3/6
f 945/4/6 946/4/6 949/4/6
f 949/4/6 946/4/6 950/4/6
f 947/4/6 948/4/6 951/4/6
f 951/4/6 948/4/6 952/4/6
