# MagicaVoxel @ Ephtracy

# group
o 

# material
mtllib LogWallCorner.mtl
usemtl palette

# normals
vn -1 0 0
vn 1 0 0
vn 0 0 1
vn 0 0 -1
vn 0 -1 0
vn 0 1 0

# texcoords
vt 0.201172 0.5
vt 0.369141 0.5
vt 0.537109 0.5
vt 0.982422 0.5

# verts
v -2.5 0 0.2
v -2.5 0 -0.2
v -2.5 4 0.2
v -2.5 4 -0.2
v -2.4 0 0.4
v -2.4 0 0.2
v -2.4 0 -0.2
v -2.4 0 -0.4
v -2.4 4 0.4
v -2.4 4 0.2
v -2.4 4 -0.2
v -2.4 4 -0.4
v -2.2 0 0.5
v -2.2 0 0.4
v -2.2 0 -0.4
v -2.2 0 -0.5
v -2.2 4 0.5
v -2.2 4 0.4
v -2.2 4 -0.4
v -2.2 4 -0.5
v -1.6 0 0.5
v -1.6 0 0.4
v -1.6 0 -0.4
v -1.6 0 -0.5
v -1.6 4 0.5
v -1.6 4 0.4
v -1.6 4 -0.4
v -1.6 4 -0.5
v 2.3 0 0.5
v 2.3 0 0.2
v 2.3 0 -0.2
v 2.3 0 -0.5
v 2.3 0.1 0.4
v 2.3 0.1 0.2
v 2.3 0.1 -0.2
v 2.3 0.1 -0.4
v 2.3 0.3 0.5
v 2.3 0.3 0.4
v 2.3 0.3 -0.4
v 2.3 0.3 -0.5
v 2.3 0.7 0.5
v 2.3 0.7 0.4
v 2.3 0.7 -0.4
v 2.3 0.7 -0.5
v 2.3 0.9 0.4
v 2.3 0.9 0.2
v 2.3 0.9 -0.2
v 2.3 0.9 -0.4
v 2.3 1.1 0.4
v 2.3 1.1 0.2
v 2.3 1.1 -0.2
v 2.3 1.1 -0.4
v 2.3 1.3 0.5
v 2.3 1.3 0.4
v 2.3 1.3 -0.4
v 2.3 1.3 -0.5
v 2.3 1.7 0.5
v 2.3 1.7 0.4
v 2.3 1.7 -0.4
v 2.3 1.7 -0.5
v 2.3 1.9 0.4
v 2.3 1.9 0.2
v 2.3 1.9 -0.2
v 2.3 1.9 -0.4
v 2.3 2.1 0.4
v 2.3 2.1 0.2
v 2.3 2.1 -0.2
v 2.3 2.1 -0.4
v 2.3 2.3 0.5
v 2.3 2.3 0.4
v 2.3 2.3 -0.4
v 2.3 2.3 -0.5
v 2.3 2.7 0.5
v 2.3 2.7 0.4
v 2.3 2.7 -0.4
v 2.3 2.7 -0.5
v 2.3 2.9 0.4
v 2.3 2.9 0.2
v 2.3 2.9 -0.2
v 2.3 2.9 -0.4
v 2.3 3.1 0.4
v 2.3 3.1 0.2
v 2.3 3.1 -0.2
v 2.3 3.1 -0.4
v 2.3 3.3 0.5
v 2.3 3.3 0.4
v 2.3 3.3 -0.4
v 2.3 3.3 -0.5
v 2.3 3.7 0.5
v 2.3 3.7 0.4
v 2.3 3.7 -0.4
v 2.3 3.7 -0.5
v 2.3 3.9 0.4
v 2.3 3.9 0.2
v 2.3 3.9 -0.2
v 2.3 3.9 -0.4
v 2.3 4 0.5
v 2.3 4 0.2
v 2.3 4 -0.2
v 2.3 4 -0.5
v -1.8 0 0.5
v -1.8 0 0.4
v -1.8 0 -0.4
v -1.8 0 -0.5
v -1.8 4 0.5
v -1.8 4 0.4
v -1.8 4 -0.4
v -1.8 4 -0.5
v -1.3 0 0.5
v -1.3 0 0.2
v -1.3 0 -0.2
v -1.3 0 -0.5
v -1.3 0.1 0.4
v -1.3 0.1 0.2
v -1.3 0.1 -0.2
v -1.3 0.1 -0.4
v -1.3 0.3 0.5
v -1.3 0.3 0.4
v -1.3 0.3 -0.4
v -1.3 0.3 -0.5
v -1.3 0.7 0.5
v -1.3 0.7 0.4
v -1.3 0.7 -0.4
v -1.3 0.7 -0.5
v -1.3 0.9 0.4
v -1.3 0.9 0.2
v -1.3 0.9 -0.2
v -1.3 0.9 -0.4
v -1.3 1.1 0.4
v -1.3 1.1 0.2
v -1.3 1.1 -0.2
v -1.3 1.1 -0.4
v -1.3 1.3 0.5
v -1.3 1.3 0.4
v -1.3 1.3 -0.4
v -1.3 1.3 -0.5
v -1.3 1.7 0.5
v -1.3 1.7 0.4
v -1.3 1.7 -0.4
v -1.3 1.7 -0.5
v -1.3 1.9 0.4
v -1.3 1.9 0.2
v -1.3 1.9 -0.2
v -1.3 1.9 -0.4
v -1.3 2.1 0.4
v -1.3 2.1 0.2
v -1.3 2.1 -0.2
v -1.3 2.1 -0.4
v -1.3 2.3 0.5
v -1.3 2.3 0.4
v -1.3 2.3 -0.4
v -1.3 2.3 -0.5
v -1.3 2.7 0.5
v -1.3 2.7 0.4
v -1.3 2.7 -0.4
v -1.3 2.7 -0.5
v -1.3 2.9 0.4
v -1.3 2.9 0.2
v -1.3 2.9 -0.2
v -1.3 2.9 -0.4
v -1.3 3.1 0.4
v -1.3 3.1 0.2
v -1.3 3.1 -0.2
v -1.3 3.1 -0.4
v -1.3 3.3 0.5
v -1.3 3.3 0.4
v -1.3 3.3 -0.4
v -1.3 3.3 -0.5
v -1.3 3.7 0.5
v -1.3 3.7 0.4
v -1.3 3.7 -0.4
v -1.3 3.7 -0.5
v -1.3 3.9 0.4
v -1.3 3.9 0.2
v -1.3 3.9 -0.2
v -1.3 3.9 -0.4
v -1.3 4 0.5
v -1.3 4 0.2
v -1.3 4 -0.2
v -1.3 4 -0.5
v 2.5 0 0.5
v 2.5 0 0.2
v 2.5 0 -0.2
v 2.5 0 -0.5
v 2.5 0.1 0.4
v 2.5 0.1 0.2
v 2.5 0.1 0.1
v 2.5 0.1 0
v 2.5 0.1 -0.1
v 2.5 0.1 -0.2
v 2.5 0.1 -0.4
v 2.5 0.2 0.3
v 2.5 0.2 0.1
v 2.5 0.2 -0.1
v 2.5 0.2 -0.3
v 2.5 0.3 0.5
v 2.5 0.3 0.4
v 2.5 0.3 0.1
v 2.5 0.3 0
v 2.5 0.3 -0.4
v 2.5 0.3 -0.5
v 2.5 0.4 0.4
v 2.5 0.4 0.3
v 2.5 0.4 0
v 2.5 0.4 -0.1
v 2.5 0.4 -0.3
v 2.5 0.4 -0.4
v 2.5 0.5 0.1
v 2.5 0.5 0
v 2.5 0.5 -0.1
v 2.5 0.5 -0.2
v 2.5 0.6 0.4
v 2.5 0.6 0.3
v 2.5 0.6 0.2
v 2.5 0.6 0
v 2.5 0.6 -0.2
v 2.5 0.6 -0.3
v 2.5 0.6 -0.4
v 2.5 0.7 0.5
v 2.5 0.7 0.4
v 2.5 0.7 0.3
v 2.5 0.7 0.2
v 2.5 0.7 0.1
v 2.5 0.7 0
v 2.5 0.7 -0.1
v 2.5 0.7 -0.2
v 2.5 0.7 -0.4
v 2.5 0.7 -0.5
v 2.5 0.8 0.3
v 2.5 0.8 0.1
v 2.5 0.8 -0.1
v 2.5 0.8 -0.2
v 2.5 0.8 -0.3
v 2.5 0.9 0.4
v 2.5 0.9 0.2
v 2.5 0.9 0.1
v 2.5 0.9 -0.1
v 2.5 0.9 -0.2
v 2.5 0.9 -0.4
v 2.5 1.1 0.4
v 2.5 1.1 0.2
v 2.5 1.1 0.1
v 2.5 1.1 0
v 2.5 1.1 -0.1
v 2.5 1.1 -0.2
v 2.5 1.1 -0.4
v 2.5 1.2 0.3
v 2.5 1.2 0.1
v 2.5 1.2 -0.1
v 2.5 1.2 -0.3
v 2.5 1.3 0.5
v 2.5 1.3 0.4
v 2.5 1.3 0.1
v 2.5 1.3 0
v 2.5 1.3 -0.4
v 2.5 1.3 -0.5
v 2.5 1.4 0.4
v 2.5 1.4 0.3
v 2.5 1.4 0
v 2.5 1.4 -0.1
v 2.5 1.4 -0.3
v 2.5 1.4 -0.4
v 2.5 1.5 0.1
v 2.5 1.5 0
v 2.5 1.5 -0.1
v 2.5 1.5 -0.2
v 2.5 1.6 0.4
v 2.5 1.6 0.3
v 2.5 1.6 0.2
v 2.5 1.6 0
v 2.5 1.6 -0.2
v 2.5 1.6 -0.3
v 2.5 1.6 -0.4
v 2.5 1.7 0.5
v 2.5 1.7 0.4
v 2.5 1.7 0.3
v 2.5 1.7 0.2
v 2.5 1.7 0.1
v 2.5 1.7 0
v 2.5 1.7 -0.1
v 2.5 1.7 -0.2
v 2.5 1.7 -0.4
v 2.5 1.7 -0.5
v 2.5 1.8 0.3
v 2.5 1.8 0.1
v 2.5 1.8 -0.1
v 2.5 1.8 -0.2
v 2.5 1.8 -0.3
v 2.5 1.9 0.4
v 2.5 1.9 0.2
v 2.5 1.9 0.1
v 2.5 1.9 -0.1
v 2.5 1.9 -0.2
v 2.5 1.9 -0.4
v 2.5 2.1 0.4
v 2.5 2.1 0.2
v 2.5 2.1 0.1
v 2.5 2.1 0
v 2.5 2.1 -0.1
v 2.5 2.1 -0.2
v 2.5 2.1 -0.4
v 2.5 2.2 0.3
v 2.5 2.2 0.1
v 2.5 2.2 -0.1
v 2.5 2.2 -0.3
v 2.5 2.3 0.5
v 2.5 2.3 0.4
v 2.5 2.3 0.1
v 2.5 2.3 0
v 2.5 2.3 -0.4
v 2.5 2.3 -0.5
v 2.5 2.4 0.4
v 2.5 2.4 0.3
v 2.5 2.4 0
v 2.5 2.4 -0.1
v 2.5 2.4 -0.3
v 2.5 2.4 -0.4
v 2.5 2.5 0.1
v 2.5 2.5 0
v 2.5 2.5 -0.1
v 2.5 2.5 -0.2
v 2.5 2.6 0.4
v 2.5 2.6 0.3
v 2.5 2.6 0.2
v 2.5 2.6 0
v 2.5 2.6 -0.2
v 2.5 2.6 -0.3
v 2.5 2.6 -0.4
v 2.5 2.7 0.5
v 2.5 2.7 0.4
v 2.5 2.7 0.3
v 2.5 2.7 0.2
v 2.5 2.7 0.1
v 2.5 2.7 0
v 2.5 2.7 -0.1
v 2.5 2.7 -0.2
v 2.5 2.7 -0.4
v 2.5 2.7 -0.5
v 2.5 2.8 0.3
v 2.5 2.8 0.1
v 2.5 2.8 -0.1
v 2.5 2.8 -0.2
v 2.5 2.8 -0.3
v 2.5 2.9 0.4
v 2.5 2.9 0.2
v 2.5 2.9 0.1
v 2.5 2.9 -0.1
v 2.5 2.9 -0.2
v 2.5 2.9 -0.4
v 2.5 3.1 0.4
v 2.5 3.1 0.2
v 2.5 3.1 0.1
v 2.5 3.1 0
v 2.5 3.1 -0.1
v 2.5 3.1 -0.2
v 2.5 3.1 -0.4
v 2.5 3.2 0.3
v 2.5 3.2 0.1
v 2.5 3.2 -0.1
v 2.5 3.2 -0.3
v 2.5 3.3 0.5
v 2.5 3.3 0.4
v 2.5 3.3 0.1
v 2.5 3.3 0
v 2.5 3.3 -0.4
v 2.5 3.3 -0.5
v 2.5 3.4 0.4
v 2.5 3.4 0.3
v 2.5 3.4 0
v 2.5 3.4 -0.1
v 2.5 3.4 -0.3
v 2.5 3.4 -0.4
v 2.5 3.5 0.1
v 2.5 3.5 0
v 2.5 3.5 -0.1
v 2.5 3.5 -0.2
v 2.5 3.6 0.4
v 2.5 3.6 0.3
v 2.5 3.6 0.2
v 2.5 3.6 0
v 2.5 3.6 -0.2
v 2.5 3.6 -0.3
v 2.5 3.6 -0.4
v 2.5 3.7 0.5
v 2.5 3.7 0.4
v 2.5 3.7 0.3
v 2.5 3.7 0.2
v 2.5 3.7 0.1
v 2.5 3.7 0
v 2.5 3.7 -0.1
v 2.5 3.7 -0.2
v 2.5 3.7 -0.4
v 2.5 3.7 -0.5
v 2.5 3.8 0.3
v 2.5 3.8 0.1
v 2.5 3.8 -0.1
v 2.5 3.8 -0.2
v 2.5 3.8 -0.3
v 2.5 3.9 0.4
v 2.5 3.9 0.2
v 2.5 3.9 0.1
v 2.5 3.9 -0.1
v 2.5 3.9 -0.2
v 2.5 3.9 -0.4
v 2.5 4 0.5
v 2.5 4 0.2
v 2.5 4 -0.2
v 2.5 4 -0.5
v -2.2 0 0.5
v -2.2 4 0.5
v -1.8 0 0.5
v -1.8 4 0.5
v -1.6 0 0.5
v -1.6 4 0.5
v -1.5 0.3 0.5
v -1.5 0.7 0.5
v -1.5 1.3 0.5
v -1.5 1.7 0.5
v -1.5 2.3 0.5
v -1.5 2.7 0.5
v -1.5 3.3 0.5
v -1.5 3.7 0.5
v -1.3 0 0.5
v -1.3 0.3 0.5
v -1.3 0.7 0.5
v -1.3 1.3 0.5
v -1.3 1.7 0.5
v -1.3 2.3 0.5
v -1.3 2.7 0.5
v -1.3 3.3 0.5
v -1.3 3.7 0.5
v -1.3 4 0.5
v 2.3 0 0.5
v 2.3 0.3 0.5
v 2.3 0.7 0.5
v 2.3 1.3 0.5
v 2.3 1.7 0.5
v 2.3 2.3 0.5
v 2.3 2.7 0.5
v 2.3 3.3 0.5
v 2.3 3.7 0.5
v 2.3 4 0.5
v 2.5 0 0.5
v 2.5 0.3 0.5
v 2.5 0.7 0.5
v 2.5 1.3 0.5
v 2.5 1.7 0.5
v 2.5 2.3 0.5
v 2.5 2.7 0.5
v 2.5 3.3 0.5
v 2.5 3.7 0.5
v 2.5 4 0.5
v -2.4 0 0.4
v -2.4 4 0.4
v -2.2 0 0.4
v -2.2 4 0.4
v -1.8 0 0.4
v -1.8 4 0.4
v -1.6 0 0.4
v -1.6 4 0.4
v -1.3 0.1 0.4
v -1.3 0.3 0.4
v -1.3 0.7 0.4
v -1.3 0.9 0.4
v -1.3 1.1 0.4
v -1.3 1.3 0.4
v -1.3 1.7 0.4
v -1.3 1.9 0.4
v -1.3 2.1 0.4
v -1.3 2.3 0.4
v -1.3 2.7 0.4
v -1.3 2.9 0.4
v -1.3 3.1 0.4
v -1.3 3.3 0.4
v -1.3 3.7 0.4
v -1.3 3.9 0.4
v 2.3 0.1 0.4
v 2.3 0.3 0.4
v 2.3 0.7 0.4
v 2.3 0.9 0.4
v 2.3 1.1 0.4
v 2.3 1.3 0.4
v 2.3 1.7 0.4
v 2.3 1.9 0.4
v 2.3 2.1 0.4
v 2.3 2.3 0.4
v 2.3 2.7 0.4
v 2.3 2.9 0.4
v 2.3 3.1 0.4
v 2.3 3.3 0.4
v 2.3 3.7 0.4
v 2.3 3.9 0.4
v -2.5 0 0.2
v -2.5 4 0.2
v -2.4 0 0.2
v -2.4 4 0.2
v -1.3 0 0.2
v -1.3 0.1 0.2
v -1.3 0.9 0.2
v -1.3 1.1 0.2
v -1.3 1.9 0.2
v -1.3 2.1 0.2
v -1.3 2.9 0.2
v -1.3 3.1 0.2
v -1.3 3.9 0.2
v -1.3 4 0.2
v 2.3 0 0.2
v 2.3 0.1 0.2
v 2.3 0.9 0.2
v 2.3 1.1 0.2
v 2.3 1.9 0.2
v 2.3 2.1 0.2
v 2.3 2.9 0.2
v 2.3 3.1 0.2
v 2.3 3.9 0.2
v 2.3 4 0.2
v -2.5 0 -0.2
v -2.5 4 -0.2
v -2.4 0 -0.2
v -2.4 4 -0.2
v -1.3 0 -0.2
v -1.3 0.1 -0.2
v -1.3 0.9 -0.2
v -1.3 1.1 -0.2
v -1.3 1.9 -0.2
v -1.3 2.1 -0.2
v -1.3 2.9 -0.2
v -1.3 3.1 -0.2
v -1.3 3.9 -0.2
v -1.3 4 -0.2
v 2.3 0 -0.2
v 2.3 0.1 -0.2
v 2.3 0.9 -0.2
v 2.3 1.1 -0.2
v 2.3 1.9 -0.2
v 2.3 2.1 -0.2
v 2.3 2.9 -0.2
v 2.3 3.1 -0.2
v 2.3 3.9 -0.2
v 2.3 4 -0.2
v -2.4 0 -0.4
v -2.4 4 -0.4
v -2.2 0 -0.4
v -2.2 4 -0.4
v -1.8 0 -0.4
v -1.8 4 -0.4
v -1.6 0 -0.4
v -1.6 4 -0.4
v -1.3 0.1 -0.4
v -1.3 0.3 -0.4
v -1.3 0.7 -0.4
v -1.3 0.9 -0.4
v -1.3 1.1 -0.4
v -1.3 1.3 -0.4
v -1.3 1.7 -0.4
v -1.3 1.9 -0.4
v -1.3 2.1 -0.4
v -1.3 2.3 -0.4
v -1.3 2.7 -0.4
v -1.3 2.9 -0.4
v -1.3 3.1 -0.4
v -1.3 3.3 -0.4
v -1.3 3.7 -0.4
v -1.3 3.9 -0.4
v 2.3 0.1 -0.4
v 2.3 0.3 -0.4
v 2.3 0.7 -0.4
v 2.3 0.9 -0.4
v 2.3 1.1 -0.4
v 2.3 1.3 -0.4
v 2.3 1.7 -0.4
v 2.3 1.9 -0.4
v 2.3 2.1 -0.4
v 2.3 2.3 -0.4
v 2.3 2.7 -0.4
v 2.3 2.9 -0.4
v 2.3 3.1 -0.4
v 2.3 3.3 -0.4
v 2.3 3.7 -0.4
v 2.3 3.9 -0.4
v -2.2 0 -0.5
v -2.2 4 -0.5
v -1.8 0 -0.5
v -1.8 4 -0.5
v -1.6 0 -0.5
v -1.6 4 -0.5
v -1.5 0.3 -0.5
v -1.5 0.7 -0.5
v -1.5 1.3 -0.5
v -1.5 1.7 -0.5
v -1.5 2.3 -0.5
v -1.5 2.7 -0.5
v -1.5 3.3 -0.5
v -1.5 3.7 -0.5
v -1.3 0 -0.5
v -1.3 0.3 -0.5
v -1.3 0.7 -0.5
v -1.3 1.3 -0.5
v -1.3 1.7 -0.5
v -1.3 2.3 -0.5
v -1.3 2.7 -0.5
v -1.3 3.3 -0.5
v -1.3 3.7 -0.5
v -1.3 4 -0.5
v 2.3 0 -0.5
v 2.3 0.3 -0.5
v 2.3 0.7 -0.5
v 2.3 1.3 -0.5
v 2.3 1.7 -0.5
v 2.3 2.3 -0.5
v 2.3 2.7 -0.5
v 2.3 3.3 -0.5
v 2.3 3.7 -0.5
v 2.3 4 -0.5
v 2.5 0 -0.5
v 2.5 0.3 -0.5
v 2.5 0.7 -0.5
v 2.5 1.3 -0.5
v 2.5 1.7 -0.5
v 2.5 2.3 -0.5
v 2.5 2.7 -0.5
v 2.5 3.3 -0.5
v 2.5 3.7 -0.5
v 2.5 4 -0.5
v -2.2 0 0.5
v -1.8 0 0.5
v -1.6 0 0.5
v -1.3 0 0.5
v 2.3 0 0.5
v 2.5 0 0.5
v -2.4 0 0.4
v -2.2 0 0.4
v -2.1 0 0.4
v -1.9 0 0.4
v -1.8 0 0.4
v -1.6 0 0.4
v -2.3 0 0.3
v -2.1 0 0.3
v -1.9 0 0.3
v -1.8 0 0.3
v -1.7 0 0.3
v -2.5 0 0.2
v -2.4 0 0.2
v -2.3 0 0.2
v -2.2 0 0.2
v -2.1 0 0.2
v -2 0 0.2
v -1.9 0 0.2
v -1.8 0 0.2
v -1.6 0 0.2
v -1.3 0 0.2
v 2.3 0 0.2
v 2.5 0 0.2
v -2.4 0 0.1
v -2.3 0 0.1
v -2.2 0 0.1
v -2 0 0.1
v -1.8 0 0.1
v -1.7 0 0.1
v -1.6 0 0.1
v -2.1 0 0
v -2 0 0
v -1.9 0 0
v -1.8 0 0
v -2.4 0 -0.1
v -2.3 0 -0.1
v -2 0 -0.1
v -1.9 0 -0.1
v -1.7 0 -0.1
v -1.6 0 -0.1
v -2.5 0 -0.2
v -2.4 0 -0.2
v -2.1 0 -0.2
v -2 0 -0.2
v -1.6 0 -0.2
v -1.3 0 -0.2
v 2.3 0 -0.2
v 2.5 0 -0.2
v -2.3 0 -0.3
v -2.1 0 -0.3
v -1.9 0 -0.3
v -1.7 0 -0.3
v -2.4 0 -0.4
v -2.2 0 -0.4
v -2.1 0 -0.4
v -2 0 -0.4
v -1.9 0 -0.4
v -1.8 0 -0.4
v -1.6 0 -0.4
v -2.2 0 -0.5
v -1.8 0 -0.5
v -1.6 0 -0.5
v -1.3 0 -0.5
v 2.3 0 -0.5
v 2.5 0 -0.5
v -1.3 0.1 0.4
v 2.3 0.1 0.4
v -1.3 0.1 0.2
v 2.3 0.1 0.2
v -1.3 0.1 -0.2
v 2.3 0.1 -0.2
v -1.3 0.1 -0.4
v 2.3 0.1 -0.4
v -1.3 0.3 0.5
v 2.3 0.3 0.5
v -1.3 0.3 0.4
v 2.3 0.3 0.4
v -1.3 0.3 -0.4
v 2.3 0.3 -0.4
v -1.3 0.3 -0.5
v 2.3 0.3 -0.5
v -1.3 1.1 0.4
v 2.3 1.1 0.4
v -1.3 1.1 0.2
v 2.3 1.1 0.2
v -1.3 1.1 -0.2
v 2.3 1.1 -0.2
v -1.3 1.1 -0.4
v 2.3 1.1 -0.4
v -1.3 1.3 0.5
v 2.3 1.3 0.5
v -1.3 1.3 0.4
v 2.3 1.3 0.4
v -1.3 1.3 -0.4
v 2.3 1.3 -0.4
v -1.3 1.3 -0.5
v 2.3 1.3 -0.5
v -1.3 2.1 0.4
v 2.3 2.1 0.4
v -1.3 2.1 0.2
v 2.3 2.1 0.2
v -1.3 2.1 -0.2
v 2.3 2.1 -0.2
v -1.3 2.1 -0.4
v 2.3 2.1 -0.4
v -1.3 2.3 0.5
v 2.3 2.3 0.5
v -1.3 2.3 0.4
v 2.3 2.3 0.4
v -1.3 2.3 -0.4
v 2.3 2.3 -0.4
v -1.3 2.3 -0.5
v 2.3 2.3 -0.5
v -1.3 3.1 0.4
v 2.3 3.1 0.4
v -1.3 3.1 0.2
v 2.3 3.1 0.2
v -1.3 3.1 -0.2
v 2.3 3.1 -0.2
v -1.3 3.1 -0.4
v 2.3 3.1 -0.4
v -1.3 3.3 0.5
v 2.3 3.3 0.5
v -1.3 3.3 0.4
v 2.3 3.3 0.4
v -1.3 3.3 -0.4
v 2.3 3.3 -0.4
v -1.3 3.3 -0.5
v 2.3 3.3 -0.5
v -1.3 0.7 0.5
v 2.3 0.7 0.5
v -1.3 0.7 0.4
v 2.3 0.7 0.4
v -1.3 0.7 -0.4
v 2.3 0.7 -0.4
v -1.3 0.7 -0.5
v 2.3 0.7 -0.5
v -1.3 0.9 0.4
v 2.3 0.9 0.4
v -1.3 0.9 0.2
v 2.3 0.9 0.2
v -1.3 0.9 -0.2
v 2.3 0.9 -0.2
v -1.3 0.9 -0.4
v 2.3 0.9 -0.4
v -1.3 1.7 0.5
v 2.3 1.7 0.5
v -1.3 1.7 0.4
v 2.3 1.7 0.4
v -1.3 1.7 -0.4
v 2.3 1.7 -0.4
v -1.3 1.7 -0.5
v 2.3 1.7 -0.5
v -1.3 1.9 0.4
v 2.3 1.9 0.4
v -1.3 1.9 0.2
v 2.3 1.9 0.2
v -1.3 1.9 -0.2
v 2.3 1.9 -0.2
v -1.3 1.9 -0.4
v 2.3 1.9 -0.4
v -1.3 2.7 0.5
v 2.3 2.7 0.5
v -1.3 2.7 0.4
v 2.3 2.7 0.4
v -1.3 2.7 -0.4
v 2.3 2.7 -0.4
v -1.3 2.7 -0.5
v 2.3 2.7 -0.5
v -1.3 2.9 0.4
v 2.3 2.9 0.4
v -1.3 2.9 0.2
v 2.3 2.9 0.2
v -1.3 2.9 -0.2
v 2.3 2.9 -0.2
v -1.3 2.9 -0.4
v 2.3 2.9 -0.4
v -1.3 3.7 0.5
v 2.3 3.7 0.5
v -1.3 3.7 0.4
v 2.3 3.7 0.4
v -1.3 3.7 -0.4
v 2.3 3.7 -0.4
v -1.3 3.7 -0.5
v 2.3 3.7 -0.5
v -1.3 3.9 0.4
v 2.3 3.9 0.4
v -1.3 3.9 0.2
v 2.3 3.9 0.2
v -1.3 3.9 -0.2
v 2.3 3.9 -0.2
v -1.3 3.9 -0.4
v 2.3 3.9 -0.4
v -2.2 4 0.5
v -1.8 4 0.5
v -1.6 4 0.5
v -1.3 4 0.5
v 2.3 4 0.5
v 2.5 4 0.5
v -2.4 4 0.4
v -2.2 4 0.4
v -2.1 4 0.4
v -1.9 4 0.4
v -1.8 4 0.4
v -1.6 4 0.4
v -2.3 4 0.3
v -2.1 4 0.3
v -1.9 4 0.3
v -1.8 4 0.3
v -1.7 4 0.3
v -2.5 4 0.2
v -2.4 4 0.2
v -2.3 4 0.2
v -2.2 4 0.2
v -2.1 4 0.2
v -2 4 0.2
v -1.9 4 0.2
v -1.8 4 0.2
v -1.6 4 0.2
v -1.3 4 0.2
v 2.3 4 0.2
v 2.5 4 0.2
v -2.4 4 0.1
v -2.3 4 0.1
v -2.2 4 0.1
v -2 4 0.1
v -1.9 4 0.1
v -1.8 4 0.1
v -1.7 4 0.1
v -1.6 4 0.1
v -2.1 4 0
v -2 4 0
v -1.8 4 0
v -1.6 4 0
v -2.4 4 -0.1
v -2.3 4 -0.1
v -2.2 4 -0.1
v -2.1 4 -0.1
v -1.9 4 -0.1
v -1.7 4 -0.1
v -1.6 4 -0.1
v -2.5 4 -0.2
v -2.4 4 -0.2
v -2.1 4 -0.2
v -2 4 -0.2
v -1.6 4 -0.2
v -1.3 4 -0.2
v 2.3 4 -0.2
v 2.5 4 -0.2
v -2.3 4 -0.3
v -2.2 4 -0.3
v -2.1 4 -0.3
v -1.9 4 -0.3
v -1.7 4 -0.3
v -2.4 4 -0.4
v -2.2 4 -0.4
v -2.1 4 -0.4
v -1.9 4 -0.4
v -1.8 4 -0.4
v -1.6 4 -0.4
v -2.2 4 -0.5
v -1.8 4 -0.5
v -1.6 4 -0.5
v -1.3 4 -0.5
v 2.3 4 -0.5
v 2.5 4 -0.5

# faces
f 3/3/1 2/3/1 1/3/1
f 4/3/1 2/3/1 3/3/1
f 9/3/1 6/3/1 5/3/1
f 10/3/1 6/3/1 9/3/1
f 11/3/1 8/3/1 7/3/1
f 12/3/1 8/3/1 11/3/1
f 17/3/1 14/3/1 13/3/1
f 18/3/1 14/3/1 17/3/1
f 19/3/1 16/3/1 15/3/1
f 20/3/1 16/3/1 19/3/1
f 25/4/1 22/4/1 21/4/1
f 26/4/1 22/4/1 25/4/1
f 27/4/1 24/4/1 23/4/1
f 28/4/1 24/4/1 27/4/1
f 33/4/1 30/4/1 29/4/1
f 34/4/1 30/4/1 33/4/1
f 35/4/1 32/4/1 31/4/1
f 36/4/1 32/4/1 35/4/1
f 37/4/1 33/4/1 29/4/1
f 38/4/1 33/4/1 37/4/1
f 39/4/1 32/4/1 36/4/1
f 40/4/1 32/4/1 39/4/1
f 45/4/1 42/4/1 41/4/1
f 48/4/1 44/4/1 43/4/1
f 49/4/1 46/4/1 45/4/1
f 49/4/1 45/4/1 41/4/1
f 50/4/1 46/4/1 49/4/1
f 51/4/1 48/4/1 47/4/1
f 52/4/1 44/4/1 48/4/1
f 52/4/1 48/4/1 51/4/1
f 53/4/1 49/4/1 41/4/1
f 54/4/1 49/4/1 53/4/1
f 55/4/1 44/4/1 52/4/1
f 56/4/1 44/4/1 55/4/1
f 61/4/1 58/4/1 57/4/1
f 64/4/1 60/4/1 59/4/1
f 65/4/1 62/4/1 61/4/1
f 65/4/1 61/4/1 57/4/1
f 66/4/1 62/4/1 65/4/1
f 67/4/1 64/4/1 63/4/1
f 68/4/1 60/4/1 64/4/1
f 68/4/1 64/4/1 67/4/1
f 69/4/1 65/4/1 57/4/1
f 70/4/1 65/4/1 69/4/1
f 71/4/1 60/4/1 68/4/1
f 72/4/1 60/4/1 71/4/1
f 77/4/1 74/4/1 73/4/1
f 80/4/1 76/4/1 75/4/1
f 81/4/1 78/4/1 77/4/1
f 81/4/1 77/4/1 73/4/1
f 82/4/1 78/4/1 81/4/1
f 83/4/1 80/4/1 79/4/1
f 84/4/1 76/4/1 80/4/1
f 84/4/1 80/4/1 83/4/1
f 85/4/1 81/4/1 73/4/1
f 86/4/1 81/4/1 85/4/1
f 87/4/1 76/4/1 84/4/1
f 88/4/1 76/4/1 87/4/1
f 93/4/1 90/4/1 89/4/1
f 96/4/1 92/4/1 91/4/1
f 97/4/1 94/4/1 93/4/1
f 97/4/1 93/4/1 89/4/1
f 98/4/1 94/4/1 97/4/1
f 99/4/1 96/4/1 95/4/1
f 100/4/1 92/4/1 96/4/1
f 100/4/1 96/4/1 99/4/1
f 101/3/2 102/3/2 105/3/2
f 105/3/2 102/3/2 106/3/2
f 103/3/2 104/3/2 107/3/2
f 107/3/2 104/3/2 108/3/2
f 109/4/2 110/4/2 113/4/2
f 113/4/2 110/4/2 114/4/2
f 111/4/2 112/4/2 115/4/2
f 115/4/2 112/4/2 116/4/2
f 109/4/2 113/4/2 117/4/2
f 117/4/2 113/4/2 118/4/2
f 116/4/2 112/4/2 119/4/2
f 119/4/2 112/4/2 120/4/2
f 121/4/2 122/4/2 125/4/2
f 123/4/2 124/4/2 128/4/2
f 125/4/2 126/4/2 129/4/2
f 121/4/2 125/4/2 129/4/2
f 129/4/2 126/4/2 130/4/2
f 127/4/2 128/4/2 131/4/2
f 128/4/2 124/4/2 132/4/2
f 131/4/2 128/4/2 132/4/2
f 121/4/2 129/4/2 133/4/2
f 133/4/2 129/4/2 134/4/2
f 132/4/2 124/4/2 135/4/2
f 135/4/2 124/4/2 136/4/2
f 137/4/2 138/4/2 141/4/2
f 139/4/2 140/4/2 144/4/2
f 141/4/2 142/4/2 145/4/2
f 137/4/2 141/4/2 145/4/2
f 145/4/2 142/4/2 146/4/2
f 143/4/2 144/4/2 147/4/2
f 144/4/2 140/4/2 148/4/2
f 147/4/2 144/4/2 148/4/2
f 137/4/2 145/4/2 149/4/2
f 149/4/2 145/4/2 150/4/2
f 148/4/2 140/4/2 151/4/2
f 151/4/2 140/4/2 152/4/2
f 153/4/2 154/4/2 157/4/2
f 155/4/2 156/4/2 160/4/2
f 157/4/2 158/4/2 161/4/2
f 153/4/2 157/4/2 161/4/2
f 161/4/2 158/4/2 162/4/2
f 159/4/2 160/4/2 163/4/2
f 160/4/2 156/4/2 164/4/2
f 163/4/2 160/4/2 164/4/2
f 153/4/2 161/4/2 165/4/2
f 165/4/2 161/4/2 166/4/2
f 164/4/2 156/4/2 167/4/2
f 167/4/2 156/4/2 168/4/2
f 169/4/2 170/4/2 173/4/2
f 171/4/2 172/4/2 176/4/2
f 173/4/2 174/4/2 177/4/2
f 169/4/2 173/4/2 177/4/2
f 177/4/2 174/4/2 178/4/2
f 175/4/2 176/4/2 179/4/2
f 176/4/2 172/4/2 180/4/2
f 179/4/2 176/4/2 180/4/2
f 181/4/2 182/4/2 185/4/2
f 182/3/2 183/3/2 186/3/2
f 185/4/2 182/4/2 186/4/2
f 186/3/2 183/3/2 187/3/2
f 187/3/2 183/3/2 188/3/2
f 188/3/2 183/3/2 189/3/2
f 183/4/2 184/4/2 190/4/2
f 189/3/2 183/3/2 190/3/2
f 190/4/2 184/4/2 191/4/2
f 185/3/2 186/3/2 192/3/2
f 186/3/2 187/3/2 192/3/2
f 187/1/2 188/1/2 193/1/2
f 192/3/2 187/3/2 193/3/2
f 188/2/2 189/2/2 194/2/2
f 190/3/2 191/3/2 194/3/2
f 189/3/2 190/3/2 194/3/2
f 194/3/2 191/3/2 195/3/2
f 181/4/2 185/4/2 196/4/2
f 185/3/2 192/3/2 197/3/2
f 196/4/2 185/4/2 197/4/2
f 193/1/2 188/1/2 198/1/2
f 192/1/2 193/1/2 198/1/2
f 188/2/2 194/2/2 199/2/2
f 198/1/2 188/1/2 199/1/2
f 195/3/2 191/3/2 200/3/2
f 191/4/2 184/4/2 200/4/2
f 200/4/2 184/4/2 201/4/2
f 197/3/2 192/3/2 202/3/2
f 196/3/2 197/3/2 202/3/2
f 192/1/2 198/1/2 203/1/2
f 202/3/2 192/3/2 203/3/2
f 199/2/2 194/2/2 204/2/2
f 198/2/2 199/2/2 204/2/2
f 194/1/2 195/1/2 205/1/2
f 204/2/2 194/2/2 205/2/2
f 200/3/2 201/3/2 206/3/2
f 205/1/2 195/1/2 206/1/2
f 195/3/2 200/3/2 206/3/2
f 206/3/2 201/3/2 207/3/2
f 203/1/2 198/1/2 208/1/2
f 202/1/2 203/1/2 208/1/2
f 198/2/2 204/2/2 208/2/2
f 206/1/2 207/1/2 209/1/2
f 208/2/2 204/2/2 209/2/2
f 204/1/2 205/1/2 209/1/2
f 205/1/2 206/1/2 209/1/2
f 209/1/2 207/1/2 210/1/2
f 210/1/2 207/1/2 211/1/2
f 202/1/2 208/1/2 212/1/2
f 196/3/2 202/3/2 212/3/2
f 208/1/2 209/1/2 212/1/2
f 209/1/2 210/1/2 212/1/2
f 212/1/2 210/1/2 213/1/2
f 213/1/2 210/1/2 214/1/2
f 214/1/2 210/1/2 215/1/2
f 211/1/2 207/1/2 216/1/2
f 210/2/2 211/2/2 216/2/2
f 216/1/2 207/1/2 217/1/2
f 207/3/2 201/3/2 218/3/2
f 217/1/2 207/1/2 218/1/2
f 196/3/2 212/3/2 219/3/2
f 212/3/2 213/3/2 219/3/2
f 219/3/2 213/3/2 220/3/2
f 213/1/2 214/1/2 221/1/2
f 220/3/2 213/3/2 221/3/2
f 214/2/2 215/2/2 222/2/2
f 221/1/2 214/1/2 222/1/2
f 222/2/2 215/2/2 223/2/2
f 215/1/2 210/1/2 224/1/2
f 223/2/2 215/2/2 224/2/2
f 216/2/2 217/2/2 225/2/2
f 224/1/2 210/1/2 225/1/2
f 210/2/2 216/2/2 225/2/2
f 225/2/2 217/2/2 226/2/2
f 218/3/2 201/3/2 227/3/2
f 217/3/2 218/3/2 227/3/2
f 227/3/2 201/3/2 228/3/2
f 222/2/2 223/2/2 229/2/2
f 220/3/2 221/3/2 229/3/2
f 221/2/2 222/2/2 229/2/2
f 223/1/2 224/1/2 230/1/2
f 229/2/2 223/2/2 230/2/2
f 225/1/2 226/1/2 230/1/2
f 224/1/2 225/1/2 230/1/2
f 230/1/2 226/1/2 231/1/2
f 226/2/2 217/2/2 232/2/2
f 231/1/2 226/1/2 232/1/2
f 217/3/2 227/3/2 233/3/2
f 232/2/2 217/2/2 233/2/2
f 220/3/2 229/3/2 234/3/2
f 219/4/2 220/4/2 234/4/2
f 229/3/2 230/3/2 234/3/2
f 234/3/2 230/3/2 235/3/2
f 230/1/2 231/1/2 236/1/2
f 235/3/2 230/3/2 236/3/2
f 232/3/2 233/3/2 237/3/2
f 236/1/2 231/1/2 237/1/2
f 231/3/2 232/3/2 237/3/2
f 237/3/2 233/3/2 238/3/2
f 233/3/2 227/3/2 239/3/2
f 238/3/2 233/3/2 239/3/2
f 227/4/2 228/4/2 239/4/2
f 234/4/2 235/4/2 240/4/2
f 219/4/2 234/4/2 240/4/2
f 237/3/2 238/3/2 241/3/2
f 240/4/2 235/4/2 241/4/2
f 236/3/2 237/3/2 241/3/2
f 235/3/2 236/3/2 241/3/2
f 241/3/2 238/3/2 242/3/2
f 242/3/2 238/3/2 243/3/2
f 243/3/2 238/3/2 244/3/2
f 238/4/2 239/4/2 245/4/2
f 244/3/2 238/3/2 245/3/2
f 239/4/2 228/4/2 246/4/2
f 245/4/2 239/4/2 246/4/2
f 240/3/2 241/3/2 247/3/2
f 241/3/2 242/3/2 247/3/2
f 242/1/2 243/1/2 248/1/2
f 247/3/2 242/3/2 248/3/2
f 243/2/2 244/2/2 249/2/2
f 244/3/2 245/3/2 249/3/2
f 245/3/2 246/3/2 249/3/2
f 249/3/2 246/3/2 250/3/2
f 219/4/2 240/4/2 251/4/2
f 240/3/2 247/3/2 252/3/2
f 251/4/2 240/4/2 252/4/2
f 248/1/2 243/1/2 253/1/2
f 247/1/2 248/1/2 253/1/2
f 243/2/2 249/2/2 254/2/2
f 253/1/2 243/1/2 254/1/2
f 250/3/2 246/3/2 255/3/2
f 246/4/2 228/4/2 255/4/2
f 255/4/2 228/4/2 256/4/2
f 252/3/2 247/3/2 257/3/2
f 251/3/2 252/3/2 257/3/2
f 247/1/2 253/1/2 258/1/2
f 257/3/2 247/3/2 258/3/2
f 254/2/2 249/2/2 259/2/2
f 253/2/2 254/2/2 259/2/2
f 249/1/2 250/1/2 260/1/2
f 259/2/2 249/2/2 260/2/2
f 255/3/2 256/3/2 261/3/2
f 260/1/2 250/1/2 261/1/2
f 250/3/2 255/3/2 261/3/2
f 261/3/2 256/3/2 262/3/2
f 258/1/2 253/1/2 263/1/2
f 257/1/2 258/1/2 263/1/2
f 253/2/2 259/2/2 263/2/2
f 259/1/2 260/1/2 264/1/2
f 263/2/2 259/2/2 264/2/2
f 261/1/2 262/1/2 264/1/2
f 260/1/2 261/1/2 264/1/2
f 264/1/2 262/1/2 265/1/2
f 265/1/2 262/1/2 266/1/2
f 257/1/2 263/1/2 267/1/2
f 251/3/2 257/3/2 267/3/2
f 263/1/2 264/1/2 267/1/2
f 264/1/2 265/1/2 267/1/2
f 267/1/2 265/1/2 268/1/2
f 268/1/2 265/1/2 269/1/2
f 269/1/2 265/1/2 270/1/2
f 266/1/2 262/1/2 271/1/2
f 265/2/2 266/2/2 271/2/2
f 271/1/2 262/1/2 272/1/2
f 262/3/2 256/3/2 273/3/2
f 272/1/2 262/1/2 273/1/2
f 251/3/2 267/3/2 274/3/2
f 267/3/2 268/3/2 274/3/2
f 274/3/2 268/3/2 275/3/2
f 268/1/2 269/1/2 276/1/2
f 275/3/2 268/3/2 276/3/2
f 269/2/2 270/2/2 277/2/2
f 276/1/2 269/1/2 277/1/2
f 277/2/2 270/2/2 278/2/2
f 270/1/2 265/1/2 279/1/2
f 278/2/2 270/2/2 279/2/2
f 271/2/2 272/2/2 280/2/2
f 279/1/2 265/1/2 280/1/2
f 265/2/2 271/2/2 280/2/2
f 280/2/2 272/2/2 281/2/2
f 273/3/2 256/3/2 282/3/2
f 272/3/2 273/3/2 282/3/2
f 282/3/2 256/3/2 283/3/2
f 277/2/2 278/2/2 284/2/2
f 275/3/2 276/3/2 284/3/2
f 276/2/2 277/2/2 284/2/2
f 278/1/2 279/1/2 285/1/2
f 284/2/2 278/2/2 285/2/2
f 280/1/2 281/1/2 285/1/2
f 279/1/2 280/1/2 285/1/2
f 285/1/2 281/1/2 286/1/2
f 281/2/2 272/2/2 287/2/2
f 286/1/2 281/1/2 287/1/2
f 272/3/2 282/3/2 288/3/2
f 287/2/2 272/2/2 288/2/2
f 275/3/2 284/3/2 289/3/2
f 274/4/2 275/4/2 289/4/2
f 284/3/2 285/3/2 289/3/2
f 289/3/2 285/3/2 290/3/2
f 285/1/2 286/1/2 291/1/2
f 290/3/2 285/3/2 291/3/2
f 287/3/2 288/3/2 292/3/2
f 291/1/2 286/1/2 292/1/2
f 286/3/2 287/3/2 292/3/2
f 292/3/2 288/3/2 293/3/2
f 288/3/2 282/3/2 294/3/2
f 293/3/2 288/3/2 294/3/2
f 282/4/2 283/4/2 294/4/2
f 289/4/2 290/4/2 295/4/2
f 274/4/2 289/4/2 295/4/2
f 292/3/2 293/3/2 296/3/2
f 295/4/2 290/4/2 296/4/2
f 291/3/2 292/3/2 296/3/2
f 290/3/2 291/3/2 296/3/2
f 296/3/2 293/3/2 297/3/2
f 297/3/2 293/3/2 298/3/2
f 298/3/2 293/3/2 299/3/2
f 293/4/2 294/4/2 300/4/2
f 299/3/2 293/3/2 300/3/2
f 294/4/2 283/4/2 301/4/2
f 300/4/2 294/4/2 301/4/2
f 295/3/2 296/3/2 302/3/2
f 296/3/2 297/3/2 302/3/2
f 297/1/2 298/1/2 303/1/2
f 302/3/2 297/3/2 303/3/2
f 298/2/2 299/2/2 304/2/2
f 299/3/2 300/3/2 304/3/2
f 300/3/2 301/3/2 304/3/2
f 304/3/2 301/3/2 305/3/2
f 274/4/2 295/4/2 306/4/2
f 295/3/2 302/3/2 307/3/2
f 306/4/2 295/4/2 307/4/2
f 303/1/2 298/1/2 308/1/2
f 302/1/2 303/1/2 308/1/2
f 298/2/2 304/2/2 309/2/2
f 308/1/2 298/1/2 309/1/2
f 305/3/2 301/3/2 310/3/2
f 301/4/2 283/4/2 310/4/2
f 310/4/2 283/4/2 311/4/2
f 307/3/2 302/3/2 312/3/2
f 306/3/2 307/3/2 312/3/2
f 302/1/2 308/1/2 313/1/2
f 312/3/2 302/3/2 313/3/2
f 309/2/2 304/2/2 314/2/2
f 308/2/2 309/2/2 314/2/2
f 304/1/2 305/1/2 315/1/2
f 314/2/2 304/2/2 315/2/2
f 310/3/2 311/3/2 316/3/2
f 315/1/2 305/1/2 316/1/2
f 305/3/2 310/3/2 316/3/2
f 316/3/2 311/3/2 317/3/2
f 313/1/2 308/1/2 318/1/2
f 312/1/2 313/1/2 318/1/2
f 308/2/2 314/2/2 318/2/2
f 314/1/2 315/1/2 319/1/2
f 318/2/2 314/2/2 319/2/2
f 316/1/2 317/1/2 319/1/2
f 315/1/2 316/1/2 319/1/2
f 319/1/2 317/1/2 320/1/2
f 320/1/2 317/1/2 321/1/2
f 312/1/2 318/1/2 322/1/2
f 306/3/2 312/3/2 322/3/2
f 318/1/2 319/1/2 322/1/2
f 319/1/2 320/1/2 322/1/2
f 322/1/2 320/1/2 323/1/2
f 323/1/2 320/1/2 324/1/2
f 324/1/2 320/1/2 325/1/2
f 321/1/2 317/1/2 326/1/2
f 320/2/2 321/2/2 326/2/2
f 326/1/2 317/1/2 327/1/2
f 317/3/2 311/3/2 328/3/2
f 327/1/2 317/1/2 328/1/2
f 306/3/2 322/3/2 329/3/2
f 322/3/2 323/3/2 329/3/2
f 329/3/2 323/3/2 330/3/2
f 323/1/2 324/1/2 331/1/2
f 330/3/2 323/3/2 331/3/2
f 324/2/2 325/2/2 332/2/2
f 331/1/2 324/1/2 332/1/2
f 332/2/2 325/2/2 333/2/2
f 325/1/2 320/1/2 334/1/2
f 333/2/2 325/2/2 334/2/2
f 326/2/2 327/2/2 335/2/2
f 334/1/2 320/1/2 335/1/2
f 320/2/2 326/2/2 335/2/2
f 335/2/2 327/2/2 336/2/2
f 328/3/2 311/3/2 337/3/2
f 327/3/2 328/3/2 337/3/2
f 337/3/2 311/3/2 338/3/2
f 332/2/2 333/2/2 339/2/2
f 330/3/2 331/3/2 339/3/2
f 331/2/2 332/2/2 339/2/2
f 333/1/2 334/1/2 340/1/2
f 339/2/2 333/2/2 340/2/2
f 335/1/2 336/1/2 340/1/2
f 334/1/2 335/1/2 340/1/2
f 340/1/2 336/1/2 341/1/2
f 336/2/2 327/2/2 342/2/2
f 341/1/2 336/1/2 342/1/2
f 327/3/2 337/3/2 343/3/2
f 342/2/2 327/2/2 343/2/2
f 330/3/2 339/3/2 344/3/2
f 329/4/2 330/4/2 344/4/2
f 339/3/2 340/3/2 344/3/2
f 344/3/2 340/3/2 345/3/2
f 340/1/2 341/1/2 346/1/2
f 345/3/2 340/3/2 346/3/2
f 342/3/2 343/3/2 347/3/2
f 346/1/2 341/1/2 347/1/2
f 341/3/2 342/3/2 347/3/2
f 347/3/2 343/3/2 348/3/2
f 343/3/2 337/3/2 349/3/2
f 348/3/2 343/3/2 349/3/2
f 337/4/2 338/4/2 349/4/2
f 344/4/2 345/4/2 350/4/2
f 329/4/2 344/4/2 350/4/2
f 347/3/2 348/3/2 351/3/2
f 350/4/2 345/4/2 351/4/2
f 346/3/2 347/3/2 351/3/2
f 345/3/2 346/3/2 351/3/2
f 351/3/2 348/3/2 352/3/2
f 352/3/2 348/3/2 353/3/2
f 353/3/2 348/3/2 354/3/2
f 348/4/2 349/4/2 355/4/2
f 354/3/2 348/3/2 355/3/2
f 349/4/2 338/4/2 356/4/2
f 355/4/2 349/4/2 356/4/2
f 350/3/2 351/3/2 357/3/2
f 351/3/2 352/3/2 357/3/2
f 352/1/2 353/1/2 358/1/2
f 357/3/2 352/3/2 358/3/2
f 353/2/2 354/2/2 359/2/2
f 354/3/2 355/3/2 359/3/2
f 355/3/2 356/3/2 359/3/2
f 359/3/2 356/3/2 360/3/2
f 329/4/2 350/4/2 361/4/2
f 350/3/2 357/3/2 362/3/2
f 361/4/2 350/4/2 362/4/2
f 358/1/2 353/1/2 363/1/2
f 357/1/2 358/1/2 363/1/2
f 353/2/2 359/2/2 364/2/2
f 363/1/2 353/1/2 364/1/2
f 360/3/2 356/3/2 365/3/2
f 356/4/2 338/4/2 365/4/2
f 365/4/2 338/4/2 366/4/2
f 362/3/2 357/3/2 367/3/2
f 361/3/2 362/3/2 367/3/2
f 357/1/2 363/1/2 368/1/2
f 367/3/2 357/3/2 368/3/2
f 364/2/2 359/2/2 369/2/2
f 363/2/2 364/2/2 369/2/2
f 359/1/2 360/1/2 370/1/2
f 369/2/2 359/2/2 370/2/2
f 365/3/2 366/3/2 371/3/2
f 370/1/2 360/1/2 371/1/2
f 360/3/2 365/3/2 371/3/2
f 371/3/2 366/3/2 372/3/2
f 368/1/2 363/1/2 373/1/2
f 367/1/2 368/1/2 373/1/2
f 363/2/2 369/2/2 373/2/2
f 369/1/2 370/1/2 374/1/2
f 373/2/2 369/2/2 374/2/2
f 371/1/2 372/1/2 374/1/2
f 370/1/2 371/1/2 374/1/2
f 374/1/2 372/1/2 375/1/2
f 375/1/2 372/1/2 376/1/2
f 367/1/2 373/1/2 377/1/2
f 361/3/2 367/3/2 377/3/2
f 373/1/2 374/1/2 377/1/2
f 374/1/2 375/1/2 377/1/2
f 377/1/2 375/1/2 378/1/2
f 378/1/2 375/1/2 379/1/2
f 379/1/2 375/1/2 380/1/2
f 376/1/2 372/1/2 381/1/2
f 375/2/2 376/2/2 381/2/2
f 381/1/2 372/1/2 382/1/2
f 372/3/2 366/3/2 383/3/2
f 382/1/2 372/1/2 383/1/2
f 361/3/2 377/3/2 384/3/2
f 377/3/2 378/3/2 384/3/2
f 384/3/2 378/3/2 385/3/2
f 378/1/2 379/1/2 386/1/2
f 385/3/2 378/3/2 386/3/2
f 379/2/2 380/2/2 387/2/2
f 386/1/2 379/1/2 387/1/2
f 387/2/2 380/2/2 388/2/2
f 380/1/2 375/1/2 389/1/2
f 388/2/2 380/2/2 389/2/2
f 381/2/2 382/2/2 390/2/2
f 389/1/2 375/1/2 390/1/2
f 375/2/2 381/2/2 390/2/2
f 390/2/2 382/2/2 391/2/2
f 383/3/2 366/3/2 392/3/2
f 382/3/2 383/3/2 392/3/2
f 392/3/2 366/3/2 393/3/2
f 387/2/2 388/2/2 394/2/2
f 385/3/2 386/3/2 394/3/2
f 386/2/2 387/2/2 394/2/2
f 388/1/2 389/1/2 395/1/2
f 394/2/2 388/2/2 395/2/2
f 390/1/2 391/1/2 395/1/2
f 389/1/2 390/1/2 395/1/2
f 395/1/2 391/1/2 396/1/2
f 391/2/2 382/2/2 397/2/2
f 396/1/2 391/1/2 397/1/2
f 382/3/2 392/3/2 398/3/2
f 397/2/2 382/2/2 398/2/2
f 385/3/2 394/3/2 399/3/2
f 384/4/2 385/4/2 399/4/2
f 394/3/2 395/3/2 399/3/2
f 399/3/2 395/3/2 400/3/2
f 395/1/2 396/1/2 401/1/2
f 400/3/2 395/3/2 401/3/2
f 397/3/2 398/3/2 402/3/2
f 401/1/2 396/1/2 402/1/2
f 396/3/2 397/3/2 402/3/2
f 402/3/2 398/3/2 403/3/2
f 398/3/2 392/3/2 404/3/2
f 403/3/2 398/3/2 404/3/2
f 392/4/2 393/4/2 404/4/2
f 399/4/2 400/4/2 405/4/2
f 384/4/2 399/4/2 405/4/2
f 402/3/2 403/3/2 406/3/2
f 405/4/2 400/4/2 406/4/2
f 401/3/2 402/3/2 406/3/2
f 400/3/2 401/3/2 406/3/2
f 403/4/2 404/4/2 407/4/2
f 406/3/2 403/3/2 407/3/2
f 404/4/2 393/4/2 408/4/2
f 407/4/2 404/4/2 408/4/2
f 411/3/3 410/3/3 409/3/3
f 412/3/3 410/3/3 411/3/3
f 415/4/3 414/4/3 413/4/3
f 416/4/3 414/4/3 415/4/3
f 417/4/3 414/4/3 416/4/3
f 418/4/3 414/4/3 417/4/3
f 419/4/3 414/4/3 418/4/3
f 420/4/3 414/4/3 419/4/3
f 421/4/3 414/4/3 420/4/3
f 422/4/3 414/4/3 421/4/3
f 423/4/3 415/4/3 413/4/3
f 424/3/3 416/3/3 415/3/3
f 424/4/3 415/4/3 423/4/3
f 425/4/3 417/4/3 416/4/3
f 425/3/3 416/3/3 424/3/3
f 426/3/3 418/3/3 417/3/3
f 426/4/3 417/4/3 425/4/3
f 427/4/3 419/4/3 418/4/3
f 427/3/3 418/3/3 426/3/3
f 428/3/3 420/3/3 419/3/3
f 428/4/3 419/4/3 427/4/3
f 429/4/3 421/4/3 420/4/3
f 429/3/3 420/3/3 428/3/3
f 430/3/3 422/3/3 421/3/3
f 430/4/3 421/4/3 429/4/3
f 431/4/3 414/4/3 422/4/3
f 431/3/3 422/3/3 430/3/3
f 432/4/3 414/4/3 431/4/3
f 434/3/3 425/3/3 424/3/3
f 435/3/3 425/3/3 434/3/3
f 436/3/3 427/3/3 426/3/3
f 437/3/3 427/3/3 436/3/3
f 438/3/3 429/3/3 428/3/3
f 439/3/3 429/3/3 438/3/3
f 440/3/3 431/3/3 430/3/3
f 441/3/3 431/3/3 440/3/3
f 443/4/3 434/4/3 433/4/3
f 444/3/3 435/3/3 434/3/3
f 444/4/3 434/4/3 443/4/3
f 445/4/3 436/4/3 435/4/3
f 445/3/3 435/3/3 444/3/3
f 446/3/3 437/3/3 436/3/3
f 446/4/3 436/4/3 445/4/3
f 447/4/3 438/4/3 437/4/3
f 447/3/3 437/3/3 446/3/3
f 448/3/3 439/3/3 438/3/3
f 448/4/3 438/4/3 447/4/3
f 449/4/3 440/4/3 439/4/3
f 449/3/3 439/3/3 448/3/3
f 450/3/3 441/3/3 440/3/3
f 450/4/3 440/4/3 449/4/3
f 451/4/3 442/4/3 441/4/3
f 451/3/3 441/3/3 450/3/3
f 452/4/3 442/4/3 451/4/3
f 455/3/3 454/3/3 453/3/3
f 456/3/3 454/3/3 455/3/3
f 459/3/3 458/3/3 457/3/3
f 460/3/3 458/3/3 459/3/3
f 477/3/3 462/3/3 461/3/3
f 478/3/3 462/3/3 477/3/3
f 479/3/3 464/3/3 463/3/3
f 480/3/3 464/3/3 479/3/3
f 481/3/3 466/3/3 465/3/3
f 482/3/3 466/3/3 481/3/3
f 483/3/3 468/3/3 467/3/3
f 484/3/3 468/3/3 483/3/3
f 485/3/3 470/3/3 469/3/3
f 486/3/3 470/3/3 485/3/3
f 487/3/3 472/3/3 471/3/3
f 488/3/3 472/3/3 487/3/3
f 489/3/3 474/3/3 473/3/3
f 490/3/3 474/3/3 489/3/3
f 491/3/3 476/3/3 475/3/3
f 492/3/3 476/3/3 491/3/3
f 495/3/3 494/3/3 493/3/3
f 496/3/3 494/3/3 495/3/3
f 507/3/3 498/3/3 497/3/3
f 508/3/3 498/3/3 507/3/3
f 509/3/3 500/3/3 499/3/3
f 510/3/3 500/3/3 509/3/3
f 511/3/3 502/3/3 501/3/3
f 512/3/3 502/3/3 511/3/3
f 513/3/3 504/3/3 503/3/3
f 514/3/3 504/3/3 513/3/3
f 515/3/3 506/3/3 505/3/3
f 516/3/3 506/3/3 515/3/3
f 517/3/4 518/3/4 519/3/4
f 519/3/4 518/3/4 520/3/4
f 521/3/4 522/3/4 531/3/4
f 531/3/4 522/3/4 532/3/4
f 523/3/4 524/3/4 533/3/4
f 533/3/4 524/3/4 534/3/4
f 525/3/4 526/3/4 535/3/4
f 535/3/4 526/3/4 536/3/4
f 527/3/4 528/3/4 537/3/4
f 537/3/4 528/3/4 538/3/4
f 529/3/4 530/3/4 539/3/4
f 539/3/4 530/3/4 540/3/4
f 541/3/4 542/3/4 543/3/4
f 543/3/4 542/3/4 544/3/4
f 545/3/4 546/3/4 547/3/4
f 547/3/4 546/3/4 548/3/4
f 549/3/4 550/3/4 565/3/4
f 565/3/4 550/3/4 566/3/4
f 551/3/4 552/3/4 567/3/4
f 567/3/4 552/3/4 568/3/4
f 553/3/4 554/3/4 569/3/4
f 569/3/4 554/3/4 570/3/4
f 555/3/4 556/3/4 571/3/4
f 571/3/4 556/3/4 572/3/4
f 557/3/4 558/3/4 573/3/4
f 573/3/4 558/3/4 574/3/4
f 559/3/4 560/3/4 575/3/4
f 575/3/4 560/3/4 576/3/4
f 561/3/4 562/3/4 577/3/4
f 577/3/4 562/3/4 578/3/4
f 563/3/4 564/3/4 579/3/4
f 579/3/4 564/3/4 580/3/4
f 581/3/4 582/3/4 583/3/4
f 583/3/4 582/3/4 584/3/4
f 585/4/4 586/4/4 587/4/4
f 587/4/4 586/4/4 588/4/4
f 588/4/4 586/4/4 589/4/4
f 589/4/4 586/4/4 590/4/4
f 590/4/4 586/4/4 591/4/4
f 591/4/4 586/4/4 592/4/4
f 592/4/4 586/4/4 593/4/4
f 593/4/4 586/4/4 594/4/4
f 585/4/4 587/4/4 595/4/4
f 587/3/4 588/3/4 596/3/4
f 595/4/4 587/4/4 596/4/4
f 588/4/4 589/4/4 597/4/4
f 596/3/4 588/3/4 597/3/4
f 589/3/4 590/3/4 598/3/4
f 597/4/4 589/4/4 598/4/4
f 590/4/4 591/4/4 599/4/4
f 598/3/4 590/3/4 599/3/4
f 591/3/4 592/3/4 600/3/4
f 599/4/4 591/4/4 600/4/4
f 592/4/4 593/4/4 601/4/4
f 600/3/4 592/3/4 601/3/4
f 593/3/4 594/3/4 602/3/4
f 601/4/4 593/4/4 602/4/4
f 594/4/4 586/4/4 603/4/4
f 602/3/4 594/3/4 603/3/4
f 603/4/4 586/4/4 604/4/4
f 596/3/4 597/3/4 606/3/4
f 606/3/4 597/3/4 607/3/4
f 598/3/4 599/3/4 608/3/4
f 608/3/4 599/3/4 609/3/4
f 600/3/4 601/3/4 610/3/4
f 610/3/4 601/3/4 611/3/4
f 602/3/4 603/3/4 612/3/4
f 612/3/4 603/3/4 613/3/4
f 605/4/4 606/4/4 615/4/4
f 606/3/4 607/3/4 616/3/4
f 615/4/4 606/4/4 616/4/4
f 607/4/4 608/4/4 617/4/4
f 616/3/4 607/3/4 617/3/4
f 608/3/4 609/3/4 618/3/4
f 617/4/4 608/4/4 618/4/4
f 609/4/4 610/4/4 619/4/4
f 618/3/4 609/3/4 619/3/4
f 610/3/4 611/3/4 620/3/4
f 619/4/4 610/4/4 620/4/4
f 611/4/4 612/4/4 621/4/4
f 620/3/4 611/3/4 621/3/4
f 612/3/4 613/3/4 622/3/4
f 621/4/4 612/4/4 622/4/4
f 613/4/4 614/4/4 623/4/4
f 622/3/4 613/3/4 623/3/4
f 623/4/4 614/4/4 624/4/4
f 632/3/5 626/3/5 625/3/5
f 633/3/5 626/3/5 632/3/5
f 634/3/5 626/3/5 633/3/5
f 635/3/5 626/3/5 634/3/5
f 636/4/5 628/4/5 627/4/5
f 637/3/5 632/3/5 631/3/5
f 637/3/5 633/3/5 632/3/5
f 638/1/5 634/1/5 633/1/5
f 638/3/5 633/3/5 637/3/5
f 639/3/5 635/3/5 634/3/5
f 639/1/5 634/1/5 638/1/5
f 639/3/5 636/3/5 635/3/5
f 640/3/5 636/3/5 639/3/5
f 641/3/5 636/3/5 640/3/5
f 643/3/5 637/3/5 631/3/5
f 644/2/5 638/2/5 637/2/5
f 644/3/5 637/3/5 643/3/5
f 645/2/5 638/2/5 644/2/5
f 646/1/5 639/1/5 638/1/5
f 646/2/5 638/2/5 645/2/5
f 646/1/5 640/1/5 639/1/5
f 647/1/5 640/1/5 646/1/5
f 648/1/5 640/1/5 647/1/5
f 649/2/5 641/2/5 640/2/5
f 649/1/5 640/1/5 648/1/5
f 650/4/5 628/4/5 636/4/5
f 650/3/5 636/3/5 641/3/5
f 651/4/5 628/4/5 650/4/5
f 652/4/5 630/4/5 629/4/5
f 653/4/5 630/4/5 652/4/5
f 654/3/5 643/3/5 642/3/5
f 654/3/5 644/3/5 643/3/5
f 655/1/5 645/1/5 644/1/5
f 655/3/5 644/3/5 654/3/5
f 656/2/5 646/2/5 645/2/5
f 656/1/5 645/1/5 655/1/5
f 656/2/5 647/2/5 646/2/5
f 657/1/5 648/1/5 647/1/5
f 657/2/5 647/2/5 656/2/5
f 658/2/5 641/2/5 649/2/5
f 658/2/5 649/2/5 648/2/5
f 659/3/5 651/3/5 650/3/5
f 659/2/5 641/2/5 658/2/5
f 659/3/5 653/3/5 652/3/5
f 659/3/5 652/3/5 651/3/5
f 659/3/5 650/3/5 641/3/5
f 660/3/5 653/3/5 659/3/5
f 661/1/5 657/1/5 656/1/5
f 661/1/5 656/1/5 655/1/5
f 661/1/5 655/1/5 654/1/5
f 662/1/5 648/1/5 657/1/5
f 662/1/5 657/1/5 661/1/5
f 663/2/5 658/2/5 648/2/5
f 663/1/5 648/1/5 662/1/5
f 664/1/5 660/1/5 659/1/5
f 664/2/5 658/2/5 663/2/5
f 664/1/5 659/1/5 658/1/5
f 665/1/5 661/1/5 654/1/5
f 665/3/5 654/3/5 642/3/5
f 666/1/5 661/1/5 665/1/5
f 667/2/5 662/2/5 661/2/5
f 667/1/5 664/1/5 663/1/5
f 667/1/5 663/1/5 662/1/5
f 668/1/5 664/1/5 667/1/5
f 669/1/5 660/1/5 664/1/5
f 669/1/5 664/1/5 668/1/5
f 670/3/5 653/3/5 660/3/5
f 670/1/5 660/1/5 669/1/5
f 671/3/5 666/3/5 665/3/5
f 671/3/5 665/3/5 642/3/5
f 672/3/5 666/3/5 671/3/5
f 673/1/5 661/1/5 666/1/5
f 673/2/5 668/2/5 667/2/5
f 673/2/5 667/2/5 661/2/5
f 674/2/5 668/2/5 673/2/5
f 675/3/5 653/3/5 670/3/5
f 675/3/5 670/3/5 669/3/5
f 676/3/5 653/3/5 675/3/5
f 677/3/5 653/3/5 676/3/5
f 678/3/5 653/3/5 677/3/5
f 679/3/5 666/3/5 672/3/5
f 679/1/5 674/1/5 673/1/5
f 679/1/5 673/1/5 666/1/5
f 680/1/5 674/1/5 679/1/5
f 681/1/5 669/1/5 668/1/5
f 681/2/5 668/2/5 674/2/5
f 682/3/5 675/3/5 669/3/5
f 682/1/5 669/1/5 681/1/5
f 683/3/5 680/3/5 679/3/5
f 683/3/5 679/3/5 672/3/5
f 684/3/5 680/3/5 683/3/5
f 685/1/5 674/1/5 680/1/5
f 685/3/5 680/3/5 684/3/5
f 686/2/5 681/2/5 674/2/5
f 686/1/5 674/1/5 685/1/5
f 687/3/5 682/3/5 681/3/5
f 687/2/5 681/2/5 686/2/5
f 688/3/5 682/3/5 687/3/5
f 689/3/5 675/3/5 682/3/5
f 689/3/5 682/3/5 688/3/5
f 689/4/5 676/4/5 675/4/5
f 690/3/5 688/3/5 687/3/5
f 690/3/5 687/3/5 686/3/5
f 690/3/5 686/3/5 685/3/5
f 690/3/5 685/3/5 684/3/5
f 691/3/5 688/3/5 690/3/5
f 692/4/5 676/4/5 689/4/5
f 693/4/5 676/4/5 692/4/5
f 694/4/5 678/4/5 677/4/5
f 695/4/5 678/4/5 694/4/5
f 698/3/5 697/3/5 696/3/5
f 699/3/5 697/3/5 698/3/5
f 702/3/5 701/3/5 700/3/5
f 703/3/5 701/3/5 702/3/5
f 706/3/5 705/3/5 704/3/5
f 707/3/5 705/3/5 706/3/5
f 710/3/5 709/3/5 708/3/5
f 711/3/5 709/3/5 710/3/5
f 714/3/5 713/3/5 712/3/5
f 715/3/5 713/3/5 714/3/5
f 718/3/5 717/3/5 716/3/5
f 719/3/5 717/3/5 718/3/5
f 722/3/5 721/3/5 720/3/5
f 723/3/5 721/3/5 722/3/5
f 726/3/5 725/3/5 724/3/5
f 727/3/5 725/3/5 726/3/5
f 730/3/5 729/3/5 728/3/5
f 731/3/5 729/3/5 730/3/5
f 734/3/5 733/3/5 732/3/5
f 735/3/5 733/3/5 734/3/5
f 738/3/5 737/3/5 736/3/5
f 739/3/5 737/3/5 738/3/5
f 742/3/5 741/3/5 740/3/5
f 743/3/5 741/3/5 742/3/5
f 746/3/5 745/3/5 744/3/5
f 747/3/5 745/3/5 746/3/5
f 750/3/5 749/3/5 748/3/5
f 751/3/5 749/3/5 750/3/5
f 754/3/5 753/3/5 752/3/5
f 755/3/5 753/3/5 754/3/5
f 758/3/5 757/3/5 756/3/5
f 759/3/5 757/3/5 758/3/5
f 760/3/6 761/3/6 762/3/6
f 762/3/6 761/3/6 763/3/6
f 764/3/6 765/3/6 766/3/6
f 766/3/6 765/3/6 767/3/6
f 768/3/6 769/3/6 770/3/6
f 770/3/6 769/3/6 771/3/6
f 772/3/6 773/3/6 774/3/6
f 774/3/6 773/3/6 775/3/6
f 776/3/6 777/3/6 778/3/6
f 778/3/6 777/3/6 779/3/6
f 780/3/6 781/3/6 782/3/6
f 782/3/6 781/3/6 783/3/6
f 784/3/6 785/3/6 786/3/6
f 786/3/6 785/3/6 787/3/6
f 788/3/6 789/3/6 790/3/6
f 790/3/6 789/3/6 791/3/6
f 792/3/6 793/3/6 794/3/6
f 794/3/6 793/3/6 795/3/6
f 796/3/6 797/3/6 798/3/6
f 798/3/6 797/3/6 799/3/6
f 800/3/6 801/3/6 802/3/6
f 802/3/6 801/3/6 803/3/6
f 804/3/6 805/3/6 806/3/6
f 806/3/6 805/3/6 807/3/6
f 808/3/6 809/3/6 810/3/6
f 810/3/6 809/3/6 811/3/6
f 812/3/6 813/3/6 814/3/6
f 814/3/6 813/3/6 815/3/6
f 816/3/6 817/3/6 818/3/6
f 818/3/6 817/3/6 819/3/6
f 820/3/6 821/3/6 822/3/6
f 822/3/6 821/3/6 823/3/6
f 824/3/6 825/3/6 831/3/6
f 831/3/6 825/3/6 832/3/6
f 832/3/6 825/3/6 833/3/6
f 833/3/6 825/3/6 834/3/6
f 826/4/6 827/4/6 835/4/6
f 830/3/6 831/3/6 836/3/6
f 831/3/6 832/3/6 836/3/6
f 832/1/6 833/1/6 837/1/6
f 836/3/6 832/3/6 837/3/6
f 833/3/6 834/3/6 838/3/6
f 837/1/6 833/1/6 838/1/6
f 834/3/6 835/3/6 838/3/6
f 838/3/6 835/3/6 839/3/6
f 839/3/6 835/3/6 840/3/6
f 830/3/6 836/3/6 842/3/6
f 836/2/6 837/2/6 843/2/6
f 842/3/6 836/3/6 843/3/6
f 843/2/6 837/2/6 844/2/6
f 837/1/6 838/1/6 845/1/6
f 844/2/6 837/2/6 845/2/6
f 845/1/6 838/1/6 846/1/6
f 838/2/6 839/2/6 847/2/6
f 846/1/6 838/1/6 847/1/6
f 839/1/6 840/1/6 848/1/6
f 847/2/6 839/2/6 848/2/6
f 835/4/6 827/4/6 849/4/6
f 840/3/6 835/3/6 849/3/6
f 849/4/6 827/4/6 850/4/6
f 828/4/6 829/4/6 851/4/6
f 851/4/6 829/4/6 852/4/6
f 841/3/6 842/3/6 853/3/6
f 842/3/6 843/3/6 853/3/6
f 843/1/6 844/1/6 854/1/6
f 853/3/6 843/3/6 854/3/6
f 845/2/6 846/2/6 855/2/6
f 854/1/6 844/1/6 855/1/6
f 844/2/6 845/2/6 855/2/6
f 847/1/6 848/1/6 856/1/6
f 855/2/6 846/2/6 856/2/6
f 846/1/6 847/1/6 856/1/6
f 856/1/6 848/1/6 857/1/6
f 848/1/6 840/1/6 858/1/6
f 857/1/6 848/1/6 858/1/6
f 849/3/6 850/3/6 859/3/6
f 858/1/6 840/1/6 859/1/6
f 851/3/6 852/3/6 859/3/6
f 850/3/6 851/3/6 859/3/6
f 840/3/6 849/3/6 859/3/6
f 859/3/6 852/3/6 860/3/6
f 856/1/6 857/1/6 861/1/6
f 854/1/6 855/1/6 861/1/6
f 853/1/6 854/1/6 861/1/6
f 855/1/6 856/1/6 861/1/6
f 861/1/6 857/1/6 862/1/6
f 857/2/6 858/2/6 863/2/6
f 859/1/6 860/1/6 863/1/6
f 858/1/6 859/1/6 863/1/6
f 860/3/6 852/3/6 864/3/6
f 863/1/6 860/1/6 864/1/6
f 841/3/6 853/3/6 865/3/6
f 853/1/6 861/1/6 865/1/6
f 865/1/6 861/1/6 866/1/6
f 866/1/6 861/1/6 867/1/6
f 861/2/6 862/2/6 868/2/6
f 867/1/6 861/1/6 868/1/6
f 862/1/6 857/1/6 869/1/6
f 857/2/6 863/2/6 869/2/6
f 863/2/6 864/2/6 869/2/6
f 869/2/6 864/2/6 870/2/6
f 864/3/6 852/3/6 871/3/6
f 870/2/6 864/2/6 871/2/6
f 865/3/6 866/3/6 872/3/6
f 841/3/6 865/3/6 872/3/6
f 872/3/6 866/3/6 873/3/6
f 868/2/6 862/2/6 874/2/6
f 867/2/6 868/2/6 874/2/6
f 869/1/6 870/1/6 875/1/6
f 874/2/6 862/2/6 875/2/6
f 862/1/6 869/1/6 875/1/6
f 871/3/6 852/3/6 876/3/6
f 870/3/6 871/3/6 876/3/6
f 876/3/6 852/3/6 877/3/6
f 877/3/6 852/3/6 878/3/6
f 878/3/6 852/3/6 879/3/6
f 873/3/6 866/3/6 880/3/6
f 866/1/6 867/1/6 880/1/6
f 867/2/6 874/2/6 881/2/6
f 880/1/6 867/1/6 881/1/6
f 874/1/6 875/1/6 882/1/6
f 881/2/6 874/2/6 882/2/6
f 875/1/6 870/1/6 883/1/6
f 882/1/6 875/1/6 883/1/6
f 870/3/6 876/3/6 884/3/6
f 883/1/6 870/1/6 884/1/6
f 873/3/6 880/3/6 885/3/6
f 881/3/6 882/3/6 885/3/6
f 880/3/6 881/3/6 885/3/6
f 885/3/6 882/3/6 886/3/6
f 882/1/6 883/1/6 887/1/6
f 886/3/6 882/3/6 887/3/6
f 883/3/6 884/3/6 888/3/6
f 887/1/6 883/1/6 888/1/6
f 888/3/6 884/3/6 889/3/6
f 876/4/6 877/4/6 890/4/6
f 889/3/6 884/3/6 890/3/6
f 884/3/6 876/3/6 890/3/6
f 888/3/6 889/3/6 891/3/6
f 887/3/6 888/3/6 891/3/6
f 886/3/6 887/3/6 891/3/6
f 891/3/6 889/3/6 892/3/6
f 890/4/6 877/4/6 893/4/6
f 893/4/6 877/4/6 894/4/6
f 878/4/6 879/4/6 895/4/6
f 895/4/6 879/4/6 896/4/6
